LinguisticsPro-Bold.ufo
<glyph name="quotedbl" format="1">
  <advance width="473"/>
  <unicode hex="0022"/>
  <outline>
    <contour>
      <point x="74" y="630" type="line" smooth="yes"/>
      <point x="64" y="682"/>
      <point x="78" y="707"/>
      <point x="140" y="707" type="curve" smooth="yes"/>
      <point x="202" y="707"/>
      <point x="217" y="683"/>
      <point x="207" y="630" type="curve" smooth="yes"/>
      <point x="163" y="407" type="line"/>
      <point x="117" y="407" type="line"/>
    </contour>
    <contour>
      <point x="266" y="630" type="line" smooth="yes"/>
      <point x="256" y="682"/>
      <point x="270" y="707"/>
      <point x="332" y="707" type="curve" smooth="yes"/>
      <point x="394" y="707"/>
      <point x="409" y="683"/>
      <point x="399" y="630" type="curve" smooth="yes"/>
      <point x="355" y="407" type="line"/>
      <point x="309" y="407" type="line"/>
    </contour>
  </outline>
</glyph>
<glyph name="percent" format="2">
	<unicode hex="0025"/>
	<advance width="887"/>
	<outline>
		<contour>
			<point x="40" y="494" type="curve" smooth="yes"/>
			<point x="40" y="617"/>
			<point x="100" y="680"/>
			<point x="217.575" y="680" type="curve" smooth="yes"/>
			<point x="273" y="680"/>
			<point x="310" y="666"/>
			<point x="332.581" y="649.273" type="curve" smooth="yes"/>
			<point x="347.069" y="638.542"/>
			<point x="362" y="633"/>
			<point x="382" y="633" type="curve" smooth="yes"/>
			<point x="526" y="633" type="line" smooth="yes"/>
			<point x="584" y="633"/>
			<point x="595" y="642"/>
			<point x="614" y="670" type="curve" smooth="yes"/>
			<point x="635" y="701" type="line"/>
			<point x="682" y="668" type="line"/>
			<point x="252" y="-31" type="line"/>
			<point x="205" y="5.1" type="line"/>
			<point x="564" y="590" type="line"/>
			<point x="378" y="590" type="line"/>
			<point x="385" y="567"/>
			<point x="392" y="539"/>
			<point x="392" y="497.728" type="curve" smooth="yes"/>
			<point x="392" y="371"/>
			<point x="326" y="310"/>
			<point x="213" y="310" type="curve" smooth="yes"/>
			<point x="100" y="310"/>
			<point x="40" y="371"/>
		</contour>
		<contour>
			<point x="154" y="495.749" type="curve" smooth="yes"/>
			<point x="154" y="390"/>
			<point x="177" y="348"/>
			<point x="216" y="348" type="curve" smooth="yes"/>
			<point x="256" y="348"/>
			<point x="278" y="390"/>
			<point x="278" y="495.651" type="curve" smooth="yes"/>
			<point x="278" y="606"/>
			<point x="254" y="640"/>
			<point x="216" y="640" type="curve" smooth="yes"/>
			<point x="179" y="640"/>
			<point x="154" y="606"/>
		</contour>
		<contour>
			<point x="495" y="174.086" type="curve" smooth="yes"/>
			<point x="495" y="298.843"/>
			<point x="555" y="360"/>
			<point x="672" y="360" type="curve" smooth="yes"/>
			<point x="787" y="360"/>
			<point x="847" y="298.843"/>
			<point x="847" y="174.086" type="curve" smooth="yes"/>
			<point x="847" y="49.3286"/>
			<point x="787" y="-12"/>
			<point x="672" y="-12" type="curve" smooth="yes"/>
			<point x="555" y="-12"/>
			<point x="495" y="49.3286"/>
		</contour>
		<contour>
			<point x="609" y="174.086" type="curve" smooth="yes"/>
			<point x="609" y="68.6"/>
			<point x="631" y="26"/>
			<point x="672" y="26" type="curve" smooth="yes"/>
			<point x="711" y="26"/>
			<point x="733" y="68.6"/>
			<point x="733" y="174.086" type="curve" smooth="yes"/>
			<point x="733" y="287.686"/>
			<point x="708" y="322"/>
			<point x="672" y="322" type="curve" smooth="yes"/>
			<point x="634" y="322"/>
			<point x="609" y="287.686"/>
		</contour>
	</outline>
</glyph>
<glyph name="ampersand" format="2">
	<unicode hex="0026"/>
	<advance width="748"/>
	<outline>
		<contour>
			<point x="45" y="186" type="curve" smooth="yes"/>
			<point x="45" y="281"/>
			<point x="129" y="333"/>
			<point x="186" y="359" type="curve"/>
			<point x="155" y="400"/>
			<point x="129" y="451"/>
			<point x="129" y="508" type="curve" smooth="yes"/>
			<point x="129" y="605"/>
			<point x="203" y="680"/>
			<point x="317" y="680" type="curve" smooth="yes"/>
			<point x="417" y="680"/>
			<point x="492" y="622"/>
			<point x="492" y="531" type="curve" smooth="yes"/>
			<point x="492" y="446"/>
			<point x="424" y="404"/>
			<point x="358" y="373" type="curve"/>
			<point x="402" y="322"/>
			<point x="467" y="254"/>
			<point x="536" y="187" type="curve"/>
			<point x="563" y="221"/>
			<point x="574" y="274"/>
			<point x="574" y="318" type="curve" smooth="yes"/>
			<point x="574" y="350"/>
			<point x="568" y="389"/>
			<point x="560" y="416" type="curve"/>
			<point x="587" y="434"/>
			<point x="622" y="445"/>
			<point x="649" y="445" type="curve" smooth="yes"/>
			<point x="656" y="445"/>
			<point x="665" y="444"/>
			<point x="671" y="442" type="curve"/>
			<point x="695" y="419"/>
			<point x="702" y="387"/>
			<point x="702" y="363" type="curve" smooth="yes"/>
			<point x="702" y="285"/>
			<point x="629" y="194"/>
			<point x="580" y="150" type="curve"/>
			<point x="634" y="97"/>
			<point x="698" y="40"/>
			<point x="734" y="24" type="curve"/>
			<point x="730" y="-6.5" type="line"/>
			<point x="684" y="-6.5" type="line"/>
			<point x="602" y="-7"/>
			<point x="548" y="14"/>
			<point x="489" y="57" type="curve"/>
			<point x="428" y="13"/>
			<point x="360" y="-12"/>
			<point x="281" y="-12" type="curve" smooth="yes"/>
			<point x="151" y="-12"/>
			<point x="45" y="56"/>
		</contour>
		<contour>
			<point x="191" y="218" type="curve" smooth="yes"/>
			<point x="191" y="126"/>
			<point x="262" y="62"/>
			<point x="350" y="62" type="curve" smooth="yes"/>
			<point x="386" y="62"/>
			<point x="426" y="73"/>
			<point x="444" y="91" type="curve"/>
			<point x="351" y="166"/>
			<point x="267" y="257"/>
			<point x="223" y="310" type="curve"/>
			<point x="208" y="297"/>
			<point x="191" y="263"/>
		</contour>
		<contour>
			<point x="253" y="549" type="curve" smooth="yes"/>
			<point x="253" y="498"/>
			<point x="278" y="454"/>
			<point x="317" y="414" type="curve"/>
			<point x="348" y="438"/>
			<point x="373" y="482"/>
			<point x="373" y="539" type="curve" smooth="yes"/>
			<point x="373" y="600"/>
			<point x="344" y="634"/>
			<point x="313" y="634" type="curve" smooth="yes"/>
			<point x="280" y="634"/>
			<point x="253" y="600"/>
		</contour>
	</outline>
</glyph>
<glyph name="quotesingle" format="1">
  <advance width="252"/>
  <unicode hex="0027"/>
  <outline>
    <contour>
      <point x="60" y="630" type="line" smooth="yes"/>
      <point x="50" y="682"/>
      <point x="64" y="707"/>
      <point x="126" y="707" type="curve" smooth="yes"/>
      <point x="188" y="707"/>
      <point x="203" y="683"/>
      <point x="193" y="630" type="curve" smooth="yes"/>
      <point x="149" y="407" type="line"/>
      <point x="103" y="407" type="line"/>
    </contour>
  </outline>
</glyph>
<glyph name="asterisk" format="1">
  <advance width="442"/>
  <unicode hex="002A"/>
  <outline>
    <contour>
      <point x="51" y="408" type="curve" smooth="yes"/>
      <point x="33" y="435"/>
      <point x="39" y="463"/>
      <point x="69" y="473" type="curve" smooth="yes"/>
      <point x="167" y="503" type="line" smooth="yes"/>
      <point x="179" y="506"/>
      <point x="180" y="520"/>
      <point x="166" y="525" type="curve" smooth="yes"/>
      <point x="69" y="558" type="line" smooth="yes"/>
      <point x="39" y="568"/>
      <point x="30" y="590"/>
      <point x="52" y="622" type="curve" smooth="yes"/>
      <point x="68" y="646"/>
      <point x="90" y="651"/>
      <point x="110" y="633" type="curve" smooth="yes"/>
      <point x="180" y="568" type="line" smooth="yes"/>
      <point x="194" y="556"/>
      <point x="203" y="565"/>
      <point x="198" y="582" type="curve" smooth="yes"/>
      <point x="177" y="665" type="line" smooth="yes"/>
      <point x="170" y="692"/>
      <point x="189" y="707"/>
      <point x="221" y="707" type="curve" smooth="yes"/>
      <point x="253" y="707"/>
      <point x="272" y="692"/>
      <point x="265" y="665" type="curve" smooth="yes"/>
      <point x="244" y="582" type="line" smooth="yes"/>
      <point x="240" y="565"/>
      <point x="249" y="556"/>
      <point x="262" y="568" type="curve" smooth="yes"/>
      <point x="332" y="633" type="line" smooth="yes"/>
      <point x="353" y="651"/>
      <point x="374" y="646"/>
      <point x="390" y="622" type="curve" smooth="yes"/>
      <point x="412" y="590"/>
      <point x="404" y="568"/>
      <point x="373" y="558" type="curve" smooth="yes"/>
      <point x="277" y="525" type="line" smooth="yes"/>
      <point x="262" y="520"/>
      <point x="265" y="506"/>
      <point x="276" y="503" type="curve" smooth="yes"/>
      <point x="373" y="473" type="line" smooth="yes"/>
      <point x="404" y="463"/>
      <point x="409" y="435"/>
      <point x="391" y="408" type="curve" smooth="yes"/>
      <point x="370" y="376"/>
      <point x="348" y="374"/>
      <point x="324" y="399" type="curve" smooth="yes"/>
      <point x="262" y="462" type="line" smooth="yes"/>
      <point x="251" y="474"/>
      <point x="240" y="463"/>
      <point x="244" y="449" type="curve" smooth="yes"/>
      <point x="266" y="364" type="line" smooth="yes"/>
      <point x="273" y="337"/>
      <point x="260" y="315"/>
      <point x="221" y="315" type="curve" smooth="yes"/>
      <point x="182" y="315"/>
      <point x="169" y="337"/>
      <point x="176" y="364" type="curve" smooth="yes"/>
      <point x="199" y="449" type="line" smooth="yes"/>
      <point x="203" y="463"/>
      <point x="192" y="473"/>
      <point x="181" y="462" type="curve" smooth="yes"/>
      <point x="119" y="399" type="line" smooth="yes"/>
      <point x="95" y="374"/>
      <point x="72" y="376"/>
    </contour>
  </outline>
</glyph>
<glyph name="plus" format="1">
  <advance width="600"/>
  <unicode hex="002B"/>
  <outline>
    <contour>
      <point x="58" y="210" type="line"/>
      <point x="58" y="290" type="line"/>
      <point x="252" y="290" type="line"/>
      <point x="252" y="490" type="line"/>
      <point x="348" y="490" type="line"/>
      <point x="348" y="290" type="line"/>
      <point x="542" y="290" type="line"/>
      <point x="542" y="210" type="line"/>
      <point x="348" y="210" type="line"/>
      <point x="348" y="0" type="line"/>
      <point x="252" y="0" type="line"/>
      <point x="252" y="210" type="line"/>
    </contour>
  </outline>
</glyph>
<glyph name="period" format="2">
	<unicode hex="002E"/>
	<advance width="280"/>
	<outline>
		<contour>
			<point x="47" y="81" type="curve" smooth="yes"/>
			<point x="47" y="136"/>
			<point x="85" y="174"/>
			<point x="140" y="174" type="curve" smooth="yes"/>
			<point x="195" y="174"/>
			<point x="233" y="136"/>
			<point x="233" y="81" type="curve" smooth="yes"/>
			<point x="233" y="26"/>
			<point x="195" y="-12"/>
			<point x="140" y="-12" type="curve" smooth="yes"/>
			<point x="85" y="-12"/>
			<point x="47" y="26"/>
		</contour>
	</outline>
</glyph>
<glyph name="zero" format="2">
	<unicode hex="0030"/>
	<advance width="560"/>
	<outline>
		<contour>
			<point x="31" y="334" type="curve" smooth="yes"/>
			<point x="31" y="517"/>
			<point x="93" y="680"/>
			<point x="280" y="680" type="curve" smooth="yes"/>
			<point x="467" y="680"/>
			<point x="529" y="517"/>
			<point x="529" y="334" type="curve" smooth="yes"/>
			<point x="529" y="151"/>
			<point x="467" y="-12"/>
			<point x="280" y="-12" type="curve" smooth="yes"/>
			<point x="93" y="-12"/>
			<point x="31" y="151"/>
		</contour>
		<contour>
			<point x="189" y="334" type="curve" smooth="yes"/>
			<point x="189" y="220"/>
			<point x="198" y="34"/>
			<point x="280" y="34" type="curve" smooth="yes"/>
			<point x="362" y="34"/>
			<point x="371" y="220"/>
			<point x="371" y="334" type="curve" smooth="yes"/>
			<point x="371" y="448"/>
			<point x="362" y="634"/>
			<point x="280" y="634" type="curve" smooth="yes"/>
			<point x="198" y="634"/>
			<point x="189" y="448"/>
		</contour>
	</outline>
</glyph>
<glyph name="five" format="2">
	<unicode hex="0035"/>
	<advance width="560"/>
	<outline>
		<contour>
			<point x="43" y="124" type="curve" smooth="yes"/>
			<point x="43" y="163"/>
			<point x="87" y="192"/>
			<point x="121" y="192" type="curve" smooth="yes"/>
			<point x="147" y="192"/>
			<point x="161" y="176"/>
			<point x="168" y="154" type="curve" smooth="yes"/>
			<point x="197" y="66"/>
			<point x="227" y="34"/>
			<point x="271" y="34" type="curve" smooth="yes"/>
			<point x="333" y="34"/>
			<point x="360" y="99"/>
			<point x="360" y="191" type="curve" smooth="yes"/>
			<point x="360" y="316"/>
			<point x="311" y="366"/>
			<point x="239" y="366" type="curve" smooth="yes"/>
			<point x="194" y="366"/>
			<point x="154" y="346"/>
			<point x="115" y="298" type="curve"/>
			<point x="74" y="328" type="line"/>
			<point x="94" y="659" type="line"/>
			<point x="102" y="668" type="line"/>
			<point x="485" y="668" type="line"/>
			<point x="495" y="654" type="line"/>
			<point x="456" y="547" type="line"/>
			<point x="190" y="547" type="line" smooth="yes"/>
			<point x="163" y="547"/>
			<point x="160" y="542"/>
			<point x="155" y="508" type="curve" smooth="yes"/>
			<point x="134" y="376" type="line"/>
			<point x="136" y="374" type="line"/>
			<point x="175" y="401"/>
			<point x="229" y="431"/>
			<point x="297" y="431" type="curve" smooth="yes"/>
			<point x="476" y="431"/>
			<point x="519" y="305"/>
			<point x="519" y="210" type="curve" smooth="yes"/>
			<point x="519" y="93"/>
			<point x="454" y="-12"/>
			<point x="267" y="-12" type="curve" smooth="yes"/>
			<point x="90" y="-12"/>
			<point x="43" y="84"/>
		</contour>
	</outline>
</glyph>
<glyph name="six" format="1">
  <advance width="560"/>
  <unicode hex="0036"/>
  <outline>
    <contour>
      <point x="30" y="326" type="curve" smooth="yes"/>
      <point x="30" y="400"/>
      <point x="42" y="481"/>
      <point x="76" y="548" type="curve" smooth="yes"/>
      <point x="118" y="628"/>
      <point x="193" y="680"/>
      <point x="309" y="680" type="curve" smooth="yes"/>
      <point x="441" y="680"/>
      <point x="502" y="608"/>
      <point x="502" y="557" type="curve" smooth="yes"/>
      <point x="502" y="516"/>
      <point x="453" y="497"/>
      <point x="427" y="497" type="curve" smooth="yes"/>
      <point x="404" y="497"/>
      <point x="388" y="511"/>
      <point x="383" y="528" type="curve" smooth="yes"/>
      <point x="365" y="594"/>
      <point x="338" y="634"/>
      <point x="296" y="634" type="curve" smooth="yes"/>
      <point x="198" y="634"/>
      <point x="187" y="438"/>
      <point x="185" y="348" type="curve"/>
      <point x="187" y="348" type="line"/>
      <point x="226" y="394"/>
      <point x="274" y="430"/>
      <point x="340" y="430" type="curve" smooth="yes"/>
      <point x="444" y="430"/>
      <point x="537" y="361"/>
      <point x="537" y="220" type="curve" smooth="yes"/>
      <point x="537" y="100"/>
      <point x="465" y="-12"/>
      <point x="285" y="-12" type="curve" smooth="yes"/>
      <point x="97" y="-12"/>
      <point x="30" y="124"/>
    </contour>
    <contour>
      <point x="184" y="234" type="curve" smooth="yes"/>
      <point x="184" y="126"/>
      <point x="216" y="34"/>
      <point x="288" y="34" type="curve" smooth="yes"/>
      <point x="357" y="34"/>
      <point x="383" y="104"/>
      <point x="383" y="194" type="curve" smooth="yes"/>
      <point x="383" y="306"/>
      <point x="337" y="348"/>
      <point x="281" y="348" type="curve" smooth="yes"/>
      <point x="219" y="348"/>
      <point x="184" y="293"/>
    </contour>
  </outline>
</glyph>
<glyph name="eight" format="1">
  <advance width="560"/>
  <unicode hex="0038"/>
  <outline>
    <contour>
      <point x="27" y="189" type="curve" smooth="yes"/>
      <point x="27" y="279"/>
      <point x="79" y="337"/>
      <point x="159" y="362" type="curve"/>
      <point x="159" y="364" type="line"/>
      <point x="98" y="382"/>
      <point x="52" y="426"/>
      <point x="52" y="501" type="curve" smooth="yes"/>
      <point x="52" y="615"/>
      <point x="140" y="680"/>
      <point x="280" y="680" type="curve" smooth="yes"/>
      <point x="422" y="680"/>
      <point x="508" y="618"/>
      <point x="508" y="501" type="curve" smooth="yes"/>
      <point x="508" y="426"/>
      <point x="462" y="382"/>
      <point x="401" y="363" type="curve"/>
      <point x="401" y="361" type="line"/>
      <point x="482" y="337"/>
      <point x="533" y="279"/>
      <point x="533" y="189" type="curve" smooth="yes"/>
      <point x="533" y="39"/>
      <point x="413" y="-12"/>
      <point x="280" y="-12" type="curve" smooth="yes"/>
      <point x="148" y="-12"/>
      <point x="27" y="40"/>
    </contour>
    <contour>
      <point x="185" y="186" type="curve" smooth="yes"/>
      <point x="185" y="97"/>
      <point x="217" y="34"/>
      <point x="280" y="34" type="curve" smooth="yes"/>
      <point x="343" y="34"/>
      <point x="375" y="97"/>
      <point x="375" y="186" type="curve" smooth="yes"/>
      <point x="375" y="268"/>
      <point x="342" y="332"/>
      <point x="280" y="332" type="curve" smooth="yes"/>
      <point x="218" y="332"/>
      <point x="185" y="268"/>
    </contour>
    <contour>
      <point x="200" y="506" type="curve" smooth="yes"/>
      <point x="200" y="434"/>
      <point x="231" y="380"/>
      <point x="280" y="380" type="curve" smooth="yes"/>
      <point x="332" y="380"/>
      <point x="360" y="434"/>
      <point x="360" y="506" type="curve" smooth="yes"/>
      <point x="360" y="579"/>
      <point x="333" y="634"/>
      <point x="280" y="634" type="curve" smooth="yes"/>
      <point x="230" y="634"/>
      <point x="200" y="579"/>
    </contour>
  </outline>
</glyph>
<glyph name="nine" format="1">
  <advance width="560"/>
  <unicode hex="0039"/>
  <outline>
    <contour>
      <point x="34" y="454" type="curve" smooth="yes"/>
      <point x="34" y="580"/>
      <point x="119" y="680"/>
      <point x="272" y="680" type="curve" smooth="yes"/>
      <point x="368" y="680"/>
      <point x="430" y="647"/>
      <point x="469" y="591" type="curve" smooth="yes"/>
      <point x="507" y="535"/>
      <point x="523" y="454"/>
      <point x="523" y="352" type="curve" smooth="yes"/>
      <point x="523" y="209"/>
      <point x="493" y="113"/>
      <point x="444" y="59" type="curve" smooth="yes"/>
      <point x="398" y="8"/>
      <point x="331" y="-12"/>
      <point x="252" y="-12" type="curve" smooth="yes"/>
      <point x="102" y="-12"/>
      <point x="50" y="70"/>
      <point x="50" y="107" type="curve" smooth="yes"/>
      <point x="50" y="149"/>
      <point x="95" y="176"/>
      <point x="124" y="176" type="curve" smooth="yes"/>
      <point x="148" y="176"/>
      <point x="163" y="165"/>
      <point x="170" y="144" type="curve" smooth="yes"/>
      <point x="199" y="58"/>
      <point x="225" y="36"/>
      <point x="262" y="36" type="curve" smooth="yes"/>
      <point x="314" y="36"/>
      <point x="364" y="79"/>
      <point x="369" y="317" type="curve"/>
      <point x="367" y="317" type="line"/>
      <point x="338" y="287"/>
      <point x="292" y="255"/>
      <point x="236" y="255" type="curve" smooth="yes"/>
      <point x="129" y="255"/>
      <point x="34" y="319"/>
    </contour>
    <contour>
      <point x="188" y="478" type="curve" smooth="yes"/>
      <point x="188" y="393"/>
      <point x="225" y="331"/>
      <point x="290" y="331" type="curve" smooth="yes"/>
      <point x="322" y="331"/>
      <point x="347" y="351"/>
      <point x="358" y="369" type="curve" smooth="yes"/>
      <point x="368" y="385"/>
      <point x="370" y="405"/>
      <point x="370" y="433" type="curve" smooth="yes"/>
      <point x="370" y="551"/>
      <point x="338" y="634"/>
      <point x="279" y="634" type="curve" smooth="yes"/>
      <point x="221" y="634"/>
      <point x="188" y="573"/>
    </contour>
  </outline>
</glyph>
<glyph name="equal" format="2">
	<unicode hex="003D"/>
	<advance width="600"/>
	<outline>
		<contour>
			<point x="58" y="103" type="line"/>
			<point x="58" y="183" type="line"/>
			<point x="542" y="183" type="line"/>
			<point x="542" y="103" type="line"/>
		</contour>
		<contour>
			<point x="58" y="317" type="line"/>
			<point x="58" y="397" type="line"/>
			<point x="542" y="397" type="line"/>
			<point x="542" y="317" type="line"/>
		</contour>
	</outline>
</glyph>
<glyph name="question" format="1">
  <advance width="456"/>
  <unicode hex="003F"/>
  <outline>
    <contour>
      <point x="20" y="582" type="curve" smooth="yes"/>
      <point x="20" y="632"/>
      <point x="88" y="707"/>
      <point x="229" y="707" type="curve" smooth="yes"/>
      <point x="346" y="707"/>
      <point x="433" y="659"/>
      <point x="433" y="559" type="curve" smooth="yes"/>
      <point x="433" y="488"/>
      <point x="370" y="457"/>
      <point x="328" y="435" type="curve" smooth="yes"/>
      <point x="278" y="409"/>
      <point x="254" y="377"/>
      <point x="254" y="347" type="curve" smooth="yes"/>
      <point x="254" y="317"/>
      <point x="278" y="294"/>
      <point x="317" y="294" type="curve" smooth="yes"/>
      <point x="338" y="294"/>
      <point x="353" y="297"/>
      <point x="364" y="300" type="curve"/>
      <point x="375" y="273" type="line"/>
      <point x="335" y="246"/>
      <point x="281" y="224"/>
      <point x="224" y="224" type="curve" smooth="yes"/>
      <point x="152" y="224"/>
      <point x="86" y="258"/>
      <point x="86" y="330" type="curve" smooth="yes"/>
      <point x="86" y="359"/>
      <point x="101" y="394"/>
      <point x="172" y="437" type="curve" smooth="yes"/>
      <point x="237" y="477"/>
      <point x="266" y="529"/>
      <point x="266" y="584" type="curve" smooth="yes"/>
      <point x="266" y="629"/>
      <point x="251" y="661"/>
      <point x="225" y="661" type="curve" smooth="yes"/>
      <point x="199" y="661"/>
      <point x="179" y="634"/>
      <point x="159" y="551" type="curve" smooth="yes"/>
      <point x="153" y="526"/>
      <point x="137" y="514"/>
      <point x="105" y="514" type="curve" smooth="yes"/>
      <point x="72" y="514"/>
      <point x="20" y="537"/>
    </contour>
    <contour>
      <point x="131" y="81" type="curve" smooth="yes"/>
      <point x="131" y="136"/>
      <point x="169" y="174"/>
      <point x="224" y="174" type="curve" smooth="yes"/>
      <point x="279" y="174"/>
      <point x="317" y="136"/>
      <point x="317" y="81" type="curve" smooth="yes"/>
      <point x="317" y="26"/>
      <point x="279" y="-12"/>
      <point x="224" y="-12" type="curve" smooth="yes"/>
      <point x="169" y="-12"/>
      <point x="131" y="26"/>
    </contour>
  </outline>
</glyph>
<glyph name="at" format="1">
  <advance width="833"/>
  <unicode hex="0040"/>
  <outline>
    <contour>
      <point x="45" y="307" type="curve" smooth="yes"/>
      <point x="45" y="557"/>
      <point x="248" y="707"/>
      <point x="472" y="707" type="curve" smooth="yes"/>
      <point x="673" y="707"/>
      <point x="797" y="574"/>
      <point x="797" y="414" type="curve" smooth="yes"/>
      <point x="797" y="302"/>
      <point x="723" y="161"/>
      <point x="564" y="161" type="curve" smooth="yes"/>
      <point x="478" y="161"/>
      <point x="468" y="211"/>
      <point x="479" y="255" type="curve" smooth="yes"/>
      <point x="491" y="309" type="line"/>
      <point x="488" y="311" type="line"/>
      <point x="442" y="214"/>
      <point x="384" y="161"/>
      <point x="304" y="161" type="curve" smooth="yes"/>
      <point x="252" y="161"/>
      <point x="224" y="199"/>
      <point x="224" y="251" type="curve" smooth="yes"/>
      <point x="224" y="327"/>
      <point x="290" y="544"/>
      <point x="491" y="544" type="curve" smooth="yes"/>
      <point x="509" y="544"/>
      <point x="526" y="540"/>
      <point x="538" y="534" type="curve"/>
      <point x="541" y="540" type="line"/>
      <point x="651" y="540" type="line"/>
      <point x="625" y="446"/>
      <point x="600" y="353"/>
      <point x="579" y="259" type="curve" smooth="yes"/>
      <point x="574" y="237"/>
      <point x="575" y="213"/>
      <point x="610" y="213" type="curve" smooth="yes"/>
      <point x="681" y="213"/>
      <point x="722" y="342"/>
      <point x="722" y="409" type="curve" smooth="yes"/>
      <point x="722" y="566"/>
      <point x="605" y="647"/>
      <point x="464" y="647" type="curve" smooth="yes"/>
      <point x="289" y="647"/>
      <point x="154" y="487"/>
      <point x="154" y="307" type="curve" smooth="yes"/>
      <point x="154" y="198"/>
      <point x="217" y="39"/>
      <point x="430" y="39" type="curve" smooth="yes"/>
      <point x="499" y="39"/>
      <point x="565" y="54"/>
      <point x="612" y="74" type="curve"/>
      <point x="623" y="39" type="line"/>
      <point x="570" y="1"/>
      <point x="474" y="-15"/>
      <point x="415" y="-15" type="curve" smooth="yes"/>
      <point x="215" y="-15"/>
      <point x="45" y="87"/>
    </contour>
    <contour>
      <point x="346" y="253" type="curve" smooth="yes"/>
      <point x="346" y="224"/>
      <point x="355" y="213"/>
      <point x="369" y="213" type="curve" smooth="yes"/>
      <point x="407" y="213"/>
      <point x="471" y="336"/>
      <point x="492" y="400" type="curve" smooth="yes"/>
      <point x="528" y="498" type="line"/>
      <point x="520" y="504"/>
      <point x="509" y="506"/>
      <point x="499" y="506" type="curve" smooth="yes"/>
      <point x="413" y="506"/>
      <point x="346" y="318"/>
    </contour>
  </outline>
</glyph>
<glyph name="B" format="2">
	<unicode hex="0042"/>
	<advance width="683"/>
	<outline>
		<contour>
			<point x="33" y="0" type="line"/>
			<point x="33" y="38" type="line"/>
			<point x="104" y="41"/>
			<point x="112" y="46"/>
			<point x="112" y="97" type="curve" smooth="yes"/>
			<point x="112" y="595" type="line" smooth="yes"/>
			<point x="112" y="646"/>
			<point x="104" y="651"/>
			<point x="33" y="654" type="curve"/>
			<point x="33" y="692" type="line"/>
			<point x="363" y="692" type="line" smooth="yes"/>
			<point x="521" y="692"/>
			<point x="618" y="648"/>
			<point x="618" y="529.254" type="curve" smooth="yes"/>
			<point x="618" y="444"/>
			<point x="568" y="392"/>
			<point x="470" y="371" type="curve"/>
			<point x="470" y="369" type="line"/>
			<point x="563" y="355"/>
			<point x="645" y="300"/>
			<point x="645" y="182.291" type="curve" smooth="yes"/>
			<point x="645" y="24.3961"/>
			<point x="497.453" y="0"/>
			<point x="363" y="0" type="curve" smooth="yes"/>
		</contour>
		<contour>
			<point x="272" y="111" type="line" smooth="yes"/>
			<point x="272" y="62"/>
			<point x="294" y="46"/>
			<point x="342.406" y="46" type="curve" smooth="yes"/>
			<point x="414" y="46"/>
			<point x="470" y="81"/>
			<point x="470" y="180.68" type="curve" smooth="yes"/>
			<point x="470" y="272"/>
			<point x="423" y="343"/>
			<point x="323" y="343" type="curve" smooth="yes"/>
			<point x="272" y="343" type="line"/>
		</contour>
		<contour>
			<point x="272" y="389" type="line"/>
			<point x="321" y="389" type="line" smooth="yes"/>
			<point x="417" y="389"/>
			<point x="456" y="444"/>
			<point x="456" y="519.991" type="curve" smooth="yes"/>
			<point x="456" y="593"/>
			<point x="420" y="646"/>
			<point x="330" y="646" type="curve" smooth="yes"/>
			<point x="290" y="646"/>
			<point x="272" y="643"/>
			<point x="272" y="609" type="curve" smooth="yes"/>
		</contour>
	</outline>
</glyph>
<glyph name="D" format="1">
  <advance width="777"/>
  <unicode hex="0044"/>
  <outline>
    <contour>
      <point x="33" y="0" type="line"/>
      <point x="33" y="38" type="line"/>
      <point x="104" y="41"/>
      <point x="112" y="46"/>
      <point x="112" y="97" type="curve" smooth="yes"/>
      <point x="112" y="595" type="line" smooth="yes"/>
      <point x="112" y="646"/>
      <point x="104" y="651"/>
      <point x="33" y="654" type="curve"/>
      <point x="33" y="692" type="line"/>
      <point x="376" y="692" type="line" smooth="yes"/>
      <point x="506" y="691"/>
      <point x="590" y="663"/>
      <point x="648" y="606" type="curve" smooth="yes"/>
      <point x="706" y="549"/>
      <point x="735" y="465"/>
      <point x="735" y="353" type="curve" smooth="yes"/>
      <point x="735" y="21"/>
      <point x="488" y="0"/>
      <point x="332" y="0" type="curve" smooth="yes"/>
    </contour>
    <contour>
      <point x="272" y="90" type="line" smooth="yes"/>
      <point x="272" y="58"/>
      <point x="289" y="46"/>
      <point x="352" y="46" type="curve" smooth="yes"/>
      <point x="450" y="46"/>
      <point x="558" y="89"/>
      <point x="558" y="353" type="curve" smooth="yes"/>
      <point x="558" y="546"/>
      <point x="489" y="646"/>
      <point x="355" y="646" type="curve" smooth="yes"/>
      <point x="292" y="646"/>
      <point x="272" y="641"/>
      <point x="272" y="618" type="curve" smooth="yes"/>
    </contour>
  </outline>
</glyph>
<glyph name="I" format="1">
  <advance width="384"/>
  <unicode hex="0049"/>
  <outline>
    <contour>
      <point x="33" y="0" type="line"/>
      <point x="33" y="38" type="line"/>
      <point x="104" y="41"/>
      <point x="112" y="46"/>
      <point x="112" y="97" type="curve" smooth="yes"/>
      <point x="112" y="595" type="line" smooth="yes"/>
      <point x="112" y="646"/>
      <point x="104" y="651"/>
      <point x="33" y="654" type="curve"/>
      <point x="33" y="692" type="line"/>
      <point x="351" y="692" type="line"/>
      <point x="351" y="654" type="line"/>
      <point x="280" y="651"/>
      <point x="272" y="646"/>
      <point x="272" y="595" type="curve" smooth="yes"/>
      <point x="272" y="97" type="line" smooth="yes"/>
      <point x="272" y="46"/>
      <point x="280" y="41"/>
      <point x="351" y="38" type="curve"/>
      <point x="351" y="0" type="line"/>
    </contour>
  </outline>
</glyph>
<glyph name="Q" format="1">
  <advance width="768"/>
  <unicode hex="0051"/>
  <outline>
    <contour>
      <point x="42" y="346" type="curve" smooth="yes"/>
      <point x="42" y="572"/>
      <point x="154" y="707"/>
      <point x="384" y="707" type="curve" smooth="yes"/>
      <point x="614" y="707"/>
      <point x="726" y="572"/>
      <point x="726" y="346" type="curve" smooth="yes"/>
      <point x="726" y="161"/>
      <point x="650" y="37"/>
      <point x="499" y="-2" type="curve"/>
      <point x="513" y="-28"/>
      <point x="535" y="-54"/>
      <point x="559" y="-79" type="curve" smooth="yes"/>
      <point x="606" y="-128"/>
      <point x="655" y="-147"/>
      <point x="681" y="-147" type="curve" smooth="yes"/>
      <point x="692" y="-147" type="line"/>
      <point x="698" y="-171" type="line"/>
      <point x="674" y="-185"/>
      <point x="635" y="-193"/>
      <point x="594" y="-193" type="curve" smooth="yes"/>
      <point x="444" y="-193"/>
      <point x="352" y="-83"/>
      <point x="324" y="-11" type="curve"/>
      <point x="136" y="10"/>
      <point x="42" y="140"/>
    </contour>
    <contour>
      <point x="219" y="346" type="curve" smooth="yes"/>
      <point x="221" y="210"/>
      <point x="239" y="31"/>
      <point x="384" y="31" type="curve" smooth="yes"/>
      <point x="529" y="31"/>
      <point x="547" y="210"/>
      <point x="549" y="346" type="curve" smooth="yes"/>
      <point x="547" y="474"/>
      <point x="529" y="661"/>
      <point x="384" y="661" type="curve" smooth="yes"/>
      <point x="239" y="661"/>
      <point x="221" y="474"/>
    </contour>
  </outline>
</glyph>
<glyph name="U" format="2">
	<unicode hex="0055"/>
	<advance width="786"/>
	<outline>
		<contour>
			<point x="29" y="654" type="curve"/>
			<point x="29" y="692" type="line"/>
			<point x="341" y="692" type="line"/>
			<point x="341" y="654" type="line"/>
			<point x="273" y="651"/>
			<point x="265" y="646"/>
			<point x="265" y="595" type="curve" smooth="yes"/>
			<point x="265" y="211" type="line" smooth="yes"/>
			<point x="265" y="97"/>
			<point x="303" y="31"/>
			<point x="393" y="31" type="curve" smooth="yes"/>
			<point x="485" y="31"/>
			<point x="521" y="97"/>
			<point x="521" y="211" type="curve" smooth="yes"/>
			<point x="521" y="595" type="line" smooth="yes"/>
			<point x="521" y="646"/>
			<point x="513" y="651"/>
			<point x="445" y="654" type="curve"/>
			<point x="445" y="692" type="line"/>
			<point x="757" y="692" type="line"/>
			<point x="757" y="654" type="line"/>
			<point x="689" y="651"/>
			<point x="681" y="646"/>
			<point x="681" y="595" type="curve" smooth="yes"/>
			<point x="681" y="225" type="line" smooth="yes"/>
			<point x="681" y="52"/>
			<point x="578" y="-15"/>
			<point x="386" y="-15" type="curve" smooth="yes"/>
			<point x="193" y="-15"/>
			<point x="105" y="52"/>
			<point x="105" y="225" type="curve" smooth="yes"/>
			<point x="105" y="595" type="line" smooth="yes"/>
			<point x="105" y="646"/>
			<point x="97" y="651"/>
		</contour>
	</outline>
	<anchor name="ogonek" x="423" y="0"/>
</glyph>
<glyph name="grave" format="1">
  <advance width="430"/>
  <unicode hex="0060"/>
  <outline>
    <contour>
      <point x="40" y="680" type="curve" smooth="yes"/>
      <point x="40" y="705"/>
      <point x="69" y="740"/>
      <point x="93" y="740" type="curve" smooth="yes"/>
      <point x="113" y="740"/>
      <point x="130" y="728"/>
      <point x="167" y="690" type="curve" smooth="yes"/>
      <point x="312" y="541" type="line"/>
      <point x="291" y="511" type="line"/>
      <point x="108" y="614" type="line" smooth="yes"/>
      <point x="72" y="634"/>
      <point x="40" y="654"/>
    </contour>
  </outline>
</glyph>
<glyph name="m" format="2">
	<unicode hex="006D"/>
	<advance width="948"/>
	<outline>
		<contour>
			<point x="26" y="0" type="line"/>
			<point x="26" y="38" type="line"/>
			<point x="83" y="41"/>
			<point x="91" y="45"/>
			<point x="91" y="87" type="curve" smooth="yes"/>
			<point x="91" y="381" type="line" smooth="yes"/>
			<point x="91" y="421"/>
			<point x="83" y="430"/>
			<point x="67" y="432" type="curve" smooth="yes"/>
			<point x="32" y="437" type="line"/>
			<point x="32" y="473" type="line"/>
			<point x="229" y="502" type="line"/>
			<point x="242" y="433" type="line"/>
			<point x="296" y="470"/>
			<point x="343" y="502"/>
			<point x="410" y="502" type="curve" smooth="yes"/>
			<point x="483" y="502"/>
			<point x="524" y="463"/>
			<point x="544" y="427" type="curve"/>
			<point x="587" y="458"/>
			<point x="649" y="502"/>
			<point x="718" y="502" type="curve" smooth="yes"/>
			<point x="824" y="502"/>
			<point x="874" y="440"/>
			<point x="874" y="347" type="curve" smooth="yes"/>
			<point x="874" y="87" type="line" smooth="yes"/>
			<point x="874" y="45"/>
			<point x="882" y="41"/>
			<point x="939" y="38" type="curve"/>
			<point x="939" y="0" type="line"/>
			<point x="670" y="0" type="line"/>
			<point x="670" y="38" type="line"/>
			<point x="704" y="41"/>
			<point x="723" y="44"/>
			<point x="723" y="80" type="curve" smooth="yes"/>
			<point x="723" y="329" type="line" smooth="yes"/>
			<point x="723" y="384"/>
			<point x="697" y="425"/>
			<point x="646" y="425" type="curve" smooth="yes"/>
			<point x="603" y="425"/>
			<point x="558" y="397"/>
			<point x="558" y="310" type="curve" smooth="yes"/>
			<point x="558" y="80" type="line" smooth="yes"/>
			<point x="558" y="44"/>
			<point x="577" y="41"/>
			<point x="611" y="38" type="curve"/>
			<point x="611" y="0" type="line"/>
			<point x="354" y="0" type="line"/>
			<point x="354" y="38" type="line"/>
			<point x="388" y="41"/>
			<point x="407" y="44"/>
			<point x="407" y="80" type="curve" smooth="yes"/>
			<point x="407" y="329" type="line" smooth="yes"/>
			<point x="407" y="384"/>
			<point x="384" y="425"/>
			<point x="333" y="425" type="curve" smooth="yes"/>
			<point x="290" y="425"/>
			<point x="242" y="397"/>
			<point x="242" y="310" type="curve" smooth="yes"/>
			<point x="242" y="80" type="line" smooth="yes"/>
			<point x="242" y="44"/>
			<point x="261" y="41"/>
			<point x="295" y="38" type="curve"/>
			<point x="295" y="0" type="line"/>
		</contour>
	</outline>
</glyph>
<glyph name="r" format="2">
	<unicode hex="0072"/>
	<advance width="440"/>
	<outline>
		<contour>
			<point x="26" y="0" type="line"/>
			<point x="26" y="38" type="line"/>
			<point x="83" y="41"/>
			<point x="91" y="45"/>
			<point x="91" y="87" type="curve" smooth="yes"/>
			<point x="91" y="381" type="line" smooth="yes"/>
			<point x="91" y="421"/>
			<point x="83" y="430"/>
			<point x="67" y="432" type="curve" smooth="yes"/>
			<point x="32" y="437" type="line"/>
			<point x="32" y="473" type="line"/>
			<point x="227" y="502" type="line"/>
			<point x="239" y="414" type="line"/>
			<point x="297" y="475"/>
			<point x="330" y="502"/>
			<point x="372" y="502" type="curve" smooth="yes"/>
			<point x="414" y="502"/>
			<point x="442" y="475"/>
			<point x="442" y="430" type="curve" smooth="yes"/>
			<point x="442" y="391"/>
			<point x="421" y="349"/>
			<point x="375" y="349" type="curve" smooth="yes"/>
			<point x="356" y="349"/>
			<point x="342" y="357"/>
			<point x="329" y="365" type="curve" smooth="yes"/>
			<point x="307" y="378"/>
			<point x="292" y="386"/>
			<point x="277" y="386" type="curve" smooth="yes"/>
			<point x="252" y="386"/>
			<point x="242" y="363"/>
			<point x="242" y="311" type="curve" smooth="yes"/>
			<point x="242" y="87" type="line" smooth="yes"/>
			<point x="242" y="45"/>
			<point x="251" y="42"/>
			<point x="328" y="38" type="curve"/>
			<point x="328" y="0" type="line"/>
		</contour>
	</outline>
</glyph>
<glyph name="s" format="2">
	<unicode hex="0073"/>
	<advance width="446"/>
	<outline>
		<contour>
			<point x="38" y="185" type="line"/>
			<point x="76" y="185" type="line"/>
			<point x="102" y="103"/>
			<point x="155" y="34"/>
			<point x="225" y="34" type="curve" smooth="yes"/>
			<point x="265" y="34"/>
			<point x="290" y="57"/>
			<point x="290" y="93" type="curve" smooth="yes"/>
			<point x="290" y="143"/>
			<point x="241" y="173"/>
			<point x="186" y="192" type="curve" smooth="yes"/>
			<point x="101" y="221"/>
			<point x="43" y="271"/>
			<point x="43" y="353" type="curve" smooth="yes"/>
			<point x="43" y="445"/>
			<point x="119" y="502"/>
			<point x="241" y="502" type="curve" smooth="yes"/>
			<point x="293" y="502"/>
			<point x="350" y="492"/>
			<point x="391" y="467" type="curve"/>
			<point x="391" y="334" type="line"/>
			<point x="354" y="334" type="line"/>
			<point x="335" y="410"/>
			<point x="292" y="456"/>
			<point x="240" y="456" type="curve" smooth="yes"/>
			<point x="200" y="456"/>
			<point x="178" y="429"/>
			<point x="178" y="399" type="curve" smooth="yes"/>
			<point x="178" y="358"/>
			<point x="221" y="334"/>
			<point x="278" y="313" type="curve" smooth="yes"/>
			<point x="371" y="279"/>
			<point x="425" y="237"/>
			<point x="425" y="151" type="curve" smooth="yes"/>
			<point x="425" y="43"/>
			<point x="341" y="-12"/>
			<point x="221" y="-12" type="curve" smooth="yes"/>
			<point x="163" y="-12"/>
			<point x="88" y="1"/>
			<point x="50" y="36" type="curve"/>
		</contour>
	</outline>
	<anchor name="cedilla" x="230" y="0"/>
</glyph>
<glyph name="t" format="2">
	<unicode hex="0074"/>
	<advance width="370"/>
	<outline>
		<contour>
			<point x="32" y="440" type="line"/>
			<point x="32" y="490" type="line"/>
			<point x="95" y="490" type="line"/>
			<point x="183" y="616" type="line"/>
			<point x="241" y="616" type="line"/>
			<point x="241" y="490" type="line"/>
			<point x="345" y="490" type="line"/>
			<point x="345" y="440" type="line"/>
			<point x="241" y="440" type="line"/>
			<point x="241" y="155" type="line" smooth="yes"/>
			<point x="241" y="91"/>
			<point x="267" y="63"/>
			<point x="305" y="63" type="curve" smooth="yes"/>
			<point x="327" y="63"/>
			<point x="348" y="67"/>
			<point x="362" y="73" type="curve"/>
			<point x="373" y="42" type="line"/>
			<point x="317" y="7"/>
			<point x="255" y="-12"/>
			<point x="214" y="-12" type="curve" smooth="yes"/>
			<point x="158" y="-12"/>
			<point x="90" y="26"/>
			<point x="90" y="117" type="curve" smooth="yes"/>
			<point x="90" y="440" type="line"/>
		</contour>
	</outline>
	<anchor name="top" x="183" y="690"/>
</glyph>
<glyph name="braceleft" format="1">
  <advance width="365"/>
  <unicode hex="007B"/>
  <outline>
    <contour>
      <point x="74" y="265" type="curve"/>
      <point x="74" y="299" type="line"/>
      <point x="173" y="299"/>
      <point x="168" y="340"/>
      <point x="160" y="411" type="curve" smooth="yes"/>
      <point x="150" y="505" type="line" smooth="yes"/>
      <point x="141" y="588"/>
      <point x="142" y="692"/>
      <point x="284" y="692" type="curve" smooth="yes"/>
      <point x="325" y="692" type="line"/>
      <point x="325" y="658" type="line"/>
      <point x="244" y="654"/>
      <point x="240" y="607"/>
      <point x="247" y="539" type="curve" smooth="yes"/>
      <point x="255" y="462" type="line" smooth="yes"/>
      <point x="263" y="382"/>
      <point x="282" y="309"/>
      <point x="164" y="285" type="curve"/>
      <point x="164" y="279" type="line"/>
      <point x="282" y="255"/>
      <point x="263" y="182"/>
      <point x="255" y="102" type="curve" smooth="yes"/>
      <point x="247" y="25" type="line" smooth="yes"/>
      <point x="240" y="-43"/>
      <point x="244" y="-90"/>
      <point x="325" y="-94" type="curve"/>
      <point x="325" y="-128" type="line"/>
      <point x="284" y="-128" type="line" smooth="yes"/>
      <point x="142" y="-128"/>
      <point x="141" y="-24"/>
      <point x="150" y="59" type="curve" smooth="yes"/>
      <point x="160" y="153" type="line" smooth="yes"/>
      <point x="168" y="224"/>
      <point x="151" y="265"/>
    </contour>
  </outline>
</glyph>
<glyph name="sterling" format="1">
  <advance width="560"/>
  <unicode hex="00A3"/>
  <outline>
    <contour>
      <point x="21" y="9" type="line"/>
      <point x="43" y="72" type="line"/>
      <point x="133" y="102"/>
      <point x="189" y="137"/>
      <point x="189" y="196" type="curve" smooth="yes"/>
      <point x="189" y="225"/>
      <point x="178" y="258"/>
      <point x="159" y="290" type="curve"/>
      <point x="38" y="290" type="line"/>
      <point x="38" y="338" type="line"/>
      <point x="132" y="338" type="line"/>
      <point x="122" y="357"/>
      <point x="83" y="424"/>
      <point x="83" y="485" type="curve" smooth="yes"/>
      <point x="83" y="587"/>
      <point x="146" y="679"/>
      <point x="301" y="679" type="curve" smooth="yes"/>
      <point x="450" y="679"/>
      <point x="497" y="600"/>
      <point x="497" y="560" type="curve" smooth="yes"/>
      <point x="497" y="521"/>
      <point x="449" y="499"/>
      <point x="419" y="499" type="curve" smooth="yes"/>
      <point x="396" y="499"/>
      <point x="385" y="512"/>
      <point x="377" y="530" type="curve" smooth="yes"/>
      <point x="347" y="593"/>
      <point x="324" y="633"/>
      <point x="288" y="633" type="curve" smooth="yes"/>
      <point x="252" y="633"/>
      <point x="222" y="596"/>
      <point x="222" y="546" type="curve" smooth="yes"/>
      <point x="222" y="518"/>
      <point x="230" y="486"/>
      <point x="253" y="438" type="curve" smooth="yes"/>
      <point x="270" y="402"/>
      <point x="290" y="368"/>
      <point x="304" y="338" type="curve"/>
      <point x="448" y="338" type="line"/>
      <point x="448" y="290" type="line"/>
      <point x="318" y="290" type="line"/>
      <point x="320" y="277"/>
      <point x="322" y="264"/>
      <point x="322" y="249" type="curve" smooth="yes"/>
      <point x="323" y="203"/>
      <point x="295" y="152"/>
      <point x="237" y="118" type="curve"/>
      <point x="237" y="116" type="line"/>
      <point x="426" y="116" type="line" smooth="yes"/>
      <point x="460" y="116"/>
      <point x="479" y="127"/>
      <point x="496" y="149" type="curve" smooth="yes"/>
      <point x="520" y="180" type="line"/>
      <point x="555" y="167" type="line"/>
      <point x="499" y="0" type="line"/>
      <point x="30" y="0" type="line"/>
    </contour>
  </outline>
</glyph>
<glyph name="brokenbar" format="2">
	<unicode hex="00A6"/>
	<advance width="284"/>
	<outline>
		<contour>
			<point x="94" y="-175" type="line"/>
			<point x="94" y="175" type="line"/>
			<point x="190" y="175" type="line"/>
			<point x="190" y="-175" type="line"/>
		</contour>
		<contour>
			<point x="94" y="325" type="line"/>
			<point x="94" y="675" type="line"/>
			<point x="190" y="675" type="line"/>
			<point x="190" y="325" type="line"/>
		</contour>
	</outline>
</glyph>
<glyph name="section" format="2">
	<unicode hex="00A7"/>
	<advance width="566"/>
	<outline>
		<contour>
			<point x="35" y="360.601" type="curve" smooth="yes"/>
			<point x="35" y="438"/>
			<point x="71" y="510"/>
			<point x="129" y="553" type="curve"/>
			<point x="129" y="617"/>
			<point x="172" y="707"/>
			<point x="299.289" y="707" type="curve" smooth="yes"/>
			<point x="382" y="707"/>
			<point x="455" y="669"/>
			<point x="455" y="622" type="curve" smooth="yes"/>
			<point x="455" y="589"/>
			<point x="417" y="566"/>
			<point x="390.397" y="566" type="curve" smooth="yes"/>
			<point x="372" y="566"/>
			<point x="363" y="577"/>
			<point x="350.275" y="596.693" type="curve" smooth="yes"/>
			<point x="321" y="642"/>
			<point x="300" y="659"/>
			<point x="272.58" y="659" type="curve" smooth="yes"/>
			<point x="240" y="659"/>
			<point x="220" y="635"/>
			<point x="220" y="601.402" type="curve" smooth="yes"/>
			<point x="220" y="583"/>
			<point x="226" y="546"/>
			<point x="328" y="492" type="curve" smooth="yes"/>
			<point x="476" y="414"/>
			<point x="531" y="358"/>
			<point x="531" y="240" type="curve" smooth="yes"/>
			<point x="531" y="174"/>
			<point x="498" y="108"/>
			<point x="455" y="53" type="curve"/>
			<point x="455" y="-43"/>
			<point x="396" y="-115"/>
			<point x="270" y="-115" type="curve" smooth="yes"/>
			<point x="171" y="-115"/>
			<point x="101.424" y="-68.9926"/>
			<point x="101.424" y="-14.3031" type="curve" smooth="yes"/>
			<point x="101.424" y="26.006"/>
			<point x="138" y="45"/>
			<point x="168.492" y="45" type="curve" smooth="yes"/>
			<point x="187" y="45"/>
			<point x="199" y="38"/>
			<point x="211" y="14" type="curve" smooth="yes"/>
			<point x="244" y="-53"/>
			<point x="275" y="-67"/>
			<point x="301.328" y="-67" type="curve" smooth="yes"/>
			<point x="332" y="-67"/>
			<point x="359" y="-48"/>
			<point x="359" y="-8.97" type="curve" smooth="yes"/>
			<point x="359" y="22"/>
			<point x="342" y="69"/>
			<point x="216.441" y="134.859" type="curve" smooth="yes"/>
			<point x="77" y="208"/>
			<point x="35" y="277"/>
		</contour>
		<contour>
			<point x="100" y="419.827" type="curve" smooth="yes"/>
			<point x="100" y="369"/>
			<point x="143" y="321"/>
			<point x="259.542" y="258.38" type="curve" smooth="yes"/>
			<point x="344" y="213"/>
			<point x="409" y="165"/>
			<point x="436" y="115" type="curve"/>
			<point x="449" y="128"/>
			<point x="466" y="150"/>
			<point x="466" y="184.26" type="curve" smooth="yes"/>
			<point x="466" y="240"/>
			<point x="421" y="296"/>
			<point x="316" y="353" type="curve" smooth="yes"/>
			<point x="241" y="394"/>
			<point x="172" y="435"/>
			<point x="143" y="496" type="curve"/>
			<point x="123" y="486"/>
			<point x="100" y="457"/>
		</contour>
	</outline>
</glyph>
<glyph name="ordfeminine" format="1">
  <advance width="405"/>
  <unicode hex="00AA"/>
  <outline>
    <contour>
      <point x="28" y="358" type="curve" smooth="yes"/>
      <point x="28" y="392"/>
      <point x="49" y="418"/>
      <point x="97" y="434" type="curve" smooth="yes"/>
      <point x="142" y="449"/>
      <point x="181" y="462"/>
      <point x="227" y="476" type="curve"/>
      <point x="227" y="511" type="line" smooth="yes"/>
      <point x="227" y="541"/>
      <point x="210" y="554"/>
      <point x="191" y="554" type="curve" smooth="yes"/>
      <point x="173" y="554"/>
      <point x="152" y="547"/>
      <point x="132" y="496" type="curve" smooth="yes"/>
      <point x="124" y="476"/>
      <point x="116" y="466"/>
      <point x="100" y="466" type="curve" smooth="yes"/>
      <point x="77" y="466"/>
      <point x="34" y="479"/>
      <point x="34" y="511" type="curve" smooth="yes"/>
      <point x="34" y="553"/>
      <point x="96" y="590"/>
      <point x="201" y="590" type="curve" smooth="yes"/>
      <point x="327" y="590"/>
      <point x="339" y="538"/>
      <point x="339" y="495" type="curve" smooth="yes"/>
      <point x="339" y="362" type="line" smooth="yes"/>
      <point x="339" y="318"/>
      <point x="352" y="306"/>
      <point x="394" y="307" type="curve"/>
      <point x="395" y="284" type="line"/>
      <point x="372" y="276"/>
      <point x="329" y="265"/>
      <point x="285" y="265" type="curve" smooth="yes"/>
      <point x="251" y="265"/>
      <point x="241" y="284"/>
      <point x="230" y="301" type="curve"/>
      <point x="200" y="286"/>
      <point x="174" y="265"/>
      <point x="133" y="265" type="curve" smooth="yes"/>
      <point x="61" y="265"/>
      <point x="28" y="311"/>
    </contour>
    <contour>
      <point x="148" y="370" type="curve" smooth="yes"/>
      <point x="148" y="333"/>
      <point x="173" y="319"/>
      <point x="190" y="319" type="curve" smooth="yes"/>
      <point x="208" y="319"/>
      <point x="225" y="327"/>
      <point x="227" y="356" type="curve" smooth="yes"/>
      <point x="227" y="439" type="line"/>
      <point x="200" y="434"/>
      <point x="148" y="427"/>
    </contour>
  </outline>
</glyph>
<glyph name="guillemotleft" format="1">
  <advance width="487"/>
  <unicode hex="00AB"/>
  <outline>
    <contour>
      <point x="49" y="231" type="line" smooth="yes"/>
      <point x="37" y="245"/>
      <point x="38" y="258"/>
      <point x="49" y="270" type="curve" smooth="yes"/>
      <point x="223" y="464" type="line"/>
      <point x="252" y="443" type="line"/>
      <point x="173" y="268" type="line" smooth="yes"/>
      <point x="168" y="257"/>
      <point x="167" y="246"/>
      <point x="173" y="232" type="curve" smooth="yes"/>
      <point x="252" y="58" type="line"/>
      <point x="223" y="37" type="line"/>
    </contour>
    <contour>
      <point x="249" y="231" type="line" smooth="yes"/>
      <point x="237" y="245"/>
      <point x="238" y="258"/>
      <point x="249" y="270" type="curve" smooth="yes"/>
      <point x="423" y="464" type="line"/>
      <point x="452" y="443" type="line"/>
      <point x="373" y="268" type="line" smooth="yes"/>
      <point x="368" y="257"/>
      <point x="367" y="246"/>
      <point x="373" y="232" type="curve" smooth="yes"/>
      <point x="452" y="58" type="line"/>
      <point x="423" y="37" type="line"/>
    </contour>
  </outline>
</glyph>
<glyph name="logicalnot" format="2">
	<unicode hex="00AC"/>
	<advance width="600"/>
	<outline>
		<contour>
			<point x="58" y="317" type="line"/>
			<point x="58" y="397" type="line"/>
			<point x="542" y="397" type="line"/>
			<point x="542" y="95" type="line"/>
			<point x="446" y="95" type="line"/>
			<point x="446" y="317" type="line"/>
		</contour>
	</outline>
</glyph>
<glyph name="paragraph" format="1">
  <advance width="552"/>
  <unicode hex="00B6"/>
  <outline>
    <contour>
      <point x="35" y="465" type="curve" smooth="yes"/>
      <point x="35" y="599"/>
      <point x="122" y="692"/>
      <point x="277" y="692" type="curve"/>
      <point x="277" y="238" type="line"/>
      <point x="127" y="238"/>
      <point x="35" y="328"/>
    </contour>
    <contour>
      <point x="243" y="-70" type="line"/>
      <point x="323" y="-56" type="line" smooth="yes"/>
      <point x="341" y="-53"/>
      <point x="344" y="-36"/>
      <point x="344" y="-7" type="curve" smooth="yes"/>
      <point x="344" y="692" type="line"/>
      <point x="527" y="692" type="line"/>
      <point x="527" y="661" type="line"/>
      <point x="462" y="649" type="line" smooth="yes"/>
      <point x="444" y="646"/>
      <point x="441" y="637"/>
      <point x="441" y="608" type="curve" smooth="yes"/>
      <point x="441" y="-101" type="line"/>
      <point x="243" y="-101" type="line"/>
    </contour>
  </outline>
</glyph>
<glyph name="cedilla" format="1">
  <advance width="430"/>
  <unicode hex="00B8"/>
  <outline>
    <contour>
      <point x="136" y="-211" type="line"/>
      <point x="192" y="-211"/>
      <point x="230" y="-196"/>
      <point x="230" y="-153" type="curve" smooth="yes"/>
      <point x="230" y="-111"/>
      <point x="186" y="-102"/>
      <point x="164" y="-100" type="curve"/>
      <point x="160" y="-92" type="line"/>
      <point x="217" y="0" type="line"/>
      <point x="275" y="0" type="line"/>
      <point x="236" y="-58" type="line"/>
      <point x="267" y="-62"/>
      <point x="335" y="-79"/>
      <point x="335" y="-144" type="curve" smooth="yes"/>
      <point x="335" y="-234"/>
      <point x="231" y="-246"/>
      <point x="184" y="-246" type="curve" smooth="yes"/>
      <point x="165" y="-246"/>
      <point x="153" y="-245"/>
      <point x="136" y="-243" type="curve"/>
    </contour>
  </outline>
</glyph>
<glyph name="uni00B9" format="1">
  <advance width="402"/>
  <unicode hex="00B9"/>
  <outline>
    <contour>
      <point x="75" y="408" type="line"/>
      <point x="75" y="435" type="line"/>
      <point x="113" y="440" type="line" smooth="yes"/>
      <point x="134" y="443"/>
      <point x="142" y="450"/>
      <point x="142" y="476" type="curve" smooth="yes"/>
      <point x="142" y="726" type="line" smooth="yes"/>
      <point x="142" y="750"/>
      <point x="134" y="757"/>
      <point x="118" y="760" type="curve" smooth="yes"/>
      <point x="77" y="766" type="line"/>
      <point x="77" y="792" type="line"/>
      <point x="253" y="816" type="line"/>
      <point x="261" y="809" type="line"/>
      <point x="261" y="476" type="line" smooth="yes"/>
      <point x="261" y="450"/>
      <point x="269" y="443"/>
      <point x="290" y="440" type="curve" smooth="yes"/>
      <point x="328" y="435" type="line"/>
      <point x="328" y="408" type="line"/>
    </contour>
  </outline>
</glyph>
<glyph name="ordmasculine" format="2">
	<unicode hex="00BA"/>
	<advance width="427"/>
	<outline>
		<contour>
			<point x="28" y="564" type="curve" smooth="yes"/>
			<point x="28" y="658"/>
			<point x="79" y="726"/>
			<point x="214" y="726" type="curve" smooth="yes"/>
			<point x="349" y="726"/>
			<point x="399" y="658"/>
			<point x="399" y="564" type="curve" smooth="yes"/>
			<point x="399" y="469"/>
			<point x="349" y="401"/>
			<point x="214" y="401" type="curve" smooth="yes"/>
			<point x="79" y="401"/>
			<point x="28" y="469"/>
		</contour>
		<contour>
			<point x="154" y="564" type="curve" smooth="yes"/>
			<point x="154" y="486"/>
			<point x="174" y="437"/>
			<point x="214" y="437" type="curve" smooth="yes"/>
			<point x="254" y="437"/>
			<point x="273" y="486"/>
			<point x="273" y="564" type="curve" smooth="yes"/>
			<point x="273" y="641"/>
			<point x="254" y="690"/>
			<point x="214" y="690" type="curve" smooth="yes"/>
			<point x="174" y="690"/>
			<point x="154" y="641"/>
		</contour>
	</outline>
</glyph>
<glyph name="Aacute" format="1">
  <advance width="644"/>
  <unicode hex="00C1"/>
  <outline>
    <contour>
      <point x="-28" y="0" type="line"/>
      <point x="-28" y="38" type="line"/>
      <point x="26" y="41"/>
      <point x="37" y="48"/>
      <point x="53" y="90" type="curve" smooth="yes"/>
      <point x="77" y="151"/>
      <point x="110" y="252"/>
      <point x="146" y="355" type="curve" smooth="yes"/>
      <point x="262" y="692" type="line"/>
      <point x="388" y="692" type="line"/>
      <point x="585" y="86" type="line" smooth="yes"/>
      <point x="598" y="45"/>
      <point x="611" y="39"/>
      <point x="663" y="38" type="curve"/>
      <point x="663" y="0" type="line"/>
      <point x="347" y="0" type="line"/>
      <point x="347" y="38" type="line"/>
      <point x="405" y="44" type="line" smooth="yes"/>
      <point x="426" y="46"/>
      <point x="429" y="59"/>
      <point x="422" y="80" type="curve" smooth="yes"/>
      <point x="370" y="246" type="line"/>
      <point x="176" y="246" type="line"/>
      <point x="158" y="187"/>
      <point x="140" y="133"/>
      <point x="128" y="79" type="curve" smooth="yes"/>
      <point x="123" y="57"/>
      <point x="124" y="45"/>
      <point x="146" y="43" type="curve" smooth="yes"/>
      <point x="206" y="38" type="line"/>
      <point x="206" y="0" type="line"/>
    </contour>
    <contour>
      <point x="192" y="294" type="line"/>
      <point x="354" y="294" type="line"/>
      <point x="276" y="553" type="line"/>
      <point x="273" y="553" type="line"/>
    </contour>
    <contour>
      <point x="215" y="751" type="line"/>
      <point x="387" y="874" type="line" smooth="yes"/>
      <point x="418" y="897"/>
      <point x="433" y="904"/>
      <point x="451" y="904" type="curve" smooth="yes"/>
      <point x="483" y="904"/>
      <point x="505" y="860"/>
      <point x="505" y="840" type="curve" smooth="yes"/>
      <point x="505" y="811"/>
      <point x="485" y="800"/>
      <point x="432" y="783" type="curve" smooth="yes"/>
      <point x="229" y="719" type="line"/>
    </contour>
  </outline>
</glyph>
<glyph name="Atilde" format="1">
  <advance width="644"/>
  <unicode hex="00C3"/>
  <outline>
    <contour>
      <point x="-28" y="0" type="line"/>
      <point x="-28" y="38" type="line"/>
      <point x="26" y="41"/>
      <point x="37" y="48"/>
      <point x="53" y="90" type="curve" smooth="yes"/>
      <point x="77" y="151"/>
      <point x="110" y="252"/>
      <point x="146" y="355" type="curve" smooth="yes"/>
      <point x="262" y="692" type="line"/>
      <point x="388" y="692" type="line"/>
      <point x="585" y="86" type="line" smooth="yes"/>
      <point x="598" y="45"/>
      <point x="611" y="39"/>
      <point x="663" y="38" type="curve"/>
      <point x="663" y="0" type="line"/>
      <point x="347" y="0" type="line"/>
      <point x="347" y="38" type="line"/>
      <point x="405" y="44" type="line" smooth="yes"/>
      <point x="426" y="46"/>
      <point x="429" y="59"/>
      <point x="422" y="80" type="curve" smooth="yes"/>
      <point x="370" y="246" type="line"/>
      <point x="176" y="246" type="line"/>
      <point x="158" y="187"/>
      <point x="140" y="133"/>
      <point x="128" y="79" type="curve" smooth="yes"/>
      <point x="123" y="57"/>
      <point x="124" y="45"/>
      <point x="146" y="43" type="curve" smooth="yes"/>
      <point x="206" y="38" type="line"/>
      <point x="206" y="0" type="line"/>
    </contour>
    <contour>
      <point x="114" y="741" type="line"/>
      <point x="132" y="784"/>
      <point x="167" y="863"/>
      <point x="249" y="863" type="curve" smooth="yes"/>
      <point x="277" y="863"/>
      <point x="309" y="853"/>
      <point x="341" y="842" type="curve" smooth="yes"/>
      <point x="374" y="832"/>
      <point x="406" y="821"/>
      <point x="432" y="821" type="curve" smooth="yes"/>
      <point x="469" y="821"/>
      <point x="485" y="837"/>
      <point x="507" y="876" type="curve"/>
      <point x="539" y="858" type="line"/>
      <point x="521" y="815"/>
      <point x="486" y="736"/>
      <point x="404" y="736" type="curve" smooth="yes"/>
      <point x="379" y="736"/>
      <point x="348" y="747"/>
      <point x="316" y="757" type="curve" smooth="yes"/>
      <point x="284" y="768"/>
      <point x="251" y="778"/>
      <point x="221" y="778" type="curve" smooth="yes"/>
      <point x="184" y="778"/>
      <point x="168" y="762"/>
      <point x="146" y="723" type="curve"/>
    </contour>
    <contour>
      <point x="192" y="294" type="line"/>
      <point x="354" y="294" type="line"/>
      <point x="276" y="553" type="line"/>
      <point x="273" y="553" type="line"/>
    </contour>
  </outline>
</glyph>
<glyph name="AE" format="2">
	<unicode hex="00C6"/>
	<advance width="879"/>
	<outline>
		<contour>
			<point x="-77" y="0" type="line"/>
			<point x="-77" y="38" type="line"/>
			<point x="-19" y="40"/>
			<point x="-6" y="52"/>
			<point x="16" y="94" type="curve"/>
			<point x="272" y="605" type="line"/>
			<point x="277" y="616"/>
			<point x="280" y="625"/>
			<point x="280" y="632" type="curve" smooth="yes"/>
			<point x="280" y="641"/>
			<point x="275" y="646"/>
			<point x="263" y="647" type="curve" smooth="yes"/>
			<point x="199" y="654" type="line"/>
			<point x="199" y="692" type="line"/>
			<point x="822" y="692" type="line"/>
			<point x="822" y="507" type="line"/>
			<point x="784" y="507" type="line"/>
			<point x="753" y="606"/>
			<point x="735" y="646"/>
			<point x="632" y="646" type="curve" smooth="yes"/>
			<point x="557" y="646" type="line" smooth="yes"/>
			<point x="529" y="646"/>
			<point x="522" y="639"/>
			<point x="522" y="610" type="curve" smooth="yes"/>
			<point x="522" y="389" type="line"/>
			<point x="617" y="389" type="line" smooth="yes"/>
			<point x="680" y="389"/>
			<point x="693" y="406"/>
			<point x="709" y="479" type="curve"/>
			<point x="747" y="479" type="line"/>
			<point x="747" y="247" type="line"/>
			<point x="709" y="247" type="line"/>
			<point x="693" y="320"/>
			<point x="680" y="337"/>
			<point x="617" y="337" type="curve" smooth="yes"/>
			<point x="522" y="337" type="line"/>
			<point x="522" y="119" type="line" smooth="yes"/>
			<point x="522" y="55"/>
			<point x="553" y="46"/>
			<point x="645" y="46" type="curve" smooth="yes"/>
			<point x="761" y="46"/>
			<point x="780" y="101"/>
			<point x="816" y="208" type="curve"/>
			<point x="854" y="208" type="line"/>
			<point x="842" y="0" type="line"/>
			<point x="287" y="0" type="line"/>
			<point x="287" y="38" type="line"/>
			<point x="358" y="41"/>
			<point x="366" y="46"/>
			<point x="366" y="97" type="curve" smooth="yes"/>
			<point x="366" y="337" type="line"/>
			<point x="209" y="337" type="line"/>
			<point x="87" y="83" type="line" smooth="yes"/>
			<point x="83" y="75"/>
			<point x="82" y="68"/>
			<point x="82" y="63" type="curve" smooth="yes"/>
			<point x="82" y="52"/>
			<point x="89" y="45"/>
			<point x="105" y="44" type="curve"/>
			<point x="169" y="38" type="line"/>
			<point x="169" y="0" type="line"/>
		</contour>
		<contour>
			<point x="234" y="389" type="line"/>
			<point x="366" y="389" type="line"/>
			<point x="366" y="640" type="line"/>
			<point x="356" y="640" type="line"/>
		</contour>
	</outline>
</glyph>
<glyph name="Igrave" format="1">
  <advance width="384"/>
  <unicode hex="00CC"/>
  <outline>
    <contour>
      <point x="9" y="840" type="curve" smooth="yes"/>
      <point x="9" y="860"/>
      <point x="31" y="904"/>
      <point x="63" y="904" type="curve" smooth="yes"/>
      <point x="81" y="904"/>
      <point x="96" y="897"/>
      <point x="127" y="874" type="curve" smooth="yes"/>
      <point x="299" y="751" type="line"/>
      <point x="285" y="719" type="line"/>
      <point x="82" y="783" type="line" smooth="yes"/>
      <point x="29" y="800"/>
      <point x="9" y="811"/>
    </contour>
    <contour>
      <point x="33" y="0" type="line"/>
      <point x="33" y="38" type="line"/>
      <point x="104" y="41"/>
      <point x="112" y="46"/>
      <point x="112" y="97" type="curve" smooth="yes"/>
      <point x="112" y="595" type="line" smooth="yes"/>
      <point x="112" y="646"/>
      <point x="104" y="651"/>
      <point x="33" y="654" type="curve"/>
      <point x="33" y="692" type="line"/>
      <point x="351" y="692" type="line"/>
      <point x="351" y="654" type="line"/>
      <point x="280" y="651"/>
      <point x="272" y="646"/>
      <point x="272" y="595" type="curve" smooth="yes"/>
      <point x="272" y="97" type="line" smooth="yes"/>
      <point x="272" y="46"/>
      <point x="280" y="41"/>
      <point x="351" y="38" type="curve"/>
      <point x="351" y="0" type="line"/>
    </contour>
  </outline>
</glyph>
<glyph name="Eth" format="1">
  <advance width="783"/>
  <unicode hex="00D0"/>
  <outline>
    <contour>
      <point x="35" y="341" type="line"/>
      <point x="35" y="389" type="line"/>
      <point x="118" y="389" type="line"/>
      <point x="118" y="595" type="line" smooth="yes"/>
      <point x="118" y="646"/>
      <point x="110" y="651"/>
      <point x="39" y="654" type="curve"/>
      <point x="39" y="692" type="line"/>
      <point x="382" y="692" type="line" smooth="yes"/>
      <point x="512" y="691"/>
      <point x="596" y="663"/>
      <point x="654" y="606" type="curve" smooth="yes"/>
      <point x="712" y="549"/>
      <point x="741" y="465"/>
      <point x="741" y="353" type="curve" smooth="yes"/>
      <point x="741" y="21"/>
      <point x="494" y="0"/>
      <point x="338" y="0" type="curve" smooth="yes"/>
      <point x="39" y="0" type="line"/>
      <point x="39" y="38" type="line"/>
      <point x="110" y="41"/>
      <point x="118" y="46"/>
      <point x="118" y="97" type="curve" smooth="yes"/>
      <point x="118" y="341" type="line"/>
    </contour>
    <contour>
      <point x="278" y="90" type="line" smooth="yes"/>
      <point x="278" y="58"/>
      <point x="295" y="46"/>
      <point x="358" y="46" type="curve" smooth="yes"/>
      <point x="456" y="46"/>
      <point x="564" y="89"/>
      <point x="564" y="351" type="curve" smooth="yes"/>
      <point x="564" y="544"/>
      <point x="495" y="646"/>
      <point x="361" y="646" type="curve" smooth="yes"/>
      <point x="298" y="646"/>
      <point x="278" y="641"/>
      <point x="278" y="618" type="curve" smooth="yes"/>
      <point x="278" y="389" type="line"/>
      <point x="420" y="389" type="line"/>
      <point x="420" y="341" type="line"/>
      <point x="278" y="341" type="line"/>
    </contour>
  </outline>
</glyph>
<glyph name="Oacute" format="1">
  <advance width="768"/>
  <unicode hex="00D3"/>
  <outline>
    <contour>
      <point x="42" y="346" type="curve" smooth="yes"/>
      <point x="42" y="572"/>
      <point x="154" y="707"/>
      <point x="384" y="707" type="curve" smooth="yes"/>
      <point x="614" y="707"/>
      <point x="726" y="572"/>
      <point x="726" y="346" type="curve" smooth="yes"/>
      <point x="726" y="120"/>
      <point x="614" y="-15"/>
      <point x="384" y="-15" type="curve" smooth="yes"/>
      <point x="154" y="-15"/>
      <point x="42" y="120"/>
    </contour>
    <contour>
      <point x="219" y="346" type="curve" smooth="yes"/>
      <point x="219" y="225"/>
      <point x="239" y="31"/>
      <point x="384" y="31" type="curve" smooth="yes"/>
      <point x="531" y="31"/>
      <point x="549" y="225"/>
      <point x="549" y="346" type="curve" smooth="yes"/>
      <point x="549" y="467"/>
      <point x="531" y="661"/>
      <point x="384" y="661" type="curve" smooth="yes"/>
      <point x="237" y="661"/>
      <point x="219" y="467"/>
    </contour>
    <contour>
      <point x="277" y="751" type="line"/>
      <point x="449" y="874" type="line" smooth="yes"/>
      <point x="480" y="897"/>
      <point x="495" y="904"/>
      <point x="513" y="904" type="curve" smooth="yes"/>
      <point x="545" y="904"/>
      <point x="567" y="860"/>
      <point x="567" y="840" type="curve" smooth="yes"/>
      <point x="567" y="811"/>
      <point x="547" y="800"/>
      <point x="494" y="783" type="curve" smooth="yes"/>
      <point x="291" y="719" type="line"/>
    </contour>
  </outline>
</glyph>
<glyph name="Oslash" format="1">
  <advance width="768"/>
  <unicode hex="00D8"/>
  <outline>
    <contour>
      <point x="42" y="346" type="curve" smooth="yes"/>
      <point x="42" y="572"/>
      <point x="154" y="707"/>
      <point x="384" y="707" type="curve" smooth="yes"/>
      <point x="443" y="707"/>
      <point x="494" y="698"/>
      <point x="538" y="681" type="curve"/>
      <point x="575" y="747" type="line"/>
      <point x="622" y="721" type="line"/>
      <point x="586" y="657" type="line"/>
      <point x="680" y="599"/>
      <point x="726" y="491"/>
      <point x="726" y="346" type="curve" smooth="yes"/>
      <point x="726" y="120"/>
      <point x="614" y="-15"/>
      <point x="384" y="-15" type="curve" smooth="yes"/>
      <point x="324" y="-15"/>
      <point x="271" y="-6"/>
      <point x="227" y="13" type="curve"/>
      <point x="186" y="-61" type="line"/>
      <point x="142" y="-30" type="line"/>
      <point x="179" y="37" type="line"/>
      <point x="87" y="96"/>
      <point x="42" y="203"/>
    </contour>
    <contour>
      <point x="219" y="346" type="curve" smooth="yes"/>
      <point x="220" y="283"/>
      <point x="224" y="211"/>
      <point x="243" y="152" type="curve"/>
      <point x="494" y="602" type="line"/>
      <point x="470" y="638"/>
      <point x="435" y="661"/>
      <point x="384" y="661" type="curve" smooth="yes"/>
      <point x="239" y="661"/>
      <point x="221" y="474"/>
    </contour>
    <contour>
      <point x="271" y="91" type="line"/>
      <point x="296" y="54"/>
      <point x="332" y="31"/>
      <point x="384" y="31" type="curve" smooth="yes"/>
      <point x="529" y="31"/>
      <point x="547" y="210"/>
      <point x="549" y="346" type="curve" smooth="yes"/>
      <point x="548" y="407"/>
      <point x="543" y="482"/>
      <point x="523" y="543" type="curve"/>
    </contour>
  </outline>
</glyph>
<glyph name="Uacute" format="1">
  <advance width="786"/>
  <unicode hex="00DA"/>
  <outline>
    <contour>
      <point x="29" y="654" type="curve"/>
      <point x="29" y="692" type="line"/>
      <point x="341" y="692" type="line"/>
      <point x="341" y="654" type="line"/>
      <point x="273" y="651"/>
      <point x="265" y="646"/>
      <point x="265" y="595" type="curve" smooth="yes"/>
      <point x="265" y="211" type="line" smooth="yes"/>
      <point x="265" y="97"/>
      <point x="303" y="31"/>
      <point x="393" y="31" type="curve" smooth="yes"/>
      <point x="485" y="31"/>
      <point x="521" y="97"/>
      <point x="521" y="211" type="curve" smooth="yes"/>
      <point x="521" y="595" type="line" smooth="yes"/>
      <point x="521" y="646"/>
      <point x="513" y="651"/>
      <point x="445" y="654" type="curve"/>
      <point x="445" y="692" type="line"/>
      <point x="757" y="692" type="line"/>
      <point x="757" y="654" type="line"/>
      <point x="689" y="651"/>
      <point x="681" y="646"/>
      <point x="681" y="595" type="curve" smooth="yes"/>
      <point x="681" y="225" type="line" smooth="yes"/>
      <point x="679" y="52"/>
      <point x="578" y="-15"/>
      <point x="393" y="-15" type="curve" smooth="yes"/>
      <point x="193" y="-15"/>
      <point x="105" y="52"/>
      <point x="105" y="225" type="curve" smooth="yes"/>
      <point x="105" y="595" type="line" smooth="yes"/>
      <point x="105" y="646"/>
      <point x="97" y="651"/>
    </contour>
    <contour>
      <point x="300" y="751" type="line"/>
      <point x="472" y="874" type="line" smooth="yes"/>
      <point x="503" y="897"/>
      <point x="518" y="904"/>
      <point x="536" y="904" type="curve" smooth="yes"/>
      <point x="568" y="904"/>
      <point x="590" y="860"/>
      <point x="590" y="840" type="curve" smooth="yes"/>
      <point x="590" y="811"/>
      <point x="570" y="800"/>
      <point x="517" y="783" type="curve" smooth="yes"/>
      <point x="314" y="719" type="line"/>
    </contour>
  </outline>
</glyph>
<glyph name="Thorn" format="1">
  <advance width="640"/>
  <unicode hex="00DE"/>
  <outline>
    <contour>
      <point x="33" y="0" type="line"/>
      <point x="33" y="38" type="line"/>
      <point x="104" y="41"/>
      <point x="112" y="46"/>
      <point x="112" y="97" type="curve" smooth="yes"/>
      <point x="112" y="595" type="line" smooth="yes"/>
      <point x="112" y="646"/>
      <point x="104" y="651"/>
      <point x="33" y="654" type="curve"/>
      <point x="33" y="692" type="line"/>
      <point x="350" y="692" type="line"/>
      <point x="350" y="654" type="line"/>
      <point x="280" y="651"/>
      <point x="272" y="646"/>
      <point x="272" y="595" type="curve" smooth="yes"/>
      <point x="272" y="548" type="line"/>
      <point x="358" y="548" type="line" smooth="yes"/>
      <point x="517" y="548"/>
      <point x="622" y="502"/>
      <point x="622" y="363" type="curve" smooth="yes"/>
      <point x="622" y="194"/>
      <point x="445" y="176"/>
      <point x="312" y="176" type="curve" smooth="yes"/>
      <point x="272" y="176" type="line"/>
      <point x="272" y="97" type="line" smooth="yes"/>
      <point x="272" y="46"/>
      <point x="280" y="41"/>
      <point x="368" y="36" type="curve"/>
      <point x="368" y="0" type="line"/>
    </contour>
    <contour>
      <point x="272" y="258" type="line" smooth="yes"/>
      <point x="272" y="229"/>
      <point x="289" y="222"/>
      <point x="330" y="222" type="curve" smooth="yes"/>
      <point x="423" y="222"/>
      <point x="454" y="284"/>
      <point x="454" y="363" type="curve" smooth="yes"/>
      <point x="454" y="467"/>
      <point x="396" y="502"/>
      <point x="335" y="502" type="curve" smooth="yes"/>
      <point x="278" y="502"/>
      <point x="272" y="491"/>
      <point x="272" y="464" type="curve" smooth="yes"/>
    </contour>
  </outline>
</glyph>
<glyph name="germandbls" format="1">
  <advance width="662"/>
  <unicode hex="00DF"/>
  <outline>
    <contour>
      <point x="29" y="0" type="line"/>
      <point x="29" y="36" type="line"/>
      <point x="84" y="41"/>
      <point x="92" y="45"/>
      <point x="92" y="85" type="curve" smooth="yes"/>
      <point x="92" y="490" type="line" smooth="yes"/>
      <point x="92" y="559"/>
      <point x="103" y="620"/>
      <point x="142" y="664" type="curve" smooth="yes"/>
      <point x="181" y="710"/>
      <point x="253" y="742"/>
      <point x="342" y="742" type="curve" smooth="yes"/>
      <point x="548" y="742"/>
      <point x="576" y="634"/>
      <point x="576" y="575" type="curve" smooth="yes"/>
      <point x="576" y="545"/>
      <point x="570" y="522"/>
      <point x="550" y="500" type="curve"/>
      <point x="485" y="494"/>
      <point x="449" y="459"/>
      <point x="449" y="415" type="curve" smooth="yes"/>
      <point x="449" y="364"/>
      <point x="505" y="327"/>
      <point x="526" y="312" type="curve" smooth="yes"/>
      <point x="576" y="278"/>
      <point x="647" y="229"/>
      <point x="647" y="144" type="curve" smooth="yes"/>
      <point x="647" y="45"/>
      <point x="580" y="-12"/>
      <point x="462" y="-12" type="curve" smooth="yes"/>
      <point x="384" y="-12"/>
      <point x="328" y="17"/>
      <point x="328" y="57" type="curve" smooth="yes"/>
      <point x="328" y="86"/>
      <point x="357" y="108"/>
      <point x="381" y="108" type="curve" smooth="yes"/>
      <point x="396" y="108"/>
      <point x="404" y="99"/>
      <point x="411" y="88" type="curve" smooth="yes"/>
      <point x="436" y="51"/>
      <point x="456" y="34"/>
      <point x="479" y="34" type="curve" smooth="yes"/>
      <point x="498" y="34"/>
      <point x="521" y="47"/>
      <point x="521" y="84" type="curve" smooth="yes"/>
      <point x="521" y="125"/>
      <point x="491" y="159"/>
      <point x="418" y="206" type="curve" smooth="yes"/>
      <point x="343" y="254"/>
      <point x="312" y="310"/>
      <point x="312" y="363" type="curve" smooth="yes"/>
      <point x="312" y="424"/>
      <point x="352" y="481"/>
      <point x="415" y="497" type="curve"/>
      <point x="433" y="523"/>
      <point x="435" y="554"/>
      <point x="435" y="577" type="curve" smooth="yes"/>
      <point x="435" y="645"/>
      <point x="399" y="696"/>
      <point x="344" y="696" type="curve" smooth="yes"/>
      <point x="283" y="696"/>
      <point x="243" y="631"/>
      <point x="243" y="511" type="curve" smooth="yes"/>
      <point x="243" y="85" type="line" smooth="yes"/>
      <point x="243" y="45"/>
      <point x="251" y="41"/>
      <point x="306" y="36" type="curve"/>
      <point x="306" y="0" type="line"/>
    </contour>
  </outline>
</glyph>
<glyph name="atilde" format="1">
  <advance width="544"/>
  <unicode hex="00E3"/>
  <outline>
    <contour>
      <point x="41" y="133" type="curve" smooth="yes"/>
      <point x="41" y="190"/>
      <point x="68" y="231"/>
      <point x="147" y="258" type="curve" smooth="yes"/>
      <point x="212" y="280"/>
      <point x="296" y="305"/>
      <point x="331" y="329" type="curve"/>
      <point x="331" y="382" type="line" smooth="yes"/>
      <point x="331" y="439"/>
      <point x="302" y="456"/>
      <point x="273" y="456" type="curve" smooth="yes"/>
      <point x="245" y="456"/>
      <point x="213" y="441"/>
      <point x="185" y="356" type="curve" smooth="yes"/>
      <point x="177" y="332"/>
      <point x="166" y="316"/>
      <point x="144" y="316" type="curve" smooth="yes"/>
      <point x="118" y="316"/>
      <point x="54" y="334"/>
      <point x="54" y="379" type="curve" smooth="yes"/>
      <point x="54" y="444"/>
      <point x="144" y="502"/>
      <point x="291" y="502" type="curve" smooth="yes"/>
      <point x="468" y="502"/>
      <point x="478" y="424"/>
      <point x="478" y="362" type="curve" smooth="yes"/>
      <point x="478" y="131" type="line" smooth="yes"/>
      <point x="478" y="72"/>
      <point x="497" y="60"/>
      <point x="510" y="56" type="curve" smooth="yes"/>
      <point x="525" y="51"/>
      <point x="545" y="50"/>
      <point x="558" y="51" type="curve"/>
      <point x="561" y="18" type="line"/>
      <point x="528" y="5"/>
      <point x="465" y="-12"/>
      <point x="413" y="-12" type="curve" smooth="yes"/>
      <point x="365" y="-12"/>
      <point x="348" y="15"/>
      <point x="335" y="46" type="curve"/>
      <point x="300" y="23"/>
      <point x="256" y="-12"/>
      <point x="192" y="-12" type="curve" smooth="yes"/>
      <point x="91" y="-12"/>
      <point x="41" y="58"/>
    </contour>
    <contour>
      <point x="65" y="571" type="line"/>
      <point x="83" y="614"/>
      <point x="118" y="693"/>
      <point x="200" y="693" type="curve" smooth="yes"/>
      <point x="228" y="693"/>
      <point x="260" y="683"/>
      <point x="292" y="672" type="curve" smooth="yes"/>
      <point x="325" y="662"/>
      <point x="357" y="651"/>
      <point x="383" y="651" type="curve" smooth="yes"/>
      <point x="420" y="651"/>
      <point x="436" y="667"/>
      <point x="458" y="706" type="curve"/>
      <point x="490" y="688" type="line"/>
      <point x="472" y="645"/>
      <point x="437" y="566"/>
      <point x="355" y="566" type="curve" smooth="yes"/>
      <point x="330" y="566"/>
      <point x="299" y="577"/>
      <point x="267" y="587" type="curve" smooth="yes"/>
      <point x="235" y="598"/>
      <point x="202" y="608"/>
      <point x="172" y="608" type="curve" smooth="yes"/>
      <point x="135" y="608"/>
      <point x="119" y="592"/>
      <point x="97" y="553" type="curve"/>
    </contour>
    <contour>
      <point x="195" y="150" type="curve" smooth="yes"/>
      <point x="195" y="97"/>
      <point x="230" y="66"/>
      <point x="269" y="66" type="curve" smooth="yes"/>
      <point x="296" y="66"/>
      <point x="329" y="80"/>
      <point x="331" y="134" type="curve" smooth="yes"/>
      <point x="331" y="279" type="line"/>
      <point x="307" y="268"/>
      <point x="272" y="254"/>
      <point x="241" y="237" type="curve" smooth="yes"/>
      <point x="211" y="220"/>
      <point x="195" y="197"/>
    </contour>
  </outline>
</glyph>
<glyph name="thorn" format="1">
  <advance width="609"/>
  <unicode hex="00FE"/>
  <outline>
    <contour>
      <point x="13" y="-192" type="line"/>
      <point x="70" y="-189"/>
      <point x="78" y="-185"/>
      <point x="78" y="-143" type="curve" smooth="yes"/>
      <point x="78" y="601" type="line" smooth="yes"/>
      <point x="78" y="641"/>
      <point x="70" y="650"/>
      <point x="54" y="653" type="curve" smooth="yes"/>
      <point x="19" y="659" type="line"/>
      <point x="19" y="695" type="line"/>
      <point x="222" y="722" type="line"/>
      <point x="229" y="716" type="line"/>
      <point x="229" y="433" type="line"/>
      <point x="278" y="470"/>
      <point x="324" y="502"/>
      <point x="394" y="502" type="curve" smooth="yes"/>
      <point x="488" y="502"/>
      <point x="575" y="425"/>
      <point x="575" y="259" type="curve" smooth="yes"/>
      <point x="575" y="38"/>
      <point x="456" y="-12"/>
      <point x="308" y="-12" type="curve" smooth="yes"/>
      <point x="281" y="-12"/>
      <point x="246" y="-7"/>
      <point x="229" y="0" type="curve"/>
      <point x="229" y="-143" type="line" smooth="yes"/>
      <point x="229" y="-185"/>
      <point x="239" y="-189"/>
      <point x="312" y="-192" type="curve"/>
      <point x="312" y="-230" type="line"/>
      <point x="13" y="-230" type="line"/>
    </contour>
    <contour>
      <point x="229" y="152" type="line" smooth="yes"/>
      <point x="229" y="133"/>
      <point x="230" y="116"/>
      <point x="233" y="101" type="curve" smooth="yes"/>
      <point x="242" y="57"/>
      <point x="268" y="34"/>
      <point x="312" y="34" type="curve" smooth="yes"/>
      <point x="389" y="34"/>
      <point x="416" y="113"/>
      <point x="416" y="237" type="curve" smooth="yes"/>
      <point x="416" y="399"/>
      <point x="363" y="425"/>
      <point x="316" y="425" type="curve" smooth="yes"/>
      <point x="274" y="425"/>
      <point x="249" y="402"/>
      <point x="236" y="365" type="curve" smooth="yes"/>
      <point x="231" y="351"/>
      <point x="229" y="331"/>
      <point x="229" y="310" type="curve" smooth="yes"/>
    </contour>
  </outline>
</glyph>
<glyph name="Ccircumflex" format="1">
  <advance width="689"/>
  <unicode hex="0108"/>
  <outline>
    <contour>
      <point x="42" y="339" type="curve" smooth="yes"/>
      <point x="42" y="439"/>
      <point x="67" y="534"/>
      <point x="128" y="602" type="curve" smooth="yes"/>
      <point x="187" y="668"/>
      <point x="282" y="707"/>
      <point x="423" y="707" type="curve" smooth="yes"/>
      <point x="473" y="707"/>
      <point x="578" y="699"/>
      <point x="638" y="663" type="curve"/>
      <point x="638" y="484" type="line"/>
      <point x="600" y="484" type="line"/>
      <point x="577" y="556"/>
      <point x="542" y="661"/>
      <point x="414" y="661" type="curve" smooth="yes"/>
      <point x="233" y="661"/>
      <point x="219" y="428"/>
      <point x="219" y="355" type="curve" smooth="yes"/>
      <point x="219" y="242"/>
      <point x="244" y="31"/>
      <point x="422" y="31" type="curve" smooth="yes"/>
      <point x="535" y="31"/>
      <point x="578" y="118"/>
      <point x="616" y="228" type="curve"/>
      <point x="654" y="228" type="line"/>
      <point x="642" y="33" type="line"/>
      <point x="582" y="-3"/>
      <point x="478" y="-15"/>
      <point x="408" y="-15" type="curve" smooth="yes"/>
      <point x="151" y="-15"/>
      <point x="42" y="125"/>
    </contour>
    <contour>
      <point x="235" y="755" type="line"/>
      <point x="377" y="881" type="line" smooth="yes"/>
      <point x="393" y="896"/>
      <point x="408" y="905"/>
      <point x="422" y="905" type="curve" smooth="yes"/>
      <point x="437" y="905"/>
      <point x="455" y="895"/>
      <point x="469" y="882" type="curve" smooth="yes"/>
      <point x="611" y="755" type="line"/>
      <point x="593" y="725" type="line"/>
      <point x="462" y="785" type="line" smooth="yes"/>
      <point x="449" y="792"/>
      <point x="434" y="800"/>
      <point x="422" y="800" type="curve" smooth="yes"/>
      <point x="412" y="800"/>
      <point x="398" y="792"/>
      <point x="384" y="785" type="curve" smooth="yes"/>
      <point x="254" y="725" type="line"/>
    </contour>
  </outline>
</glyph>
<glyph name="Cdotaccent" format="1">
  <advance width="689"/>
  <unicode hex="010A"/>
  <outline>
    <contour>
      <point x="42" y="339" type="curve" smooth="yes"/>
      <point x="42" y="439"/>
      <point x="67" y="534"/>
      <point x="128" y="602" type="curve" smooth="yes"/>
      <point x="187" y="668"/>
      <point x="282" y="707"/>
      <point x="423" y="707" type="curve" smooth="yes"/>
      <point x="473" y="707"/>
      <point x="578" y="699"/>
      <point x="638" y="663" type="curve"/>
      <point x="638" y="484" type="line"/>
      <point x="600" y="484" type="line"/>
      <point x="577" y="556"/>
      <point x="542" y="661"/>
      <point x="414" y="661" type="curve" smooth="yes"/>
      <point x="233" y="661"/>
      <point x="219" y="428"/>
      <point x="219" y="355" type="curve" smooth="yes"/>
      <point x="219" y="242"/>
      <point x="244" y="31"/>
      <point x="422" y="31" type="curve" smooth="yes"/>
      <point x="535" y="31"/>
      <point x="578" y="118"/>
      <point x="616" y="228" type="curve"/>
      <point x="654" y="228" type="line"/>
      <point x="642" y="33" type="line"/>
      <point x="582" y="-3"/>
      <point x="478" y="-15"/>
      <point x="408" y="-15" type="curve" smooth="yes"/>
      <point x="151" y="-15"/>
      <point x="42" y="125"/>
    </contour>
    <contour>
      <point x="344" y="806" type="curve" smooth="yes"/>
      <point x="344" y="844"/>
      <point x="372" y="881"/>
      <point x="423" y="881" type="curve" smooth="yes"/>
      <point x="474" y="881"/>
      <point x="502" y="844"/>
      <point x="502" y="806" type="curve" smooth="yes"/>
      <point x="502" y="768"/>
      <point x="474" y="731"/>
      <point x="423" y="731" type="curve" smooth="yes"/>
      <point x="372" y="731"/>
      <point x="344" y="768"/>
    </contour>
  </outline>
</glyph>
<glyph name="Ccaron" format="1">
  <advance width="689"/>
  <unicode hex="010C"/>
  <outline>
    <contour>
      <point x="42" y="339" type="curve" smooth="yes"/>
      <point x="42" y="439"/>
      <point x="67" y="534"/>
      <point x="128" y="602" type="curve" smooth="yes"/>
      <point x="187" y="668"/>
      <point x="282" y="707"/>
      <point x="423" y="707" type="curve" smooth="yes"/>
      <point x="473" y="707"/>
      <point x="578" y="699"/>
      <point x="638" y="663" type="curve"/>
      <point x="638" y="484" type="line"/>
      <point x="600" y="484" type="line"/>
      <point x="577" y="556"/>
      <point x="542" y="661"/>
      <point x="414" y="661" type="curve" smooth="yes"/>
      <point x="233" y="661"/>
      <point x="219" y="428"/>
      <point x="219" y="355" type="curve" smooth="yes"/>
      <point x="219" y="242"/>
      <point x="244" y="31"/>
      <point x="422" y="31" type="curve" smooth="yes"/>
      <point x="535" y="31"/>
      <point x="578" y="118"/>
      <point x="616" y="228" type="curve"/>
      <point x="654" y="228" type="line"/>
      <point x="642" y="33" type="line"/>
      <point x="582" y="-3"/>
      <point x="478" y="-15"/>
      <point x="408" y="-15" type="curve" smooth="yes"/>
      <point x="151" y="-15"/>
      <point x="42" y="125"/>
    </contour>
    <contour>
      <point x="235" y="886" type="line"/>
      <point x="254" y="916" type="line"/>
      <point x="384" y="856" type="line" smooth="yes"/>
      <point x="398" y="849"/>
      <point x="412" y="841"/>
      <point x="422" y="841" type="curve" smooth="yes"/>
      <point x="434" y="841"/>
      <point x="449" y="849"/>
      <point x="462" y="856" type="curve" smooth="yes"/>
      <point x="593" y="916" type="line"/>
      <point x="611" y="886" type="line"/>
      <point x="469" y="759" type="line" smooth="yes"/>
      <point x="455" y="746"/>
      <point x="437" y="736"/>
      <point x="422" y="736" type="curve" smooth="yes"/>
      <point x="408" y="736"/>
      <point x="393" y="745"/>
      <point x="377" y="760" type="curve" smooth="yes"/>
    </contour>
  </outline>
</glyph>
<glyph name="ccaron" format="1">
  <advance width="494"/>
  <unicode hex="010D"/>
  <outline>
    <contour>
      <point x="34" y="241" type="curve" smooth="yes"/>
      <point x="34" y="328"/>
      <point x="60" y="393"/>
      <point x="102" y="435" type="curve" smooth="yes"/>
      <point x="147" y="480"/>
      <point x="209" y="502"/>
      <point x="287" y="502" type="curve" smooth="yes"/>
      <point x="378" y="502"/>
      <point x="478" y="463"/>
      <point x="478" y="392" type="curve" smooth="yes"/>
      <point x="478" y="348"/>
      <point x="430" y="330"/>
      <point x="395" y="330" type="curve" smooth="yes"/>
      <point x="369" y="330"/>
      <point x="354" y="342"/>
      <point x="347" y="365" type="curve" smooth="yes"/>
      <point x="330" y="425"/>
      <point x="313" y="456"/>
      <point x="278" y="456" type="curve" smooth="yes"/>
      <point x="236" y="456"/>
      <point x="193" y="399"/>
      <point x="193" y="265" type="curve" smooth="yes"/>
      <point x="193" y="109"/>
      <point x="256" y="65"/>
      <point x="321" y="65" type="curve" smooth="yes"/>
      <point x="376" y="65"/>
      <point x="415" y="88"/>
      <point x="449" y="156" type="curve"/>
      <point x="484" y="140" type="line"/>
      <point x="445" y="16"/>
      <point x="352" y="-12"/>
      <point x="269" y="-12" type="curve" smooth="yes"/>
      <point x="128" y="-12"/>
      <point x="34" y="73"/>
    </contour>
    <contour>
      <point x="100" y="720" type="line"/>
      <point x="124" y="747" type="line"/>
      <point x="249" y="653" type="line" smooth="yes"/>
      <point x="263" y="643"/>
      <point x="277" y="634"/>
      <point x="287" y="634" type="curve" smooth="yes"/>
      <point x="298" y="634"/>
      <point x="311" y="643"/>
      <point x="325" y="653" type="curve" smooth="yes"/>
      <point x="450" y="747" type="line"/>
      <point x="474" y="720" type="line"/>
      <point x="331" y="551" type="line" smooth="yes"/>
      <point x="316" y="534"/>
      <point x="301" y="520"/>
      <point x="287" y="520" type="curve" smooth="yes"/>
      <point x="273" y="520"/>
      <point x="258" y="533"/>
      <point x="243" y="551" type="curve" smooth="yes"/>
    </contour>
  </outline>
</glyph>
<glyph name="Dcaron" format="1">
  <advance width="777"/>
  <unicode hex="010E"/>
  <outline>
    <contour>
      <point x="33" y="0" type="line"/>
      <point x="33" y="38" type="line"/>
      <point x="104" y="41"/>
      <point x="112" y="46"/>
      <point x="112" y="97" type="curve" smooth="yes"/>
      <point x="112" y="595" type="line" smooth="yes"/>
      <point x="112" y="646"/>
      <point x="104" y="651"/>
      <point x="33" y="654" type="curve"/>
      <point x="33" y="692" type="line"/>
      <point x="376" y="692" type="line" smooth="yes"/>
      <point x="506" y="691"/>
      <point x="590" y="663"/>
      <point x="648" y="606" type="curve" smooth="yes"/>
      <point x="706" y="549"/>
      <point x="735" y="465"/>
      <point x="735" y="353" type="curve" smooth="yes"/>
      <point x="735" y="21"/>
      <point x="488" y="0"/>
      <point x="332" y="0" type="curve" smooth="yes"/>
    </contour>
    <contour>
      <point x="182" y="886" type="line"/>
      <point x="201" y="916" type="line"/>
      <point x="331" y="856" type="line" smooth="yes"/>
      <point x="345" y="849"/>
      <point x="359" y="841"/>
      <point x="369" y="841" type="curve" smooth="yes"/>
      <point x="381" y="841"/>
      <point x="396" y="849"/>
      <point x="409" y="856" type="curve" smooth="yes"/>
      <point x="540" y="916" type="line"/>
      <point x="558" y="886" type="line"/>
      <point x="416" y="759" type="line" smooth="yes"/>
      <point x="402" y="746"/>
      <point x="384" y="736"/>
      <point x="369" y="736" type="curve" smooth="yes"/>
      <point x="355" y="736"/>
      <point x="340" y="745"/>
      <point x="324" y="760" type="curve" smooth="yes"/>
    </contour>
    <contour>
      <point x="272" y="90" type="line" smooth="yes"/>
      <point x="272" y="58"/>
      <point x="289" y="46"/>
      <point x="352" y="46" type="curve" smooth="yes"/>
      <point x="450" y="46"/>
      <point x="558" y="89"/>
      <point x="558" y="353" type="curve" smooth="yes"/>
      <point x="558" y="546"/>
      <point x="489" y="646"/>
      <point x="355" y="646" type="curve" smooth="yes"/>
      <point x="292" y="646"/>
      <point x="272" y="641"/>
      <point x="272" y="618" type="curve" smooth="yes"/>
    </contour>
  </outline>
</glyph>
<glyph name="Gcircumflex" format="1">
  <advance width="726"/>
  <unicode hex="011C"/>
  <outline>
    <contour>
      <point x="42" y="341" type="curve" smooth="yes"/>
      <point x="42" y="479"/>
      <point x="94" y="707"/>
      <point x="414" y="707" type="curve" smooth="yes"/>
      <point x="493" y="707"/>
      <point x="580" y="697"/>
      <point x="643" y="663" type="curve"/>
      <point x="643" y="481" type="line"/>
      <point x="605" y="481" type="line"/>
      <point x="577" y="567"/>
      <point x="530" y="661"/>
      <point x="419" y="661" type="curve" smooth="yes"/>
      <point x="244" y="661"/>
      <point x="219" y="456"/>
      <point x="219" y="354" type="curve" smooth="yes"/>
      <point x="219" y="281"/>
      <point x="229" y="31"/>
      <point x="410" y="31" type="curve" smooth="yes"/>
      <point x="479" y="31"/>
      <point x="493" y="41"/>
      <point x="493" y="76" type="curve" smooth="yes"/>
      <point x="493" y="217" type="line" smooth="yes"/>
      <point x="493" y="266"/>
      <point x="485" y="271"/>
      <point x="407" y="276" type="curve"/>
      <point x="407" y="314" type="line"/>
      <point x="709" y="314" type="line"/>
      <point x="709" y="276" type="line"/>
      <point x="661" y="271"/>
      <point x="653" y="266"/>
      <point x="653" y="219" type="curve" smooth="yes"/>
      <point x="653" y="33" type="line"/>
      <point x="583" y="2"/>
      <point x="486" y="-15"/>
      <point x="410" y="-15" type="curve" smooth="yes"/>
      <point x="344" y="-15"/>
      <point x="250" y="-9"/>
      <point x="177" y="40" type="curve" smooth="yes"/>
      <point x="101" y="91"/>
      <point x="42" y="183"/>
    </contour>
    <contour>
      <point x="226" y="755" type="line"/>
      <point x="368" y="881" type="line" smooth="yes"/>
      <point x="384" y="896"/>
      <point x="399" y="905"/>
      <point x="413" y="905" type="curve" smooth="yes"/>
      <point x="428" y="905"/>
      <point x="446" y="895"/>
      <point x="460" y="882" type="curve" smooth="yes"/>
      <point x="602" y="755" type="line"/>
      <point x="584" y="725" type="line"/>
      <point x="453" y="785" type="line" smooth="yes"/>
      <point x="440" y="792"/>
      <point x="425" y="800"/>
      <point x="413" y="800" type="curve" smooth="yes"/>
      <point x="403" y="800"/>
      <point x="389" y="792"/>
      <point x="375" y="785" type="curve" smooth="yes"/>
      <point x="245" y="725" type="line"/>
    </contour>
  </outline>
</glyph>
<glyph name="gcircumflex" format="1">
  <advance width="533"/>
  <unicode hex="011D"/>
  <outline>
    <contour>
      <point x="25" y="-96" type="curve" smooth="yes"/>
      <point x="25" y="-29"/>
      <point x="99" y="-10"/>
      <point x="141" y="-1" type="curve"/>
      <point x="141" y="1" type="line"/>
      <point x="97" y="11"/>
      <point x="49" y="51"/>
      <point x="49" y="95" type="curve" smooth="yes"/>
      <point x="49" y="135"/>
      <point x="91" y="171"/>
      <point x="156" y="187" type="curve"/>
      <point x="156" y="189" type="line"/>
      <point x="95" y="199"/>
      <point x="34" y="249"/>
      <point x="34" y="332" type="curve" smooth="yes"/>
      <point x="34" y="410"/>
      <point x="87" y="502"/>
      <point x="267" y="502" type="curve" smooth="yes"/>
      <point x="321" y="502"/>
      <point x="377" y="488"/>
      <point x="410" y="469" type="curve"/>
      <point x="535" y="512" type="line"/>
      <point x="546" y="501" type="line"/>
      <point x="526" y="426" type="line"/>
      <point x="460" y="414" type="line"/>
      <point x="473" y="397"/>
      <point x="483" y="366"/>
      <point x="483" y="336" type="curve" smooth="yes"/>
      <point x="483" y="217"/>
      <point x="378" y="174"/>
      <point x="260" y="174" type="curve" smooth="yes"/>
      <point x="248" y="174"/>
      <point x="233" y="174"/>
      <point x="214" y="176" type="curve"/>
      <point x="200" y="173"/>
      <point x="174" y="161"/>
      <point x="174" y="139" type="curve" smooth="yes"/>
      <point x="174" y="121"/>
      <point x="192" y="105"/>
      <point x="241" y="105" type="curve" smooth="yes"/>
      <point x="334" y="105" type="line" smooth="yes"/>
      <point x="439" y="105"/>
      <point x="532" y="68"/>
      <point x="532" y="-52" type="curve" smooth="yes"/>
      <point x="532" y="-124"/>
      <point x="494" y="-176"/>
      <point x="439" y="-205" type="curve" smooth="yes"/>
      <point x="389" y="-232"/>
      <point x="316" y="-242"/>
      <point x="272" y="-242" type="curve" smooth="yes"/>
      <point x="129" y="-242"/>
      <point x="25" y="-194"/>
    </contour>
    <contour>
      <point x="71" y="547" type="line"/>
      <point x="214" y="716" type="line" smooth="yes"/>
      <point x="229" y="734"/>
      <point x="244" y="747"/>
      <point x="258" y="747" type="curve" smooth="yes"/>
      <point x="272" y="747"/>
      <point x="287" y="733"/>
      <point x="302" y="716" type="curve" smooth="yes"/>
      <point x="445" y="547" type="line"/>
      <point x="421" y="520" type="line"/>
      <point x="296" y="614" type="line" smooth="yes"/>
      <point x="282" y="624"/>
      <point x="269" y="633"/>
      <point x="258" y="633" type="curve" smooth="yes"/>
      <point x="248" y="633"/>
      <point x="234" y="624"/>
      <point x="220" y="614" type="curve" smooth="yes"/>
      <point x="95" y="520" type="line"/>
    </contour>
    <contour>
      <point x="160" y="-86" type="curve" smooth="yes"/>
      <point x="160" y="-157"/>
      <point x="220" y="-196"/>
      <point x="287" y="-196" type="curve" smooth="yes"/>
      <point x="354" y="-196"/>
      <point x="411" y="-167"/>
      <point x="411" y="-96" type="curve" smooth="yes"/>
      <point x="411" y="-35"/>
      <point x="358" y="-16"/>
      <point x="273" y="-16" type="curve" smooth="yes"/>
      <point x="229" y="-16"/>
      <point x="199" y="-22"/>
      <point x="185" y="-31" type="curve" smooth="yes"/>
      <point x="171" y="-41"/>
      <point x="160" y="-58"/>
    </contour>
    <contour>
      <point x="190" y="335" type="curve" smooth="yes"/>
      <point x="190" y="266"/>
      <point x="222" y="220"/>
      <point x="265" y="220" type="curve" smooth="yes"/>
      <point x="311" y="220"/>
      <point x="340" y="265"/>
      <point x="340" y="336" type="curve" smooth="yes"/>
      <point x="340" y="420"/>
      <point x="305" y="456"/>
      <point x="266" y="456" type="curve" smooth="yes"/>
      <point x="226" y="456"/>
      <point x="190" y="420"/>
    </contour>
  </outline>
</glyph>
<glyph name="uni0122" format="1">
  <advance width="726"/>
  <unicode hex="0122"/>
  <outline>
    <contour>
      <point x="41" y="341" type="curve" smooth="yes"/>
      <point x="41" y="479"/>
      <point x="93" y="707"/>
      <point x="413" y="707" type="curve" smooth="yes"/>
      <point x="492" y="707"/>
      <point x="579" y="697"/>
      <point x="642" y="663" type="curve"/>
      <point x="642" y="481" type="line"/>
      <point x="604" y="481" type="line"/>
      <point x="576" y="567"/>
      <point x="529" y="661"/>
      <point x="418" y="661" type="curve" smooth="yes"/>
      <point x="243" y="661"/>
      <point x="218" y="456"/>
      <point x="218" y="354" type="curve" smooth="yes"/>
      <point x="218" y="281"/>
      <point x="228" y="31"/>
      <point x="409" y="31" type="curve" smooth="yes"/>
      <point x="478" y="31"/>
      <point x="492" y="41"/>
      <point x="492" y="76" type="curve" smooth="yes"/>
      <point x="492" y="217" type="line" smooth="yes"/>
      <point x="492" y="266"/>
      <point x="484" y="271"/>
      <point x="406" y="276" type="curve"/>
      <point x="406" y="314" type="line"/>
      <point x="708" y="314" type="line"/>
      <point x="708" y="276" type="line"/>
      <point x="660" y="271"/>
      <point x="652" y="266"/>
      <point x="652" y="219" type="curve" smooth="yes"/>
      <point x="652" y="33" type="line"/>
      <point x="582" y="2"/>
      <point x="485" y="-15"/>
      <point x="409" y="-15" type="curve" smooth="yes"/>
      <point x="343" y="-15"/>
      <point x="249" y="-9"/>
      <point x="176" y="40" type="curve" smooth="yes"/>
      <point x="100" y="91"/>
      <point x="41" y="183"/>
    </contour>
    <contour>
      <point x="337" y="-309" type="line"/>
      <point x="365" y="-278"/>
      <point x="382" y="-255"/>
      <point x="382" y="-217" type="curve" smooth="yes"/>
      <point x="382" y="-188"/>
      <point x="347" y="-167"/>
      <point x="347" y="-133" type="curve" smooth="yes"/>
      <point x="347" y="-103"/>
      <point x="370" y="-75"/>
      <point x="406" y="-75" type="curve" smooth="yes"/>
      <point x="449" y="-75"/>
      <point x="482" y="-106"/>
      <point x="482" y="-160" type="curve" smooth="yes"/>
      <point x="482" y="-232"/>
      <point x="414" y="-287"/>
      <point x="358" y="-330" type="curve"/>
    </contour>
  </outline>
</glyph>
<glyph name="Hcircumflex" format="1">
  <advance width="807"/>
  <unicode hex="0124"/>
  <outline>
    <contour>
      <point x="33" y="0" type="line"/>
      <point x="33" y="38" type="line"/>
      <point x="104" y="41"/>
      <point x="112" y="46"/>
      <point x="112" y="97" type="curve" smooth="yes"/>
      <point x="112" y="595" type="line" smooth="yes"/>
      <point x="112" y="646"/>
      <point x="104" y="651"/>
      <point x="33" y="654" type="curve"/>
      <point x="33" y="692" type="line"/>
      <point x="351" y="692" type="line"/>
      <point x="351" y="654" type="line"/>
      <point x="280" y="651"/>
      <point x="272" y="646"/>
      <point x="272" y="595" type="curve" smooth="yes"/>
      <point x="272" y="389" type="line"/>
      <point x="535" y="389" type="line"/>
      <point x="535" y="595" type="line" smooth="yes"/>
      <point x="535" y="646"/>
      <point x="527" y="651"/>
      <point x="456" y="654" type="curve"/>
      <point x="456" y="692" type="line"/>
      <point x="774" y="692" type="line"/>
      <point x="774" y="654" type="line"/>
      <point x="703" y="651"/>
      <point x="695" y="646"/>
      <point x="695" y="595" type="curve" smooth="yes"/>
      <point x="695" y="97" type="line" smooth="yes"/>
      <point x="695" y="46"/>
      <point x="703" y="41"/>
      <point x="774" y="38" type="curve"/>
      <point x="774" y="0" type="line"/>
      <point x="456" y="0" type="line"/>
      <point x="456" y="38" type="line"/>
      <point x="527" y="41"/>
      <point x="535" y="46"/>
      <point x="535" y="97" type="curve" smooth="yes"/>
      <point x="535" y="341" type="line"/>
      <point x="272" y="341" type="line"/>
      <point x="272" y="97" type="line" smooth="yes"/>
      <point x="272" y="46"/>
      <point x="280" y="41"/>
      <point x="351" y="38" type="curve"/>
      <point x="351" y="0" type="line"/>
    </contour>
    <contour>
      <point x="216" y="755" type="line"/>
      <point x="358" y="881" type="line" smooth="yes"/>
      <point x="374" y="896"/>
      <point x="389" y="905"/>
      <point x="403" y="905" type="curve" smooth="yes"/>
      <point x="418" y="905"/>
      <point x="436" y="895"/>
      <point x="450" y="882" type="curve" smooth="yes"/>
      <point x="592" y="755" type="line"/>
      <point x="574" y="725" type="line"/>
      <point x="443" y="785" type="line" smooth="yes"/>
      <point x="430" y="792"/>
      <point x="415" y="800"/>
      <point x="403" y="800" type="curve" smooth="yes"/>
      <point x="393" y="800"/>
      <point x="379" y="792"/>
      <point x="365" y="785" type="curve" smooth="yes"/>
      <point x="235" y="725" type="line"/>
    </contour>
  </outline>
</glyph>
<glyph name="hcircumflex" format="1">
  <advance width="631"/>
  <unicode hex="0125"/>
  <outline>
    <contour>
      <point x="19" y="0" type="line"/>
      <point x="19" y="38" type="line"/>
      <point x="76" y="41"/>
      <point x="84" y="45"/>
      <point x="84" y="87" type="curve" smooth="yes"/>
      <point x="84" y="621" type="line" smooth="yes"/>
      <point x="84" y="661"/>
      <point x="76" y="670"/>
      <point x="60" y="673" type="curve" smooth="yes"/>
      <point x="25" y="679" type="line"/>
      <point x="25" y="715" type="line"/>
      <point x="228" y="742" type="line"/>
      <point x="235" y="736" type="line"/>
      <point x="235" y="433" type="line"/>
      <point x="297" y="472"/>
      <point x="344" y="502"/>
      <point x="404" y="502" type="curve" smooth="yes"/>
      <point x="509" y="502"/>
      <point x="557" y="441"/>
      <point x="557" y="347" type="curve" smooth="yes"/>
      <point x="557" y="87" type="line" smooth="yes"/>
      <point x="557" y="45"/>
      <point x="565" y="41"/>
      <point x="622" y="38" type="curve"/>
      <point x="622" y="0" type="line"/>
      <point x="353" y="0" type="line"/>
      <point x="353" y="38" type="line"/>
      <point x="374" y="40" type="line" smooth="yes"/>
      <point x="395" y="42"/>
      <point x="406" y="47"/>
      <point x="406" y="80" type="curve" smooth="yes"/>
      <point x="406" y="332" type="line" smooth="yes"/>
      <point x="406" y="392"/>
      <point x="378" y="425"/>
      <point x="327" y="425" type="curve" smooth="yes"/>
      <point x="285" y="425"/>
      <point x="258" y="402"/>
      <point x="245" y="376" type="curve" smooth="yes"/>
      <point x="238" y="362"/>
      <point x="235" y="339"/>
      <point x="235" y="317" type="curve" smooth="yes"/>
      <point x="235" y="80" type="line" smooth="yes"/>
      <point x="235" y="47"/>
      <point x="246" y="42"/>
      <point x="267" y="40" type="curve" smooth="yes"/>
      <point x="288" y="38" type="line"/>
      <point x="288" y="0" type="line"/>
    </contour>
    <contour>
      <point x="133" y="787" type="line"/>
      <point x="276" y="956" type="line" smooth="yes"/>
      <point x="291" y="974"/>
      <point x="306" y="987"/>
      <point x="320" y="987" type="curve" smooth="yes"/>
      <point x="334" y="987"/>
      <point x="349" y="973"/>
      <point x="364" y="956" type="curve" smooth="yes"/>
      <point x="507" y="787" type="line"/>
      <point x="483" y="760" type="line"/>
      <point x="358" y="854" type="line" smooth="yes"/>
      <point x="344" y="864"/>
      <point x="331" y="873"/>
      <point x="320" y="873" type="curve" smooth="yes"/>
      <point x="310" y="873"/>
      <point x="296" y="864"/>
      <point x="282" y="854" type="curve" smooth="yes"/>
      <point x="157" y="760" type="line"/>
    </contour>
  </outline>
</glyph>
<glyph name="Idotaccent" format="1">
  <advance width="384"/>
  <unicode hex="0130"/>
  <outline>
    <contour>
      <point x="33" y="0" type="line"/>
      <point x="33" y="38" type="line"/>
      <point x="104" y="41"/>
      <point x="112" y="46"/>
      <point x="112" y="97" type="curve" smooth="yes"/>
      <point x="112" y="595" type="line" smooth="yes"/>
      <point x="112" y="646"/>
      <point x="104" y="651"/>
      <point x="33" y="654" type="curve"/>
      <point x="33" y="692" type="line"/>
      <point x="351" y="692" type="line"/>
      <point x="351" y="654" type="line"/>
      <point x="280" y="651"/>
      <point x="272" y="646"/>
      <point x="272" y="595" type="curve" smooth="yes"/>
      <point x="272" y="97" type="line" smooth="yes"/>
      <point x="272" y="46"/>
      <point x="280" y="41"/>
      <point x="351" y="38" type="curve"/>
      <point x="351" y="0" type="line"/>
    </contour>
    <contour>
      <point x="113" y="806" type="curve" smooth="yes"/>
      <point x="113" y="844"/>
      <point x="141" y="881"/>
      <point x="192" y="881" type="curve" smooth="yes"/>
      <point x="243" y="881"/>
      <point x="271" y="844"/>
      <point x="271" y="806" type="curve" smooth="yes"/>
      <point x="271" y="768"/>
      <point x="243" y="731"/>
      <point x="192" y="731" type="curve" smooth="yes"/>
      <point x="141" y="731"/>
      <point x="113" y="768"/>
    </contour>
  </outline>
</glyph>
<glyph name="Jcircumflex" format="1">
  <advance width="386"/>
  <unicode hex="0134"/>
  <outline>
    <contour>
      <point x="6" y="-83" type="line"/>
      <point x="41" y="-72"/>
      <point x="62" y="-60"/>
      <point x="83" y="-36" type="curve" smooth="yes"/>
      <point x="106" y="-10"/>
      <point x="122" y="50"/>
      <point x="122" y="146" type="curve" smooth="yes"/>
      <point x="122" y="595" type="line" smooth="yes"/>
      <point x="122" y="646"/>
      <point x="114" y="651"/>
      <point x="43" y="654" type="curve"/>
      <point x="43" y="692" type="line"/>
      <point x="361" y="692" type="line"/>
      <point x="361" y="654" type="line"/>
      <point x="290" y="651"/>
      <point x="282" y="646"/>
      <point x="282" y="595" type="curve" smooth="yes"/>
      <point x="282" y="143" type="line" smooth="yes"/>
      <point x="282" y="30"/>
      <point x="255" y="-44"/>
      <point x="178" y="-81" type="curve" smooth="yes"/>
      <point x="127" y="-105"/>
      <point x="68" y="-115"/>
      <point x="12" y="-114" type="curve"/>
    </contour>
    <contour>
      <point x="14" y="755" type="line"/>
      <point x="156" y="881" type="line" smooth="yes"/>
      <point x="172" y="896"/>
      <point x="187" y="905"/>
      <point x="201" y="905" type="curve" smooth="yes"/>
      <point x="216" y="905"/>
      <point x="234" y="895"/>
      <point x="248" y="882" type="curve" smooth="yes"/>
      <point x="390" y="755" type="line"/>
      <point x="372" y="725" type="line"/>
      <point x="241" y="785" type="line" smooth="yes"/>
      <point x="228" y="792"/>
      <point x="213" y="800"/>
      <point x="201" y="800" type="curve" smooth="yes"/>
      <point x="191" y="800"/>
      <point x="177" y="792"/>
      <point x="163" y="785" type="curve" smooth="yes"/>
      <point x="33" y="725" type="line"/>
    </contour>
  </outline>
</glyph>
<glyph name="jcircumflex" format="1">
  <advance width="316"/>
  <unicode hex="0135"/>
  <outline>
    <contour>
      <point x="-13" y="547" type="line"/>
      <point x="130" y="716" type="line" smooth="yes"/>
      <point x="145" y="734"/>
      <point x="160" y="747"/>
      <point x="174" y="747" type="curve" smooth="yes"/>
      <point x="188" y="747"/>
      <point x="203" y="733"/>
      <point x="218" y="716" type="curve" smooth="yes"/>
      <point x="361" y="547" type="line"/>
      <point x="337" y="520" type="line"/>
      <point x="212" y="614" type="line" smooth="yes"/>
      <point x="198" y="624"/>
      <point x="185" y="633"/>
      <point x="174" y="633" type="curve" smooth="yes"/>
      <point x="164" y="633"/>
      <point x="150" y="624"/>
      <point x="136" y="614" type="curve" smooth="yes"/>
      <point x="11" y="520" type="line"/>
    </contour>
    <contour>
      <point x="-12" y="-201" type="line"/>
      <point x="15" y="-192"/>
      <point x="40" y="-181"/>
      <point x="60" y="-156" type="curve" smooth="yes"/>
      <point x="82" y="-128"/>
      <point x="98" y="-69"/>
      <point x="98" y="31" type="curve" smooth="yes"/>
      <point x="98" y="381" type="line" smooth="yes"/>
      <point x="98" y="421"/>
      <point x="90" y="430"/>
      <point x="74" y="432" type="curve" smooth="yes"/>
      <point x="39" y="437" type="line"/>
      <point x="39" y="473" type="line"/>
      <point x="242" y="502" type="line"/>
      <point x="249" y="496" type="line"/>
      <point x="249" y="25" type="line" smooth="yes"/>
      <point x="249" y="-84"/>
      <point x="227" y="-162"/>
      <point x="158" y="-198" type="curve" smooth="yes"/>
      <point x="108" y="-224"/>
      <point x="51" y="-232"/>
      <point x="-8" y="-232" type="curve"/>
    </contour>
  </outline>
</glyph>
<glyph name="uni0137" format="1">
  <advance width="582"/>
  <unicode hex="0137"/>
  <outline>
    <contour>
      <point x="18" y="0" type="line"/>
      <point x="18" y="38" type="line"/>
      <point x="75" y="41"/>
      <point x="83" y="45"/>
      <point x="83" y="87" type="curve" smooth="yes"/>
      <point x="83" y="621" type="line" smooth="yes"/>
      <point x="83" y="661"/>
      <point x="75" y="670"/>
      <point x="59" y="673" type="curve" smooth="yes"/>
      <point x="24" y="679" type="line"/>
      <point x="24" y="715" type="line"/>
      <point x="227" y="742" type="line"/>
      <point x="234" y="736" type="line"/>
      <point x="234" y="272" type="line"/>
      <point x="236" y="272" type="line"/>
      <point x="308" y="374" type="line" smooth="yes"/>
      <point x="331" y="406"/>
      <point x="351" y="435"/>
      <point x="370" y="460" type="curve" smooth="yes"/>
      <point x="388" y="482"/>
      <point x="407" y="490"/>
      <point x="429" y="490" type="curve" smooth="yes"/>
      <point x="574" y="490" type="line"/>
      <point x="574" y="458" type="line"/>
      <point x="490" y="440"/>
      <point x="429" y="396"/>
      <point x="376" y="345" type="curve" smooth="yes"/>
      <point x="354" y="323" type="line"/>
      <point x="407" y="239"/>
      <point x="463" y="161"/>
      <point x="530" y="86" type="curve" smooth="yes"/>
      <point x="560" y="52"/>
      <point x="573" y="40"/>
      <point x="594" y="32" type="curve"/>
      <point x="594" y="0" type="line"/>
      <point x="504" y="0" type="line" smooth="yes"/>
      <point x="431" y="0"/>
      <point x="391" y="13"/>
      <point x="356" y="59" type="curve" smooth="yes"/>
      <point x="310" y="120"/>
      <point x="270" y="188"/>
      <point x="236" y="254" type="curve"/>
      <point x="234" y="254" type="line"/>
      <point x="234" y="87" type="line" smooth="yes"/>
      <point x="234" y="45"/>
      <point x="242" y="41"/>
      <point x="299" y="38" type="curve"/>
      <point x="299" y="0" type="line"/>
    </contour>
    <contour>
      <point x="234" y="-294" type="line"/>
      <point x="262" y="-263"/>
      <point x="279" y="-240"/>
      <point x="279" y="-202" type="curve" smooth="yes"/>
      <point x="279" y="-173"/>
      <point x="244" y="-152"/>
      <point x="244" y="-118" type="curve" smooth="yes"/>
      <point x="244" y="-88"/>
      <point x="267" y="-60"/>
      <point x="303" y="-60" type="curve" smooth="yes"/>
      <point x="346" y="-60"/>
      <point x="379" y="-91"/>
      <point x="379" y="-145" type="curve" smooth="yes"/>
      <point x="379" y="-217"/>
      <point x="311" y="-272"/>
      <point x="255" y="-315" type="curve"/>
    </contour>
  </outline>
</glyph>
<glyph name="kgreenlandic" format="1">
  <advance width="692"/>
  <unicode hex="0138"/>
  <outline>
    <contour>
      <point x="44" y="443" type="line"/>
      <point x="44" y="479" type="line"/>
      <point x="246" y="506" type="line"/>
      <point x="253" y="500" type="line"/>
      <point x="253" y="278" type="line"/>
      <point x="312" y="372"/>
      <point x="387" y="493"/>
      <point x="469" y="493" type="curve" smooth="yes"/>
      <point x="625" y="493" type="line"/>
      <point x="625" y="455" type="line"/>
      <point x="532" y="437"/>
      <point x="449" y="389"/>
      <point x="369" y="310" type="curve"/>
      <point x="438" y="218"/>
      <point x="523" y="104"/>
      <point x="646" y="32" type="curve"/>
      <point x="646" y="-7" type="line"/>
      <point x="546" y="-7" type="line" smooth="yes"/>
      <point x="369" y="-7"/>
      <point x="310" y="145"/>
      <point x="253" y="237" type="curve"/>
      <point x="253" y="0" type="line"/>
      <point x="102" y="0" type="line"/>
      <point x="102" y="375" type="line" smooth="yes"/>
      <point x="102" y="415"/>
      <point x="94" y="434"/>
      <point x="78" y="437" type="curve" smooth="yes"/>
    </contour>
  </outline>
</glyph>
<glyph name="Lacute" format="1">
  <advance width="585"/>
  <unicode hex="0139"/>
  <outline>
    <contour>
      <point x="33" y="0" type="line"/>
      <point x="33" y="38" type="line"/>
      <point x="104" y="41"/>
      <point x="112" y="46"/>
      <point x="112" y="97" type="curve" smooth="yes"/>
      <point x="112" y="595" type="line" smooth="yes"/>
      <point x="112" y="646"/>
      <point x="104" y="651"/>
      <point x="33" y="654" type="curve"/>
      <point x="33" y="692" type="line"/>
      <point x="363" y="692" type="line"/>
      <point x="363" y="654" type="line"/>
      <point x="280" y="651"/>
      <point x="272" y="646"/>
      <point x="272" y="595" type="curve" smooth="yes"/>
      <point x="272" y="119" type="line" smooth="yes"/>
      <point x="272" y="55"/>
      <point x="299" y="46"/>
      <point x="383" y="46" type="curve" smooth="yes"/>
      <point x="497" y="46"/>
      <point x="510" y="101"/>
      <point x="546" y="201" type="curve"/>
      <point x="584" y="201" type="line"/>
      <point x="572" y="0" type="line"/>
    </contour>
    <contour>
      <point x="201" y="751" type="line"/>
      <point x="373" y="874" type="line" smooth="yes"/>
      <point x="404" y="897"/>
      <point x="419" y="904"/>
      <point x="437" y="904" type="curve" smooth="yes"/>
      <point x="469" y="904"/>
      <point x="491" y="860"/>
      <point x="491" y="840" type="curve" smooth="yes"/>
      <point x="491" y="811"/>
      <point x="471" y="800"/>
      <point x="418" y="783" type="curve" smooth="yes"/>
      <point x="215" y="719" type="line"/>
    </contour>
  </outline>
</glyph>
<glyph name="ldot" format="2">
	<unicode hex="0140"/>
	<advance width="589"/>
	<outline>
		<contour>
			<point x="19" y="0" type="line"/>
			<point x="19" y="38" type="line"/>
			<point x="76" y="41"/>
			<point x="84" y="45"/>
			<point x="84" y="87" type="curve" smooth="yes"/>
			<point x="84" y="621" type="line" smooth="yes"/>
			<point x="84" y="661"/>
			<point x="76" y="670"/>
			<point x="60" y="673" type="curve" smooth="yes"/>
			<point x="25" y="679" type="line"/>
			<point x="25" y="715" type="line"/>
			<point x="228" y="742" type="line"/>
			<point x="235" y="736" type="line"/>
			<point x="235" y="87" type="line" smooth="yes"/>
			<point x="235" y="45"/>
			<point x="243" y="41"/>
			<point x="300" y="38" type="curve"/>
			<point x="300" y="0" type="line"/>
		</contour>
		<contour>
			<point x="356" y="249" type="curve" smooth="yes"/>
			<point x="356" y="304"/>
			<point x="394" y="342"/>
			<point x="449" y="342" type="curve" smooth="yes"/>
			<point x="504" y="342"/>
			<point x="542" y="304"/>
			<point x="542" y="249" type="curve" smooth="yes"/>
			<point x="542" y="194"/>
			<point x="504" y="156"/>
			<point x="449" y="156" type="curve" smooth="yes"/>
			<point x="394" y="156"/>
			<point x="356" y="194"/>
		</contour>
	</outline>
</glyph>
<glyph name="Lslash" format="1">
  <advance width="591"/>
  <unicode hex="0141"/>
  <outline>
    <contour>
      <point x="30" y="178" type="line"/>
      <point x="30" y="238" type="line"/>
      <point x="118" y="301" type="line"/>
      <point x="118" y="595" type="line" smooth="yes"/>
      <point x="118" y="646"/>
      <point x="110" y="651"/>
      <point x="39" y="654" type="curve"/>
      <point x="39" y="692" type="line"/>
      <point x="369" y="692" type="line"/>
      <point x="369" y="654" type="line"/>
      <point x="286" y="651"/>
      <point x="278" y="646"/>
      <point x="278" y="595" type="curve" smooth="yes"/>
      <point x="278" y="416" type="line"/>
      <point x="421" y="519" type="line"/>
      <point x="421" y="459" type="line"/>
      <point x="278" y="356" type="line"/>
      <point x="278" y="119" type="line" smooth="yes"/>
      <point x="278" y="55"/>
      <point x="305" y="46"/>
      <point x="389" y="46" type="curve" smooth="yes"/>
      <point x="503" y="46"/>
      <point x="516" y="101"/>
      <point x="552" y="201" type="curve"/>
      <point x="590" y="201" type="line"/>
      <point x="578" y="0" type="line"/>
      <point x="39" y="0" type="line"/>
      <point x="39" y="38" type="line"/>
      <point x="110" y="41"/>
      <point x="118" y="46"/>
      <point x="118" y="97" type="curve" smooth="yes"/>
      <point x="118" y="241" type="line"/>
    </contour>
  </outline>
</glyph>
<glyph name="Ncaron" format="1">
  <advance width="739"/>
  <unicode hex="0147"/>
  <outline>
    <contour>
      <point x="25" y="654" type="curve"/>
      <point x="25" y="692" type="line"/>
      <point x="262" y="692" type="line"/>
      <point x="365" y="533"/>
      <point x="471" y="375"/>
      <point x="577" y="216" type="curve"/>
      <point x="581" y="216" type="line"/>
      <point x="581" y="440" type="line" smooth="yes"/>
      <point x="581" y="522"/>
      <point x="580" y="560"/>
      <point x="576" y="596" type="curve" smooth="yes"/>
      <point x="573" y="631"/>
      <point x="562" y="647"/>
      <point x="534" y="649" type="curve" smooth="yes"/>
      <point x="478" y="654" type="line"/>
      <point x="478" y="692" type="line"/>
      <point x="719" y="692" type="line"/>
      <point x="719" y="654" type="line"/>
      <point x="684" y="649" type="line" smooth="yes"/>
      <point x="661" y="646"/>
      <point x="651" y="631"/>
      <point x="648" y="596" type="curve" smooth="yes"/>
      <point x="644" y="561"/>
      <point x="643" y="522"/>
      <point x="643" y="440" type="curve" smooth="yes"/>
      <point x="643" y="0" type="line"/>
      <point x="533" y="0" type="line"/>
      <point x="414" y="186"/>
      <point x="293" y="372"/>
      <point x="170" y="558" type="curve"/>
      <point x="166" y="558" type="line"/>
      <point x="166" y="252" type="line" smooth="yes"/>
      <point x="166" y="170"/>
      <point x="167" y="132"/>
      <point x="171" y="96" type="curve" smooth="yes"/>
      <point x="174" y="61"/>
      <point x="185" y="45"/>
      <point x="213" y="43" type="curve" smooth="yes"/>
      <point x="269" y="38" type="line"/>
      <point x="269" y="0" type="line"/>
      <point x="28" y="0" type="line"/>
      <point x="28" y="38" type="line"/>
      <point x="63" y="43" type="line" smooth="yes"/>
      <point x="86" y="46"/>
      <point x="96" y="61"/>
      <point x="99" y="96" type="curve" smooth="yes"/>
      <point x="103" y="131"/>
      <point x="104" y="170"/>
      <point x="104" y="252" type="curve" smooth="yes"/>
      <point x="104" y="595" type="line" smooth="yes"/>
      <point x="104" y="646"/>
      <point x="96" y="651"/>
    </contour>
    <contour>
      <point x="186" y="886" type="line"/>
      <point x="205" y="916" type="line"/>
      <point x="335" y="856" type="line" smooth="yes"/>
      <point x="349" y="849"/>
      <point x="363" y="841"/>
      <point x="373" y="841" type="curve" smooth="yes"/>
      <point x="385" y="841"/>
      <point x="400" y="849"/>
      <point x="413" y="856" type="curve" smooth="yes"/>
      <point x="544" y="916" type="line"/>
      <point x="562" y="886" type="line"/>
      <point x="420" y="759" type="line" smooth="yes"/>
      <point x="406" y="746"/>
      <point x="388" y="736"/>
      <point x="373" y="736" type="curve" smooth="yes"/>
      <point x="359" y="736"/>
      <point x="344" y="745"/>
      <point x="328" y="760" type="curve" smooth="yes"/>
    </contour>
  </outline>
</glyph>
<glyph name="eng" format="1">
  <advance width="630"/>
  <unicode hex="014B"/>
  <outline>
    <contour>
      <point x="26" y="0" type="line"/>
      <point x="26" y="38" type="line"/>
      <point x="83" y="41"/>
      <point x="91" y="45"/>
      <point x="91" y="87" type="curve" smooth="yes"/>
      <point x="91" y="381" type="line" smooth="yes"/>
      <point x="91" y="421"/>
      <point x="83" y="430"/>
      <point x="67" y="432" type="curve" smooth="yes"/>
      <point x="32" y="437" type="line"/>
      <point x="32" y="473" type="line"/>
      <point x="229" y="502" type="line"/>
      <point x="242" y="433" type="line"/>
      <point x="308" y="472"/>
      <point x="355" y="502"/>
      <point x="413" y="502" type="curve" smooth="yes"/>
      <point x="518" y="502"/>
      <point x="564" y="440"/>
      <point x="564" y="348" type="curve" smooth="yes"/>
      <point x="564" y="-33" type="line" smooth="yes"/>
      <point x="564" y="-170"/>
      <point x="495" y="-242"/>
      <point x="388" y="-242" type="curve" smooth="yes"/>
      <point x="274" y="-242"/>
      <point x="240" y="-193"/>
      <point x="240" y="-160" type="curve" smooth="yes"/>
      <point x="240" y="-130"/>
      <point x="275" y="-98"/>
      <point x="312" y="-98" type="curve" smooth="yes"/>
      <point x="361" y="-98"/>
      <point x="381" y="-196"/>
      <point x="413" y="-196" type="curve" smooth="yes"/>
      <point x="425" y="-196"/>
      <point x="435" y="-185"/>
      <point x="435" y="-159" type="curve" smooth="yes"/>
      <point x="435" y="-122"/>
      <point x="413" y="-38"/>
      <point x="413" y="10" type="curve" smooth="yes"/>
      <point x="413" y="334" type="line" smooth="yes"/>
      <point x="413" y="390"/>
      <point x="385" y="425"/>
      <point x="334" y="425" type="curve" smooth="yes"/>
      <point x="299" y="425"/>
      <point x="242" y="409"/>
      <point x="242" y="317" type="curve" smooth="yes"/>
      <point x="242" y="80" type="line" smooth="yes"/>
      <point x="242" y="47"/>
      <point x="253" y="42"/>
      <point x="274" y="40" type="curve" smooth="yes"/>
      <point x="295" y="38" type="line"/>
      <point x="295" y="0" type="line"/>
    </contour>
  </outline>
</glyph>
<glyph name="omacron" format="1">
  <advance width="585"/>
  <unicode hex="014D"/>
  <outline>
    <contour>
      <point x="34" y="245" type="curve" smooth="yes"/>
      <point x="34" y="405"/>
      <point x="111" y="502"/>
      <point x="293" y="502" type="curve" smooth="yes"/>
      <point x="475" y="502"/>
      <point x="552" y="405"/>
      <point x="552" y="245" type="curve" smooth="yes"/>
      <point x="552" y="85"/>
      <point x="475" y="-12"/>
      <point x="293" y="-12" type="curve" smooth="yes"/>
      <point x="111" y="-12"/>
      <point x="34" y="85"/>
    </contour>
    <contour>
      <point x="137" y="587" type="line"/>
      <point x="137" y="674" type="line"/>
      <point x="448" y="674" type="line"/>
      <point x="448" y="587" type="line"/>
    </contour>
    <contour>
      <point x="193" y="245" type="curve" smooth="yes"/>
      <point x="193" y="111"/>
      <point x="222" y="34"/>
      <point x="293" y="34" type="curve" smooth="yes"/>
      <point x="364" y="34"/>
      <point x="393" y="111"/>
      <point x="393" y="245" type="curve" smooth="yes"/>
      <point x="393" y="379"/>
      <point x="364" y="456"/>
      <point x="293" y="456" type="curve" smooth="yes"/>
      <point x="222" y="456"/>
      <point x="193" y="379"/>
    </contour>
  </outline>
</glyph>
<glyph name="Ohungarumlaut" format="1">
  <advance width="768"/>
  <unicode hex="0150"/>
  <outline>
    <contour>
      <point x="42" y="346" type="curve" smooth="yes"/>
      <point x="42" y="572"/>
      <point x="154" y="707"/>
      <point x="384" y="707" type="curve" smooth="yes"/>
      <point x="614" y="707"/>
      <point x="726" y="572"/>
      <point x="726" y="346" type="curve" smooth="yes"/>
      <point x="726" y="120"/>
      <point x="614" y="-15"/>
      <point x="384" y="-15" type="curve" smooth="yes"/>
      <point x="154" y="-15"/>
      <point x="42" y="120"/>
    </contour>
    <contour>
      <point x="219" y="346" type="curve" smooth="yes"/>
      <point x="219" y="225"/>
      <point x="239" y="31"/>
      <point x="384" y="31" type="curve" smooth="yes"/>
      <point x="531" y="31"/>
      <point x="549" y="225"/>
      <point x="549" y="346" type="curve" smooth="yes"/>
      <point x="549" y="467"/>
      <point x="531" y="661"/>
      <point x="384" y="661" type="curve" smooth="yes"/>
      <point x="237" y="661"/>
      <point x="219" y="467"/>
    </contour>
    <contour>
      <point x="241" y="758" type="line"/>
      <point x="346" y="873" type="line" smooth="yes"/>
      <point x="362" y="890"/>
      <point x="378" y="907"/>
      <point x="396" y="907" type="curve" smooth="yes"/>
      <point x="424" y="907"/>
      <point x="455" y="862"/>
      <point x="455" y="839" type="curve" smooth="yes"/>
      <point x="455" y="821"/>
      <point x="441" y="809"/>
      <point x="407" y="791" type="curve" smooth="yes"/>
      <point x="270" y="719" type="line"/>
    </contour>
    <contour>
      <point x="449" y="758" type="line"/>
      <point x="554" y="873" type="line" smooth="yes"/>
      <point x="570" y="890"/>
      <point x="586" y="907"/>
      <point x="604" y="907" type="curve" smooth="yes"/>
      <point x="632" y="907"/>
      <point x="663" y="862"/>
      <point x="663" y="839" type="curve" smooth="yes"/>
      <point x="663" y="821"/>
      <point x="649" y="809"/>
      <point x="615" y="791" type="curve" smooth="yes"/>
      <point x="478" y="719" type="line"/>
    </contour>
  </outline>
</glyph>
<glyph name="ohungarumlaut" format="1">
  <advance width="585"/>
  <unicode hex="0151"/>
  <outline>
    <contour>
      <point x="34" y="245" type="curve" smooth="yes"/>
      <point x="34" y="405"/>
      <point x="111" y="502"/>
      <point x="293" y="502" type="curve" smooth="yes"/>
      <point x="475" y="502"/>
      <point x="552" y="405"/>
      <point x="552" y="245" type="curve" smooth="yes"/>
      <point x="552" y="85"/>
      <point x="475" y="-12"/>
      <point x="293" y="-12" type="curve" smooth="yes"/>
      <point x="111" y="-12"/>
      <point x="34" y="85"/>
    </contour>
    <contour>
      <point x="163" y="540" type="line"/>
      <point x="226" y="698" type="line" smooth="yes"/>
      <point x="238" y="728"/>
      <point x="251" y="751"/>
      <point x="278" y="751" type="curve" smooth="yes"/>
      <point x="303" y="751"/>
      <point x="340" y="728"/>
      <point x="340" y="704" type="curve" smooth="yes"/>
      <point x="340" y="687"/>
      <point x="329" y="666"/>
      <point x="304" y="638" type="curve" smooth="yes"/>
      <point x="195" y="521" type="line"/>
    </contour>
    <contour>
      <point x="193" y="245" type="curve" smooth="yes"/>
      <point x="193" y="111"/>
      <point x="222" y="34"/>
      <point x="293" y="34" type="curve" smooth="yes"/>
      <point x="364" y="34"/>
      <point x="393" y="111"/>
      <point x="393" y="245" type="curve" smooth="yes"/>
      <point x="393" y="379"/>
      <point x="364" y="456"/>
      <point x="293" y="456" type="curve" smooth="yes"/>
      <point x="222" y="456"/>
      <point x="193" y="379"/>
    </contour>
    <contour>
      <point x="368" y="540" type="line"/>
      <point x="431" y="698" type="line" smooth="yes"/>
      <point x="443" y="728"/>
      <point x="456" y="751"/>
      <point x="483" y="751" type="curve" smooth="yes"/>
      <point x="508" y="751"/>
      <point x="545" y="728"/>
      <point x="545" y="704" type="curve" smooth="yes"/>
      <point x="545" y="687"/>
      <point x="534" y="666"/>
      <point x="509" y="638" type="curve" smooth="yes"/>
      <point x="400" y="521" type="line"/>
    </contour>
  </outline>
</glyph>
<glyph name="OE" format="1">
  <advance width="1049"/>
  <unicode hex="0152"/>
  <outline>
    <contour>
      <point x="42" y="338" type="curve" smooth="yes"/>
      <point x="42" y="476"/>
      <point x="93" y="569"/>
      <point x="166" y="622" type="curve" smooth="yes"/>
      <point x="237" y="673"/>
      <point x="338" y="692"/>
      <point x="465" y="692" type="curve" smooth="yes"/>
      <point x="992" y="692" type="line"/>
      <point x="992" y="507" type="line"/>
      <point x="954" y="507" type="line"/>
      <point x="923" y="606"/>
      <point x="905" y="646"/>
      <point x="802" y="646" type="curve" smooth="yes"/>
      <point x="727" y="646" type="line" smooth="yes"/>
      <point x="699" y="646"/>
      <point x="692" y="639"/>
      <point x="692" y="610" type="curve" smooth="yes"/>
      <point x="692" y="389" type="line"/>
      <point x="787" y="389" type="line" smooth="yes"/>
      <point x="850" y="389"/>
      <point x="863" y="406"/>
      <point x="879" y="479" type="curve"/>
      <point x="917" y="479" type="line"/>
      <point x="917" y="247" type="line"/>
      <point x="879" y="247" type="line"/>
      <point x="863" y="320"/>
      <point x="850" y="337"/>
      <point x="787" y="337" type="curve" smooth="yes"/>
      <point x="692" y="337" type="line"/>
      <point x="692" y="119" type="line" smooth="yes"/>
      <point x="692" y="55"/>
      <point x="723" y="46"/>
      <point x="815" y="46" type="curve" smooth="yes"/>
      <point x="933" y="46"/>
      <point x="950" y="101"/>
      <point x="986" y="208" type="curve"/>
      <point x="1024" y="208" type="line"/>
      <point x="1012" y="0" type="line"/>
      <point x="460" y="0" type="line" smooth="yes"/>
      <point x="336" y="0"/>
      <point x="240" y="14"/>
      <point x="166" y="65" type="curve" smooth="yes"/>
      <point x="94" y="115"/>
      <point x="42" y="207"/>
    </contour>
    <contour>
      <point x="214" y="346" type="curve" smooth="yes"/>
      <point x="214" y="207"/>
      <point x="266" y="46"/>
      <point x="461" y="46" type="curve" smooth="yes"/>
      <point x="499" y="46"/>
      <point x="532" y="55"/>
      <point x="532" y="93" type="curve" smooth="yes"/>
      <point x="532" y="595" type="line" smooth="yes"/>
      <point x="532" y="639"/>
      <point x="510" y="646"/>
      <point x="459" y="646" type="curve" smooth="yes"/>
      <point x="256" y="646"/>
      <point x="214" y="485"/>
    </contour>
  </outline>
</glyph>
<glyph name="racute" format="1">
  <advance width="440"/>
  <unicode hex="0155"/>
  <outline>
    <contour>
      <point x="26" y="0" type="line"/>
      <point x="26" y="38" type="line"/>
      <point x="83" y="41"/>
      <point x="91" y="45"/>
      <point x="91" y="87" type="curve" smooth="yes"/>
      <point x="91" y="381" type="line" smooth="yes"/>
      <point x="91" y="421"/>
      <point x="83" y="430"/>
      <point x="67" y="432" type="curve" smooth="yes"/>
      <point x="32" y="437" type="line"/>
      <point x="32" y="473" type="line"/>
      <point x="227" y="502" type="line"/>
      <point x="239" y="414" type="line"/>
      <point x="297" y="475"/>
      <point x="330" y="502"/>
      <point x="372" y="502" type="curve" smooth="yes"/>
      <point x="414" y="502"/>
      <point x="442" y="475"/>
      <point x="442" y="432" type="curve" smooth="yes"/>
      <point x="442" y="410"/>
      <point x="437" y="390"/>
      <point x="426" y="375" type="curve" smooth="yes"/>
      <point x="415" y="360"/>
      <point x="395" y="349"/>
      <point x="375" y="349" type="curve" smooth="yes"/>
      <point x="356" y="349"/>
      <point x="342" y="357"/>
      <point x="329" y="365" type="curve" smooth="yes"/>
      <point x="307" y="378"/>
      <point x="292" y="386"/>
      <point x="276" y="386" type="curve" smooth="yes"/>
      <point x="252" y="386"/>
      <point x="242" y="363"/>
      <point x="242" y="311" type="curve" smooth="yes"/>
      <point x="242" y="87" type="line" smooth="yes"/>
      <point x="242" y="45"/>
      <point x="251" y="42"/>
      <point x="328" y="38" type="curve"/>
      <point x="328" y="0" type="line"/>
    </contour>
    <contour>
      <point x="183" y="541" type="line"/>
      <point x="328" y="690" type="line" smooth="yes"/>
      <point x="365" y="728"/>
      <point x="382" y="740"/>
      <point x="402" y="740" type="curve" smooth="yes"/>
      <point x="426" y="740"/>
      <point x="455" y="705"/>
      <point x="455" y="680" type="curve" smooth="yes"/>
      <point x="455" y="654"/>
      <point x="423" y="634"/>
      <point x="387" y="614" type="curve" smooth="yes"/>
      <point x="204" y="511" type="line"/>
    </contour>
  </outline>
</glyph>
<glyph name="uni0156" format="1">
  <advance width="684"/>
  <unicode hex="0156"/>
  <outline>
    <contour>
      <point x="33" y="0" type="line"/>
      <point x="33" y="38" type="line"/>
      <point x="104" y="41"/>
      <point x="112" y="46"/>
      <point x="112" y="97" type="curve" smooth="yes"/>
      <point x="112" y="595" type="line" smooth="yes"/>
      <point x="112" y="646"/>
      <point x="104" y="651"/>
      <point x="33" y="654" type="curve"/>
      <point x="33" y="692" type="line"/>
      <point x="380" y="692" type="line" smooth="yes"/>
      <point x="478" y="692"/>
      <point x="535" y="673"/>
      <point x="573" y="640" type="curve" smooth="yes"/>
      <point x="609" y="607"/>
      <point x="623" y="564"/>
      <point x="623" y="513" type="curve" smooth="yes"/>
      <point x="623" y="426"/>
      <point x="553" y="361"/>
      <point x="454" y="348" type="curve"/>
      <point x="454" y="346" type="line"/>
      <point x="557" y="320"/>
      <point x="576" y="254"/>
      <point x="590" y="174" type="curve" smooth="yes"/>
      <point x="599" y="122"/>
      <point x="614" y="85"/>
      <point x="639" y="60" type="curve" smooth="yes"/>
      <point x="651" y="48"/>
      <point x="668" y="39"/>
      <point x="686" y="38" type="curve"/>
      <point x="686" y="0" type="line"/>
      <point x="612" y="0" type="line" smooth="yes"/>
      <point x="507" y="0"/>
      <point x="464" y="26"/>
      <point x="440" y="100" type="curve" smooth="yes"/>
      <point x="424" y="151"/>
      <point x="416" y="205"/>
      <point x="408" y="240" type="curve" smooth="yes"/>
      <point x="396" y="294"/>
      <point x="368" y="318"/>
      <point x="318" y="318" type="curve" smooth="yes"/>
      <point x="272" y="318" type="line"/>
      <point x="272" y="97" type="line" smooth="yes"/>
      <point x="272" y="46"/>
      <point x="280" y="41"/>
      <point x="351" y="38" type="curve"/>
      <point x="351" y="0" type="line"/>
    </contour>
    <contour>
      <point x="272" y="364" type="line"/>
      <point x="322" y="364" type="line" smooth="yes"/>
      <point x="423" y="364"/>
      <point x="455" y="424"/>
      <point x="455" y="507" type="curve" smooth="yes"/>
      <point x="455" y="609"/>
      <point x="404" y="646"/>
      <point x="336" y="646" type="curve" smooth="yes"/>
      <point x="281" y="646"/>
      <point x="272" y="634"/>
      <point x="272" y="607" type="curve" smooth="yes"/>
    </contour>
    <contour>
      <point x="287" y="-294" type="line"/>
      <point x="315" y="-263"/>
      <point x="332" y="-240"/>
      <point x="332" y="-202" type="curve" smooth="yes"/>
      <point x="332" y="-173"/>
      <point x="297" y="-152"/>
      <point x="297" y="-118" type="curve" smooth="yes"/>
      <point x="297" y="-88"/>
      <point x="320" y="-60"/>
      <point x="356" y="-60" type="curve" smooth="yes"/>
      <point x="399" y="-60"/>
      <point x="432" y="-91"/>
      <point x="432" y="-145" type="curve" smooth="yes"/>
      <point x="432" y="-217"/>
      <point x="364" y="-272"/>
      <point x="308" y="-315" type="curve"/>
    </contour>
  </outline>
</glyph>
<glyph name="Rcaron" format="1">
  <advance width="684"/>
  <unicode hex="0158"/>
  <outline>
    <contour>
      <point x="33" y="0" type="line"/>
      <point x="33" y="38" type="line"/>
      <point x="104" y="41"/>
      <point x="112" y="46"/>
      <point x="112" y="97" type="curve" smooth="yes"/>
      <point x="112" y="595" type="line" smooth="yes"/>
      <point x="112" y="646"/>
      <point x="104" y="651"/>
      <point x="33" y="654" type="curve"/>
      <point x="33" y="692" type="line"/>
      <point x="380" y="692" type="line" smooth="yes"/>
      <point x="478" y="692"/>
      <point x="535" y="673"/>
      <point x="573" y="640" type="curve" smooth="yes"/>
      <point x="609" y="607"/>
      <point x="623" y="564"/>
      <point x="623" y="513" type="curve" smooth="yes"/>
      <point x="623" y="426"/>
      <point x="553" y="361"/>
      <point x="454" y="348" type="curve"/>
      <point x="454" y="346" type="line"/>
      <point x="557" y="320"/>
      <point x="576" y="254"/>
      <point x="590" y="174" type="curve" smooth="yes"/>
      <point x="599" y="122"/>
      <point x="614" y="85"/>
      <point x="639" y="60" type="curve" smooth="yes"/>
      <point x="651" y="48"/>
      <point x="668" y="39"/>
      <point x="686" y="38" type="curve"/>
      <point x="686" y="0" type="line"/>
      <point x="612" y="0" type="line" smooth="yes"/>
      <point x="507" y="0"/>
      <point x="464" y="26"/>
      <point x="440" y="100" type="curve" smooth="yes"/>
      <point x="424" y="151"/>
      <point x="416" y="205"/>
      <point x="408" y="240" type="curve" smooth="yes"/>
      <point x="396" y="294"/>
      <point x="368" y="318"/>
      <point x="318" y="318" type="curve" smooth="yes"/>
      <point x="272" y="318" type="line"/>
      <point x="272" y="97" type="line" smooth="yes"/>
      <point x="272" y="46"/>
      <point x="280" y="41"/>
      <point x="351" y="38" type="curve"/>
      <point x="351" y="0" type="line"/>
    </contour>
    <contour>
      <point x="126" y="886" type="line"/>
      <point x="145" y="916" type="line"/>
      <point x="275" y="856" type="line" smooth="yes"/>
      <point x="289" y="849"/>
      <point x="303" y="841"/>
      <point x="313" y="841" type="curve" smooth="yes"/>
      <point x="325" y="841"/>
      <point x="340" y="849"/>
      <point x="353" y="856" type="curve" smooth="yes"/>
      <point x="484" y="916" type="line"/>
      <point x="502" y="886" type="line"/>
      <point x="360" y="759" type="line" smooth="yes"/>
      <point x="346" y="746"/>
      <point x="328" y="736"/>
      <point x="313" y="736" type="curve" smooth="yes"/>
      <point x="299" y="736"/>
      <point x="284" y="745"/>
      <point x="268" y="760" type="curve" smooth="yes"/>
    </contour>
    <contour>
      <point x="272" y="364" type="line"/>
      <point x="322" y="364" type="line" smooth="yes"/>
      <point x="423" y="364"/>
      <point x="455" y="424"/>
      <point x="455" y="507" type="curve" smooth="yes"/>
      <point x="455" y="609"/>
      <point x="404" y="646"/>
      <point x="336" y="646" type="curve" smooth="yes"/>
      <point x="281" y="646"/>
      <point x="272" y="634"/>
      <point x="272" y="607" type="curve" smooth="yes"/>
    </contour>
  </outline>
</glyph>
<glyph name="Scaron" format="1">
  <advance width="561"/>
  <unicode hex="0160"/>
  <outline>
    <contour>
      <point x="42" y="226" type="line"/>
      <point x="79" y="226" type="line"/>
      <point x="117" y="101"/>
      <point x="193" y="31"/>
      <point x="269" y="31" type="curve" smooth="yes"/>
      <point x="334" y="31"/>
      <point x="382" y="66"/>
      <point x="383" y="140" type="curve" smooth="yes"/>
      <point x="383" y="204"/>
      <point x="341" y="249"/>
      <point x="250" y="287" type="curve" smooth="yes"/>
      <point x="162" y="324"/>
      <point x="51" y="378"/>
      <point x="51" y="502" type="curve" smooth="yes"/>
      <point x="51" y="620"/>
      <point x="132" y="707"/>
      <point x="300" y="707" type="curve" smooth="yes"/>
      <point x="361" y="707"/>
      <point x="435" y="695"/>
      <point x="487" y="663" type="curve"/>
      <point x="487" y="499" type="line"/>
      <point x="451" y="499" type="line"/>
      <point x="423" y="616"/>
      <point x="363" y="661"/>
      <point x="299" y="661" type="curve" smooth="yes"/>
      <point x="239" y="661"/>
      <point x="195" y="621"/>
      <point x="195" y="559" type="curve" smooth="yes"/>
      <point x="195" y="483"/>
      <point x="278" y="447"/>
      <point x="344" y="420" type="curve" smooth="yes"/>
      <point x="435" y="382"/>
      <point x="533" y="331"/>
      <point x="533" y="199" type="curve" smooth="yes"/>
      <point x="533" y="95"/>
      <point x="473" y="-13"/>
      <point x="273" y="-15" type="curve" smooth="yes"/>
      <point x="207" y="-15"/>
      <point x="108" y="0"/>
      <point x="57" y="47" type="curve"/>
    </contour>
    <contour>
      <point x="93" y="886" type="line"/>
      <point x="112" y="916" type="line"/>
      <point x="242" y="856" type="line" smooth="yes"/>
      <point x="256" y="849"/>
      <point x="270" y="841"/>
      <point x="280" y="841" type="curve" smooth="yes"/>
      <point x="292" y="841"/>
      <point x="307" y="849"/>
      <point x="320" y="856" type="curve" smooth="yes"/>
      <point x="451" y="916" type="line"/>
      <point x="469" y="886" type="line"/>
      <point x="327" y="759" type="line" smooth="yes"/>
      <point x="313" y="746"/>
      <point x="295" y="736"/>
      <point x="280" y="736" type="curve" smooth="yes"/>
      <point x="266" y="736"/>
      <point x="251" y="745"/>
      <point x="235" y="760" type="curve" smooth="yes"/>
    </contour>
  </outline>
</glyph>
<glyph name="uni0162" format="1">
  <advance width="624"/>
  <unicode hex="0162"/>
  <outline>
    <contour>
      <point x="15" y="504" type="line"/>
      <point x="15" y="692" type="line"/>
      <point x="609" y="692" type="line"/>
      <point x="609" y="504" type="line"/>
      <point x="571" y="504" type="line"/>
      <point x="537" y="604"/>
      <point x="524" y="646"/>
      <point x="432" y="646" type="curve" smooth="yes"/>
      <point x="392" y="646" type="line"/>
      <point x="392" y="95" type="line" smooth="yes"/>
      <point x="392" y="59"/>
      <point x="399" y="44"/>
      <point x="431" y="42" type="curve" smooth="yes"/>
      <point x="488" y="38" type="line"/>
      <point x="488" y="0" type="line"/>
      <point x="341" y="0" type="line"/>
      <point x="302" y="-58" type="line"/>
      <point x="333" y="-62"/>
      <point x="401" y="-79"/>
      <point x="401" y="-144" type="curve" smooth="yes"/>
      <point x="401" y="-234"/>
      <point x="297" y="-246"/>
      <point x="250" y="-246" type="curve" smooth="yes"/>
      <point x="231" y="-246"/>
      <point x="219" y="-245"/>
      <point x="202" y="-243" type="curve"/>
      <point x="202" y="-211" type="line"/>
      <point x="258" y="-211"/>
      <point x="296" y="-196"/>
      <point x="296" y="-153" type="curve" smooth="yes"/>
      <point x="296" y="-111"/>
      <point x="252" y="-102"/>
      <point x="230" y="-100" type="curve"/>
      <point x="226" y="-92" type="line"/>
      <point x="283" y="0" type="line"/>
      <point x="136" y="0" type="line"/>
      <point x="136" y="38" type="line"/>
      <point x="193" y="42" type="line" smooth="yes"/>
      <point x="225" y="44"/>
      <point x="232" y="59"/>
      <point x="232" y="95" type="curve" smooth="yes"/>
      <point x="232" y="646" type="line"/>
      <point x="192" y="646" type="line" smooth="yes"/>
      <point x="100" y="646"/>
      <point x="87" y="604"/>
      <point x="53" y="504" type="curve"/>
    </contour>
  </outline>
</glyph>
<glyph name="Tcaron" format="1">
  <advance width="624"/>
  <unicode hex="0164"/>
  <outline>
    <contour>
      <point x="15" y="504" type="line"/>
      <point x="15" y="692" type="line"/>
      <point x="609" y="692" type="line"/>
      <point x="609" y="504" type="line"/>
      <point x="571" y="504" type="line"/>
      <point x="537" y="604"/>
      <point x="524" y="646"/>
      <point x="432" y="646" type="curve" smooth="yes"/>
      <point x="392" y="646" type="line"/>
      <point x="392" y="95" type="line" smooth="yes"/>
      <point x="392" y="59"/>
      <point x="399" y="44"/>
      <point x="431" y="42" type="curve" smooth="yes"/>
      <point x="488" y="38" type="line"/>
      <point x="488" y="0" type="line"/>
      <point x="136" y="0" type="line"/>
      <point x="136" y="38" type="line"/>
      <point x="193" y="42" type="line" smooth="yes"/>
      <point x="225" y="44"/>
      <point x="232" y="59"/>
      <point x="232" y="95" type="curve" smooth="yes"/>
      <point x="232" y="646" type="line"/>
      <point x="192" y="646" type="line" smooth="yes"/>
      <point x="100" y="646"/>
      <point x="87" y="604"/>
      <point x="53" y="504" type="curve"/>
    </contour>
    <contour>
      <point x="124" y="886" type="line"/>
      <point x="143" y="916" type="line"/>
      <point x="273" y="856" type="line" smooth="yes"/>
      <point x="287" y="849"/>
      <point x="301" y="841"/>
      <point x="311" y="841" type="curve" smooth="yes"/>
      <point x="323" y="841"/>
      <point x="338" y="849"/>
      <point x="351" y="856" type="curve" smooth="yes"/>
      <point x="482" y="916" type="line"/>
      <point x="500" y="886" type="line"/>
      <point x="358" y="759" type="line" smooth="yes"/>
      <point x="344" y="746"/>
      <point x="326" y="736"/>
      <point x="311" y="736" type="curve" smooth="yes"/>
      <point x="297" y="736"/>
      <point x="282" y="745"/>
      <point x="266" y="760" type="curve" smooth="yes"/>
    </contour>
  </outline>
</glyph>
<glyph name="utilde" format="1">
  <advance width="629"/>
  <unicode hex="0169"/>
  <outline>
    <contour>
      <point x="23" y="437" type="line"/>
      <point x="23" y="473" type="line"/>
      <point x="226" y="502" type="line"/>
      <point x="233" y="496" type="line"/>
      <point x="233" y="176" type="line" smooth="yes"/>
      <point x="233" y="98"/>
      <point x="264" y="67"/>
      <point x="317" y="67" type="curve" smooth="yes"/>
      <point x="361" y="67"/>
      <point x="387" y="91"/>
      <point x="396" y="114" type="curve" smooth="yes"/>
      <point x="402" y="129"/>
      <point x="404" y="153"/>
      <point x="404" y="170" type="curve" smooth="yes"/>
      <point x="404" y="381" type="line" smooth="yes"/>
      <point x="404" y="421"/>
      <point x="396" y="430"/>
      <point x="380" y="432" type="curve" smooth="yes"/>
      <point x="345" y="437" type="line"/>
      <point x="345" y="473" type="line"/>
      <point x="548" y="502" type="line"/>
      <point x="555" y="496" type="line"/>
      <point x="555" y="87" type="line" smooth="yes"/>
      <point x="555" y="45"/>
      <point x="563" y="41"/>
      <point x="620" y="38" type="curve"/>
      <point x="620" y="0" type="line"/>
      <point x="412" y="0" type="line"/>
      <point x="404" y="56" type="line"/>
      <point x="364" y="34"/>
      <point x="312" y="-12"/>
      <point x="227" y="-12" type="curve" smooth="yes"/>
      <point x="155" y="-12"/>
      <point x="82" y="21"/>
      <point x="82" y="138" type="curve" smooth="yes"/>
      <point x="82" y="381" type="line" smooth="yes"/>
      <point x="82" y="421"/>
      <point x="74" y="430"/>
      <point x="58" y="432" type="curve" smooth="yes"/>
    </contour>
    <contour>
      <point x="106" y="571" type="line"/>
      <point x="124" y="614"/>
      <point x="159" y="693"/>
      <point x="241" y="693" type="curve" smooth="yes"/>
      <point x="269" y="693"/>
      <point x="301" y="683"/>
      <point x="333" y="672" type="curve" smooth="yes"/>
      <point x="366" y="662"/>
      <point x="398" y="651"/>
      <point x="424" y="651" type="curve" smooth="yes"/>
      <point x="461" y="651"/>
      <point x="477" y="667"/>
      <point x="499" y="706" type="curve"/>
      <point x="531" y="688" type="line"/>
      <point x="513" y="645"/>
      <point x="478" y="566"/>
      <point x="396" y="566" type="curve" smooth="yes"/>
      <point x="371" y="566"/>
      <point x="340" y="577"/>
      <point x="308" y="587" type="curve" smooth="yes"/>
      <point x="276" y="598"/>
      <point x="243" y="608"/>
      <point x="213" y="608" type="curve" smooth="yes"/>
      <point x="176" y="608"/>
      <point x="160" y="592"/>
      <point x="138" y="553" type="curve"/>
    </contour>
  </outline>
</glyph>
<glyph name="Umacron" format="1">
  <advance width="786"/>
  <unicode hex="016A"/>
  <outline>
    <contour>
      <point x="29" y="654" type="curve"/>
      <point x="29" y="692" type="line"/>
      <point x="341" y="692" type="line"/>
      <point x="341" y="654" type="line"/>
      <point x="273" y="651"/>
      <point x="265" y="646"/>
      <point x="265" y="595" type="curve" smooth="yes"/>
      <point x="265" y="211" type="line" smooth="yes"/>
      <point x="265" y="97"/>
      <point x="303" y="31"/>
      <point x="393" y="31" type="curve" smooth="yes"/>
      <point x="485" y="31"/>
      <point x="521" y="97"/>
      <point x="521" y="211" type="curve" smooth="yes"/>
      <point x="521" y="595" type="line" smooth="yes"/>
      <point x="521" y="646"/>
      <point x="513" y="651"/>
      <point x="445" y="654" type="curve"/>
      <point x="445" y="692" type="line"/>
      <point x="757" y="692" type="line"/>
      <point x="757" y="654" type="line"/>
      <point x="689" y="651"/>
      <point x="681" y="646"/>
      <point x="681" y="595" type="curve" smooth="yes"/>
      <point x="681" y="225" type="line" smooth="yes"/>
      <point x="679" y="52"/>
      <point x="578" y="-15"/>
      <point x="393" y="-15" type="curve" smooth="yes"/>
      <point x="193" y="-15"/>
      <point x="105" y="52"/>
      <point x="105" y="225" type="curve" smooth="yes"/>
      <point x="105" y="595" type="line" smooth="yes"/>
      <point x="105" y="646"/>
      <point x="97" y="651"/>
    </contour>
    <contour>
      <point x="218" y="765" type="line"/>
      <point x="218" y="852" type="line"/>
      <point x="568" y="852" type="line"/>
      <point x="568" y="765" type="line"/>
    </contour>
  </outline>
</glyph>
<glyph name="Ubreve" format="1">
  <advance width="786"/>
  <unicode hex="016C"/>
  <outline>
    <contour>
      <point x="29" y="654" type="curve"/>
      <point x="29" y="692" type="line"/>
      <point x="341" y="692" type="line"/>
      <point x="341" y="654" type="line"/>
      <point x="273" y="651"/>
      <point x="265" y="646"/>
      <point x="265" y="595" type="curve" smooth="yes"/>
      <point x="265" y="211" type="line" smooth="yes"/>
      <point x="265" y="97"/>
      <point x="303" y="31"/>
      <point x="393" y="31" type="curve" smooth="yes"/>
      <point x="485" y="31"/>
      <point x="521" y="97"/>
      <point x="521" y="211" type="curve" smooth="yes"/>
      <point x="521" y="595" type="line" smooth="yes"/>
      <point x="521" y="646"/>
      <point x="513" y="651"/>
      <point x="445" y="654" type="curve"/>
      <point x="445" y="692" type="line"/>
      <point x="757" y="692" type="line"/>
      <point x="757" y="654" type="line"/>
      <point x="689" y="651"/>
      <point x="681" y="646"/>
      <point x="681" y="595" type="curve" smooth="yes"/>
      <point x="681" y="225" type="line" smooth="yes"/>
      <point x="679" y="52"/>
      <point x="578" y="-15"/>
      <point x="393" y="-15" type="curve" smooth="yes"/>
      <point x="193" y="-15"/>
      <point x="105" y="52"/>
      <point x="105" y="225" type="curve" smooth="yes"/>
      <point x="105" y="595" type="line" smooth="yes"/>
      <point x="105" y="646"/>
      <point x="97" y="651"/>
    </contour>
    <contour>
      <point x="228" y="896" type="curve"/>
      <point x="269" y="896" type="line"/>
      <point x="271" y="872"/>
      <point x="294" y="827"/>
      <point x="393" y="827" type="curve" smooth="yes"/>
      <point x="492" y="827"/>
      <point x="515" y="872"/>
      <point x="517" y="896" type="curve"/>
      <point x="558" y="896" type="line"/>
      <point x="558" y="822"/>
      <point x="532" y="746"/>
      <point x="393" y="746" type="curve" smooth="yes"/>
      <point x="254" y="746"/>
      <point x="228" y="822"/>
    </contour>
  </outline>
</glyph>
<glyph name="ycircumflex" format="1">
  <advance width="524"/>
  <unicode hex="0177"/>
  <outline>
    <contour>
      <point x="-12" y="452" type="line"/>
      <point x="-12" y="490" type="line"/>
      <point x="268" y="490" type="line"/>
      <point x="268" y="452" type="line"/>
      <point x="230" y="446" type="line" smooth="yes"/>
      <point x="214" y="444"/>
      <point x="211" y="433"/>
      <point x="218" y="413" type="curve" smooth="yes"/>
      <point x="249" y="319"/>
      <point x="286" y="226"/>
      <point x="319" y="134" type="curve"/>
      <point x="321" y="134" type="line"/>
      <point x="352" y="228"/>
      <point x="384" y="321"/>
      <point x="412" y="416" type="curve" smooth="yes"/>
      <point x="417" y="435"/>
      <point x="411" y="444"/>
      <point x="397" y="446" type="curve" smooth="yes"/>
      <point x="356" y="452" type="line"/>
      <point x="356" y="490" type="line"/>
      <point x="557" y="490" type="line"/>
      <point x="557" y="452" type="line"/>
      <point x="536" y="450" type="line" smooth="yes"/>
      <point x="508" y="447"/>
      <point x="497" y="428"/>
      <point x="479" y="385" type="curve" smooth="yes"/>
      <point x="420" y="242"/>
      <point x="360" y="95"/>
      <point x="302" y="-60" type="curve" smooth="yes"/>
      <point x="248" y="-204"/>
      <point x="202" y="-242"/>
      <point x="133" y="-242" type="curve" smooth="yes"/>
      <point x="95" y="-242"/>
      <point x="52" y="-218"/>
      <point x="52" y="-179" type="curve" smooth="yes"/>
      <point x="52" y="-141"/>
      <point x="84" y="-98"/>
      <point x="116" y="-98" type="curve" smooth="yes"/>
      <point x="133" y="-98"/>
      <point x="142" y="-105"/>
      <point x="161" y="-119" type="curve" smooth="yes"/>
      <point x="173" y="-129"/>
      <point x="186" y="-134"/>
      <point x="197" y="-134" type="curve" smooth="yes"/>
      <point x="221" y="-134"/>
      <point x="230" y="-108"/>
      <point x="236" y="-85" type="curve" smooth="yes"/>
      <point x="241" y="-65"/>
      <point x="238" y="-39"/>
      <point x="230" y="-19" type="curve" smooth="yes"/>
      <point x="177" y="119"/>
      <point x="117" y="267"/>
      <point x="59" y="406" type="curve" smooth="yes"/>
      <point x="48" y="433"/>
      <point x="36" y="444"/>
      <point x="21" y="447" type="curve" smooth="yes"/>
    </contour>
    <contour>
      <point x="86" y="547" type="line"/>
      <point x="229" y="716" type="line" smooth="yes"/>
      <point x="244" y="734"/>
      <point x="259" y="747"/>
      <point x="273" y="747" type="curve" smooth="yes"/>
      <point x="287" y="747"/>
      <point x="302" y="733"/>
      <point x="317" y="716" type="curve" smooth="yes"/>
      <point x="460" y="547" type="line"/>
      <point x="436" y="520" type="line"/>
      <point x="311" y="614" type="line" smooth="yes"/>
      <point x="297" y="624"/>
      <point x="284" y="633"/>
      <point x="273" y="633" type="curve" smooth="yes"/>
      <point x="263" y="633"/>
      <point x="249" y="624"/>
      <point x="235" y="614" type="curve" smooth="yes"/>
      <point x="110" y="520" type="line"/>
    </contour>
  </outline>
</glyph>
<glyph name="Zacute" format="1">
  <advance width="614"/>
  <unicode hex="0179"/>
  <outline>
    <contour>
      <point x="0" y="22" type="line"/>
      <point x="138" y="229"/>
      <point x="272" y="437"/>
      <point x="407" y="646" type="curve"/>
      <point x="280" y="646" type="line" smooth="yes"/>
      <point x="158" y="646"/>
      <point x="120" y="612"/>
      <point x="96" y="496" type="curve"/>
      <point x="58" y="496" type="line"/>
      <point x="58" y="692" type="line"/>
      <point x="592" y="692" type="line"/>
      <point x="605" y="671" type="line"/>
      <point x="468" y="463"/>
      <point x="331" y="256"/>
      <point x="196" y="46" type="curve"/>
      <point x="357" y="46" type="line" smooth="yes"/>
      <point x="505" y="46"/>
      <point x="530" y="97"/>
      <point x="568" y="209" type="curve"/>
      <point x="606" y="209" type="line"/>
      <point x="594" y="0" type="line"/>
      <point x="13" y="0" type="line"/>
    </contour>
    <contour>
      <point x="196" y="751" type="line"/>
      <point x="368" y="874" type="line" smooth="yes"/>
      <point x="399" y="897"/>
      <point x="414" y="904"/>
      <point x="432" y="904" type="curve" smooth="yes"/>
      <point x="464" y="904"/>
      <point x="486" y="860"/>
      <point x="486" y="840" type="curve" smooth="yes"/>
      <point x="486" y="811"/>
      <point x="466" y="800"/>
      <point x="413" y="783" type="curve" smooth="yes"/>
      <point x="210" y="719" type="line"/>
    </contour>
  </outline>
</glyph>
<glyph name="zacute" format="1">
  <advance width="483"/>
  <unicode hex="017A"/>
  <outline>
    <contour>
      <point x="-1" y="21" type="line"/>
      <point x="97" y="162"/>
      <point x="194" y="303"/>
      <point x="288" y="444" type="curve"/>
      <point x="206" y="444" type="line" smooth="yes"/>
      <point x="111" y="444"/>
      <point x="102" y="405"/>
      <point x="82" y="322" type="curve"/>
      <point x="43" y="322" type="line"/>
      <point x="43" y="490" type="line"/>
      <point x="465" y="490" type="line"/>
      <point x="476" y="470" type="line"/>
      <point x="378" y="329"/>
      <point x="281" y="187"/>
      <point x="187" y="46" type="curve"/>
      <point x="284" y="46" type="line" smooth="yes"/>
      <point x="388" y="46"/>
      <point x="413" y="77"/>
      <point x="442" y="180" type="curve"/>
      <point x="480" y="180" type="line"/>
      <point x="468" y="0" type="line"/>
      <point x="11" y="0" type="line"/>
    </contour>
    <contour>
      <point x="149" y="541" type="line"/>
      <point x="294" y="690" type="line" smooth="yes"/>
      <point x="331" y="728"/>
      <point x="348" y="740"/>
      <point x="368" y="740" type="curve" smooth="yes"/>
      <point x="392" y="740"/>
      <point x="421" y="705"/>
      <point x="421" y="680" type="curve" smooth="yes"/>
      <point x="421" y="654"/>
      <point x="389" y="634"/>
      <point x="353" y="614" type="curve" smooth="yes"/>
      <point x="170" y="511" type="line"/>
    </contour>
  </outline>
</glyph>
<glyph name="zcaron" format="1">
  <advance width="483"/>
  <unicode hex="017E"/>
  <outline>
    <contour>
      <point x="-1" y="21" type="line"/>
      <point x="97" y="162"/>
      <point x="194" y="303"/>
      <point x="288" y="444" type="curve"/>
      <point x="206" y="444" type="line" smooth="yes"/>
      <point x="111" y="444"/>
      <point x="102" y="405"/>
      <point x="82" y="322" type="curve"/>
      <point x="43" y="322" type="line"/>
      <point x="43" y="490" type="line"/>
      <point x="465" y="490" type="line"/>
      <point x="476" y="470" type="line"/>
      <point x="378" y="329"/>
      <point x="281" y="187"/>
      <point x="187" y="46" type="curve"/>
      <point x="284" y="46" type="line" smooth="yes"/>
      <point x="388" y="46"/>
      <point x="413" y="77"/>
      <point x="442" y="180" type="curve"/>
      <point x="480" y="180" type="line"/>
      <point x="468" y="0" type="line"/>
      <point x="11" y="0" type="line"/>
    </contour>
    <contour>
      <point x="66" y="720" type="line"/>
      <point x="90" y="747" type="line"/>
      <point x="215" y="653" type="line" smooth="yes"/>
      <point x="229" y="643"/>
      <point x="243" y="634"/>
      <point x="253" y="634" type="curve" smooth="yes"/>
      <point x="264" y="634"/>
      <point x="277" y="643"/>
      <point x="291" y="653" type="curve" smooth="yes"/>
      <point x="416" y="747" type="line"/>
      <point x="440" y="720" type="line"/>
      <point x="297" y="551" type="line" smooth="yes"/>
      <point x="282" y="534"/>
      <point x="267" y="520"/>
      <point x="253" y="520" type="curve" smooth="yes"/>
      <point x="239" y="520"/>
      <point x="224" y="533"/>
      <point x="209" y="551" type="curve" smooth="yes"/>
    </contour>
  </outline>
</glyph>
<glyph name="uni018E" format="1">
  <advance width="629"/>
  <unicode hex="018E"/>
  <outline>
    <contour>
      <point x="24" y="208" type="line"/>
      <point x="62" y="208" type="line"/>
      <point x="98" y="101"/>
      <point x="115" y="46"/>
      <point x="233" y="46" type="curve" smooth="yes"/>
      <point x="325" y="46"/>
      <point x="356" y="55"/>
      <point x="356" y="119" type="curve" smooth="yes"/>
      <point x="356" y="337" type="line"/>
      <point x="261" y="337" type="line" smooth="yes"/>
      <point x="198" y="337"/>
      <point x="185" y="320"/>
      <point x="169" y="247" type="curve"/>
      <point x="131" y="247" type="line"/>
      <point x="131" y="479" type="line"/>
      <point x="169" y="479" type="line"/>
      <point x="185" y="406"/>
      <point x="198" y="389"/>
      <point x="261" y="389" type="curve" smooth="yes"/>
      <point x="356" y="389" type="line"/>
      <point x="356" y="610" type="line" smooth="yes"/>
      <point x="356" y="639"/>
      <point x="349" y="646"/>
      <point x="321" y="646" type="curve" smooth="yes"/>
      <point x="246" y="646" type="line" smooth="yes"/>
      <point x="143" y="646"/>
      <point x="125" y="606"/>
      <point x="94" y="507" type="curve"/>
      <point x="56" y="507" type="line"/>
      <point x="56" y="692" type="line"/>
      <point x="595" y="692" type="line"/>
      <point x="595" y="654" type="line"/>
      <point x="524" y="651"/>
      <point x="516" y="646"/>
      <point x="516" y="595" type="curve" smooth="yes"/>
      <point x="516" y="97" type="line" smooth="yes"/>
      <point x="516" y="46"/>
      <point x="524" y="41"/>
      <point x="595" y="38" type="curve"/>
      <point x="595" y="0" type="line"/>
      <point x="36" y="0" type="line"/>
    </contour>
  </outline>
</glyph>
<glyph name="uni018F" format="2">
	<unicode hex="018F"/>
	<advance width="738"/>
	<outline>
		<contour>
			<point x="42" y="313" type="curve" smooth="yes"/>
			<point x="42" y="334"/>
			<point x="57.8212" y="351"/>
			<point x="88.4749" y="351" type="curve" smooth="yes"/>
			<point x="519" y="351" type="line"/>
			<point x="519" y="473"/>
			<point x="497.716" y="661"/>
			<point x="355.824" y="661" type="curve" smooth="yes"/>
			<point x="228.122" y="661"/>
			<point x="162.637" y="570"/>
			<point x="136.927" y="494" type="curve"/>
			<point x="99.352" y="494" type="line"/>
			<point x="99.352" y="654" type="line"/>
			<point x="170.547" y="694"/>
			<point x="302.108" y="707"/>
			<point x="369.555" y="707" type="curve" smooth="yes"/>
			<point x="584" y="707"/>
			<point x="696" y="572"/>
			<point x="696" y="346" type="curve" smooth="yes"/>
			<point x="696" y="120"/>
			<point x="585" y="-15"/>
			<point x="369" y="-15" type="curve" smooth="yes"/>
			<point x="153.737" y="-15"/>
			<point x="42" y="87"/>
		</contour>
		<contour>
			<point x="219" y="276" type="curve" smooth="yes"/>
			<point x="219" y="164"/>
			<point x="256.5" y="31"/>
			<point x="369" y="31" type="curve" smooth="yes"/>
			<point x="490.622" y="31"/>
			<point x="514.946" y="184"/>
			<point x="519" y="303" type="curve"/>
			<point x="245.351" y="303" type="line" smooth="yes"/>
			<point x="229.135" y="303"/>
			<point x="219" y="298"/>
		</contour>
	</outline>
</glyph>
<glyph name="uni0190" format="1">
  <advance width="615"/>
  <unicode hex="0190"/>
  <outline>
    <contour>
      <point x="38" y="186" type="curve" smooth="yes"/>
      <point x="38" y="290"/>
      <point x="123" y="366"/>
      <point x="216" y="376" type="curve"/>
      <point x="216" y="378" type="line"/>
      <point x="119" y="390"/>
      <point x="74" y="442"/>
      <point x="74" y="530" type="curve" smooth="yes"/>
      <point x="74" y="662"/>
      <point x="236" y="707"/>
      <point x="357" y="707" type="curve" smooth="yes"/>
      <point x="406" y="707"/>
      <point x="499" y="694"/>
      <point x="559" y="654" type="curve"/>
      <point x="559" y="494" type="line"/>
      <point x="521" y="494" type="line"/>
      <point x="500" y="574"/>
      <point x="462" y="661"/>
      <point x="348" y="661" type="curve" smooth="yes"/>
      <point x="274" y="661"/>
      <point x="236" y="603"/>
      <point x="236" y="528" type="curve" smooth="yes"/>
      <point x="236" y="454"/>
      <point x="274" y="398"/>
      <point x="356" y="398" type="curve" smooth="yes"/>
      <point x="436" y="398" type="line"/>
      <point x="436" y="350" type="line"/>
      <point x="354" y="350" type="line" smooth="yes"/>
      <point x="262" y="350"/>
      <point x="213" y="278"/>
      <point x="213" y="185" type="curve" smooth="yes"/>
      <point x="213" y="84"/>
      <point x="282" y="31"/>
      <point x="349" y="31" type="curve" smooth="yes"/>
      <point x="458" y="31"/>
      <point x="508" y="96"/>
      <point x="542" y="213" type="curve"/>
      <point x="580" y="213" type="line"/>
      <point x="568" y="26" type="line"/>
      <point x="508" y="-10"/>
      <point x="416" y="-15"/>
      <point x="352" y="-15" type="curve" smooth="yes"/>
      <point x="188" y="-15"/>
      <point x="38" y="40"/>
    </contour>
  </outline>
</glyph>
<glyph name="florin" format="1">
  <advance width="560"/>
  <unicode hex="0192"/>
  <outline>
    <contour>
      <point x="-40" y="-56" type="curve" smooth="yes"/>
      <point x="-40" y="-23"/>
      <point x="-9" y="3"/>
      <point x="28" y="3" type="curve" smooth="yes"/>
      <point x="46" y="3"/>
      <point x="57" y="-14"/>
      <point x="67" y="-34" type="curve" smooth="yes"/>
      <point x="88" y="-76"/>
      <point x="102" y="-89"/>
      <point x="111" y="-89" type="curve" smooth="yes"/>
      <point x="118" y="-89"/>
      <point x="123" y="-79"/>
      <point x="125" y="-59" type="curve" smooth="yes"/>
      <point x="172" y="361" type="line"/>
      <point x="71" y="361" type="line"/>
      <point x="71" y="409" type="line"/>
      <point x="179" y="409" type="line"/>
      <point x="187" y="457" type="line" smooth="yes"/>
      <point x="201" y="537"/>
      <point x="235" y="691"/>
      <point x="411" y="691" type="curve" smooth="yes"/>
      <point x="512" y="691"/>
      <point x="562" y="637"/>
      <point x="562" y="598" type="curve" smooth="yes"/>
      <point x="564" y="556"/>
      <point x="522" y="537"/>
      <point x="492" y="537" type="curve" smooth="yes"/>
      <point x="463" y="537"/>
      <point x="452" y="552"/>
      <point x="444" y="570" type="curve" smooth="yes"/>
      <point x="418" y="630"/>
      <point x="406" y="645"/>
      <point x="393" y="645" type="curve" smooth="yes"/>
      <point x="378" y="645"/>
      <point x="368" y="624"/>
      <point x="363" y="584" type="curve" smooth="yes"/>
      <point x="339" y="409" type="line"/>
      <point x="474" y="409" type="line"/>
      <point x="474" y="361" type="line"/>
      <point x="331" y="361" type="line"/>
      <point x="312" y="218" type="line" smooth="yes"/>
      <point x="275" y="-56"/>
      <point x="212" y="-135"/>
      <point x="90" y="-135" type="curve" smooth="yes"/>
      <point x="2" y="-135"/>
      <point x="-40" y="-89"/>
    </contour>
  </outline>
</glyph>
<glyph name="uni0193" format="2">
	<unicode hex="0193"/>
	<advance width="816"/>
	<outline>
		<component base="G"/>
		<contour>
			<point x="643" y="660.047" type="line"/>
			<point x="643" y="737.047" type="line" smooth="yes"/>
			<point x="643" y="768.733"/>
			<point x="663.909" y="798.22"/>
			<point x="689.889" y="798.22" type="curve" smooth="yes"/>
			<point x="707.11" y="798.22"/>
			<point x="718.689" y="785.265"/>
			<point x="727.825" y="765.222" type="curve" smooth="yes"/>
			<point x="734.304" y="751.012"/>
			<point x="744.979" y="733.85"/>
			<point x="769.503" y="733.85" type="curve" smooth="yes"/>
			<point x="798.729" y="733.85"/>
			<point x="825.807" y="758.222"/>
			<point x="825.807" y="803.066" type="curve" smooth="yes"/>
			<point x="825.807" y="849.246"/>
			<point x="797.092" y="890.25"/>
			<point x="719.504" y="890.25" type="curve" smooth="yes"/>
			<point x="655.825" y="890.25"/>
			<point x="605" y="826.242"/>
			<point x="605" y="746.047" type="curve" smooth="yes"/>
			<point x="605" y="660.047" type="line"/>
		</contour>
	</outline>
	<guideline x="0" y="853" angle="0"/>
</glyph>
<glyph name="uni0196" format="2">
	<unicode hex="0196"/>
	<advance width="450"/>
	<outline>
		<contour>
			<point x="29" y="654" type="curve"/>
			<point x="29" y="692" type="line"/>
			<point x="265" y="692" type="line"/>
			<point x="265" y="195" type="line" smooth="yes"/>
			<point x="265" y="84"/>
			<point x="296" y="63"/>
			<point x="333.277" y="63" type="curve" smooth="yes"/>
			<point x="359" y="63"/>
			<point x="390" y="73"/>
			<point x="421" y="91" type="curve"/>
			<point x="442" y="52" type="line"/>
			<point x="389" y="5"/>
			<point x="330" y="-15"/>
			<point x="283" y="-15" type="curve" smooth="yes"/>
			<point x="155" y="-15"/>
			<point x="105" y="64"/>
			<point x="105" y="209" type="curve" smooth="yes"/>
			<point x="105" y="595" type="line" smooth="yes"/>
			<point x="105" y="646"/>
			<point x="97" y="651"/>
		</contour>
	</outline>
</glyph>
<glyph name="uni019B" format="2">
	<unicode hex="019B"/>
	<advance width="673"/>
	<outline>
		<component base="lambda"/>
		<contour>
			<point x="116.392" y="512.062" type="line"/>
			<point x="156.56" y="454.851" type="line"/>
			<point x="427.168" y="684.789" type="line"/>
			<point x="387" y="742" type="line"/>
		</contour>
	</outline>
</glyph>
<glyph name="uni019F" format="2">
	<unicode hex="019F"/>
	<advance width="768"/>
	<outline>
		<contour>
			<point x="42" y="346" type="curve" smooth="yes"/>
			<point x="42" y="572"/>
			<point x="154" y="707"/>
			<point x="384" y="707" type="curve" smooth="yes"/>
			<point x="614" y="707"/>
			<point x="726" y="572"/>
			<point x="726" y="346" type="curve" smooth="yes"/>
			<point x="726" y="120"/>
			<point x="614" y="-15"/>
			<point x="384" y="-15" type="curve" smooth="yes"/>
			<point x="154" y="-15"/>
			<point x="42" y="120"/>
		</contour>
		<contour>
			<point x="219" y="346" type="line"/>
			<point x="219" y="225"/>
			<point x="239" y="31"/>
			<point x="384" y="31" type="curve" smooth="yes"/>
			<point x="531" y="31"/>
			<point x="549" y="225"/>
			<point x="549" y="346" type="curve"/>
		</contour>
		<contour>
			<point x="220" y="394" type="curve"/>
			<point x="548" y="394" type="line"/>
			<point x="543" y="512"/>
			<point x="513" y="661"/>
			<point x="384" y="661" type="curve" smooth="yes"/>
			<point x="255" y="661"/>
			<point x="225" y="512"/>
		</contour>
	</outline>
</glyph>
<glyph name="uni01A9" format="1">
  <advance width="596"/>
  <unicode hex="01A9"/>
  <outline>
    <contour>
      <point x="10" y="23" type="line"/>
      <point x="210" y="335" type="line"/>
      <point x="15" y="671" type="line"/>
      <point x="23" y="692" type="line"/>
      <point x="546" y="692" type="line"/>
      <point x="546" y="504" type="line"/>
      <point x="508" y="504" type="line"/>
      <point x="485" y="602"/>
      <point x="447" y="648"/>
      <point x="343" y="648" type="curve" smooth="yes"/>
      <point x="203" y="648" type="line"/>
      <point x="203" y="646" type="line"/>
      <point x="336" y="418" type="line"/>
      <point x="139" y="112" type="line"/>
      <point x="139" y="110" type="line"/>
      <point x="328" y="110" type="line" smooth="yes"/>
      <point x="431" y="110"/>
      <point x="513" y="138"/>
      <point x="533" y="243" type="curve"/>
      <point x="571" y="243" type="line"/>
      <point x="556" y="0" type="line"/>
      <point x="23" y="0" type="line"/>
    </contour>
  </outline>
</glyph>
<glyph name="uni01B7" format="2">
	<unicode hex="01B7"/>
	<advance width="618"/>
	<outline>
		<contour>
			<point x="42" y="129" type="curve" smooth="yes"/>
			<point x="42" y="180"/>
			<point x="60" y="212"/>
			<point x="111" y="212" type="curve" smooth="yes"/>
			<point x="151" y="212"/>
			<point x="182" y="198"/>
			<point x="182" y="158" type="curve" smooth="yes"/>
			<point x="182" y="130"/>
			<point x="175" y="132"/>
			<point x="175" y="91" type="curve" smooth="yes"/>
			<point x="175" y="57"/>
			<point x="207" y="31"/>
			<point x="279" y="31" type="curve" smooth="yes"/>
			<point x="350" y="31"/>
			<point x="405" y="82"/>
			<point x="405" y="185" type="curve" smooth="yes"/>
			<point x="405" y="278"/>
			<point x="361" y="341"/>
			<point x="292" y="341" type="curve" smooth="yes"/>
			<point x="272" y="341"/>
			<point x="242" y="341"/>
			<point x="218" y="327" type="curve"/>
			<point x="192" y="360" type="line"/>
			<point x="196" y="382" type="line"/>
			<point x="392" y="582" type="line"/>
			<point x="268" y="582" type="line" smooth="yes"/>
			<point x="154" y="582"/>
			<point x="134" y="566"/>
			<point x="104" y="451" type="curve"/>
			<point x="66" y="451" type="line"/>
			<point x="66" y="692" type="line"/>
			<point x="513" y="692" type="line"/>
			<point x="526" y="671" type="line"/>
			<point x="523" y="657" type="line" smooth="yes"/>
			<point x="518" y="632"/>
			<point x="508" y="612"/>
			<point x="463" y="567" type="curve" smooth="yes"/>
			<point x="289" y="392" type="line"/>
			<point x="291" y="390" type="line"/>
			<point x="305" y="396"/>
			<point x="318" y="398"/>
			<point x="333" y="398" type="curve" smooth="yes"/>
			<point x="454" y="398"/>
			<point x="580" y="351"/>
			<point x="580" y="194" type="curve" smooth="yes"/>
			<point x="580" y="35"/>
			<point x="445" y="-15"/>
			<point x="270" y="-15" type="curve" smooth="yes"/>
			<point x="134" y="-15"/>
			<point x="42" y="44"/>
		</contour>
	</outline>
</glyph>
<glyph name="uni01C5" format="1">
  <advance width="1260"/>
  <unicode hex="01C5"/>
  <outline>
    <contour>
      <point x="33" y="0" type="line"/>
      <point x="33" y="38" type="line"/>
      <point x="104" y="41"/>
      <point x="112" y="46"/>
      <point x="112" y="97" type="curve" smooth="yes"/>
      <point x="112" y="595" type="line" smooth="yes"/>
      <point x="112" y="646"/>
      <point x="104" y="651"/>
      <point x="33" y="654" type="curve"/>
      <point x="33" y="692" type="line"/>
      <point x="376" y="692" type="line" smooth="yes"/>
      <point x="506" y="691"/>
      <point x="590" y="663"/>
      <point x="648" y="606" type="curve" smooth="yes"/>
      <point x="706" y="549"/>
      <point x="735" y="465"/>
      <point x="735" y="353" type="curve" smooth="yes"/>
      <point x="735" y="21"/>
      <point x="488" y="0"/>
      <point x="332" y="0" type="curve" smooth="yes"/>
    </contour>
    <contour>
      <point x="272" y="90" type="line" smooth="yes"/>
      <point x="272" y="58"/>
      <point x="289" y="46"/>
      <point x="352" y="46" type="curve" smooth="yes"/>
      <point x="450" y="46"/>
      <point x="558" y="89"/>
      <point x="558" y="353" type="curve" smooth="yes"/>
      <point x="558" y="546"/>
      <point x="489" y="646"/>
      <point x="355" y="646" type="curve" smooth="yes"/>
      <point x="292" y="646"/>
      <point x="272" y="641"/>
      <point x="272" y="618" type="curve" smooth="yes"/>
    </contour>
    <contour>
      <point x="776" y="21" type="line"/>
      <point x="874" y="162"/>
      <point x="971" y="303"/>
      <point x="1065" y="444" type="curve"/>
      <point x="983" y="444" type="line" smooth="yes"/>
      <point x="888" y="444"/>
      <point x="879" y="405"/>
      <point x="859" y="322" type="curve"/>
      <point x="820" y="322" type="line"/>
      <point x="820" y="490" type="line"/>
      <point x="1242" y="490" type="line"/>
      <point x="1253" y="470" type="line"/>
      <point x="1155" y="329"/>
      <point x="1058" y="187"/>
      <point x="964" y="46" type="curve"/>
      <point x="1061" y="46" type="line" smooth="yes"/>
      <point x="1165" y="46"/>
      <point x="1190" y="77"/>
      <point x="1219" y="180" type="curve"/>
      <point x="1257" y="180" type="line"/>
      <point x="1245" y="0" type="line"/>
      <point x="788" y="0" type="line"/>
    </contour>
    <contour>
      <point x="843" y="720" type="line"/>
      <point x="867" y="747" type="line"/>
      <point x="992" y="653" type="line" smooth="yes"/>
      <point x="1006" y="643"/>
      <point x="1020" y="634"/>
      <point x="1030" y="634" type="curve" smooth="yes"/>
      <point x="1041" y="634"/>
      <point x="1054" y="643"/>
      <point x="1068" y="653" type="curve" smooth="yes"/>
      <point x="1193" y="747" type="line"/>
      <point x="1217" y="720" type="line"/>
      <point x="1074" y="551" type="line" smooth="yes"/>
      <point x="1059" y="534"/>
      <point x="1044" y="520"/>
      <point x="1030" y="520" type="curve" smooth="yes"/>
      <point x="1016" y="520"/>
      <point x="1001" y="533"/>
      <point x="986" y="551" type="curve" smooth="yes"/>
    </contour>
  </outline>
</glyph>
<glyph name="uni01C8" format="1">
  <advance width="901"/>
  <unicode hex="01C8"/>
  <outline>
    <contour>
      <point x="33" y="0" type="line"/>
      <point x="33" y="38" type="line"/>
      <point x="104" y="41"/>
      <point x="112" y="46"/>
      <point x="112" y="97" type="curve" smooth="yes"/>
      <point x="112" y="595" type="line" smooth="yes"/>
      <point x="112" y="646"/>
      <point x="104" y="651"/>
      <point x="33" y="654" type="curve"/>
      <point x="33" y="692" type="line"/>
      <point x="363" y="692" type="line"/>
      <point x="363" y="654" type="line"/>
      <point x="280" y="651"/>
      <point x="272" y="646"/>
      <point x="272" y="595" type="curve" smooth="yes"/>
      <point x="272" y="119" type="line" smooth="yes"/>
      <point x="272" y="55"/>
      <point x="299" y="46"/>
      <point x="383" y="46" type="curve" smooth="yes"/>
      <point x="497" y="46"/>
      <point x="510" y="101"/>
      <point x="546" y="201" type="curve"/>
      <point x="584" y="201" type="line"/>
      <point x="572" y="0" type="line"/>
    </contour>
    <contour>
      <point x="573" y="-201" type="line"/>
      <point x="600" y="-192"/>
      <point x="625" y="-181"/>
      <point x="645" y="-156" type="curve" smooth="yes"/>
      <point x="667" y="-128"/>
      <point x="683" y="-69"/>
      <point x="683" y="31" type="curve" smooth="yes"/>
      <point x="683" y="381" type="line" smooth="yes"/>
      <point x="683" y="421"/>
      <point x="675" y="430"/>
      <point x="659" y="432" type="curve" smooth="yes"/>
      <point x="624" y="437" type="line"/>
      <point x="624" y="473" type="line"/>
      <point x="827" y="502" type="line"/>
      <point x="834" y="496" type="line"/>
      <point x="834" y="25" type="line" smooth="yes"/>
      <point x="834" y="-84"/>
      <point x="812" y="-162"/>
      <point x="743" y="-198" type="curve" smooth="yes"/>
      <point x="693" y="-224"/>
      <point x="636" y="-232"/>
      <point x="577" y="-232" type="curve"/>
    </contour>
    <contour>
      <point x="662" y="633" type="curve" smooth="yes"/>
      <point x="662" y="680"/>
      <point x="697" y="720"/>
      <point x="753" y="720" type="curve" smooth="yes"/>
      <point x="810" y="720"/>
      <point x="845" y="680"/>
      <point x="845" y="633" type="curve" smooth="yes"/>
      <point x="845" y="585"/>
      <point x="808" y="545"/>
      <point x="753" y="545" type="curve" smooth="yes"/>
      <point x="697" y="545"/>
      <point x="662" y="585"/>
    </contour>
  </outline>
</glyph>
<glyph name="uni01C9" format="1">
  <advance width="625"/>
  <unicode hex="01C9"/>
  <outline>
    <contour>
      <point x="19" y="0" type="line"/>
      <point x="19" y="38" type="line"/>
      <point x="76" y="41"/>
      <point x="84" y="45"/>
      <point x="84" y="87" type="curve" smooth="yes"/>
      <point x="84" y="621" type="line" smooth="yes"/>
      <point x="84" y="661"/>
      <point x="76" y="670"/>
      <point x="60" y="673" type="curve" smooth="yes"/>
      <point x="25" y="679" type="line"/>
      <point x="25" y="715" type="line"/>
      <point x="228" y="742" type="line"/>
      <point x="235" y="736" type="line"/>
      <point x="235" y="87" type="line" smooth="yes"/>
      <point x="235" y="45"/>
      <point x="243" y="41"/>
      <point x="300" y="38" type="curve"/>
      <point x="300" y="0" type="line"/>
    </contour>
    <contour>
      <point x="297" y="-201" type="line"/>
      <point x="324" y="-192"/>
      <point x="349" y="-181"/>
      <point x="369" y="-156" type="curve" smooth="yes"/>
      <point x="391" y="-128"/>
      <point x="407" y="-69"/>
      <point x="407" y="31" type="curve" smooth="yes"/>
      <point x="407" y="381" type="line" smooth="yes"/>
      <point x="407" y="421"/>
      <point x="399" y="430"/>
      <point x="383" y="432" type="curve" smooth="yes"/>
      <point x="348" y="437" type="line"/>
      <point x="348" y="473" type="line"/>
      <point x="551" y="502" type="line"/>
      <point x="558" y="496" type="line"/>
      <point x="558" y="25" type="line" smooth="yes"/>
      <point x="558" y="-84"/>
      <point x="536" y="-162"/>
      <point x="467" y="-198" type="curve" smooth="yes"/>
      <point x="417" y="-224"/>
      <point x="360" y="-232"/>
      <point x="301" y="-232" type="curve"/>
    </contour>
    <contour>
      <point x="386" y="633" type="curve" smooth="yes"/>
      <point x="386" y="680"/>
      <point x="421" y="720"/>
      <point x="477" y="720" type="curve" smooth="yes"/>
      <point x="534" y="720"/>
      <point x="569" y="680"/>
      <point x="569" y="633" type="curve" smooth="yes"/>
      <point x="569" y="585"/>
      <point x="532" y="545"/>
      <point x="477" y="545" type="curve" smooth="yes"/>
      <point x="421" y="545"/>
      <point x="386" y="585"/>
    </contour>
  </outline>
</glyph>
<glyph name="uni01D2" format="1">
  <advance width="585"/>
  <unicode hex="01D2"/>
  <outline>
    <contour>
      <point x="34" y="245" type="curve" smooth="yes"/>
      <point x="34" y="405"/>
      <point x="111" y="502"/>
      <point x="293" y="502" type="curve" smooth="yes"/>
      <point x="475" y="502"/>
      <point x="552" y="405"/>
      <point x="552" y="245" type="curve" smooth="yes"/>
      <point x="552" y="85"/>
      <point x="475" y="-12"/>
      <point x="293" y="-12" type="curve" smooth="yes"/>
      <point x="111" y="-12"/>
      <point x="34" y="85"/>
    </contour>
    <contour>
      <point x="106" y="720" type="line"/>
      <point x="130" y="747" type="line"/>
      <point x="255" y="653" type="line" smooth="yes"/>
      <point x="269" y="643"/>
      <point x="283" y="634"/>
      <point x="293" y="634" type="curve" smooth="yes"/>
      <point x="304" y="634"/>
      <point x="317" y="643"/>
      <point x="331" y="653" type="curve" smooth="yes"/>
      <point x="456" y="747" type="line"/>
      <point x="480" y="720" type="line"/>
      <point x="337" y="551" type="line" smooth="yes"/>
      <point x="322" y="534"/>
      <point x="307" y="520"/>
      <point x="293" y="520" type="curve" smooth="yes"/>
      <point x="279" y="520"/>
      <point x="264" y="533"/>
      <point x="249" y="551" type="curve" smooth="yes"/>
    </contour>
    <contour>
      <point x="193" y="245" type="curve" smooth="yes"/>
      <point x="193" y="111"/>
      <point x="222" y="34"/>
      <point x="293" y="34" type="curve" smooth="yes"/>
      <point x="364" y="34"/>
      <point x="393" y="111"/>
      <point x="393" y="245" type="curve" smooth="yes"/>
      <point x="393" y="379"/>
      <point x="364" y="456"/>
      <point x="293" y="456" type="curve" smooth="yes"/>
      <point x="222" y="456"/>
      <point x="193" y="379"/>
    </contour>
  </outline>
</glyph>
<glyph name="uni01D6" format="1">
  <advance width="629"/>
  <unicode hex="01D6"/>
  <outline>
    <contour>
      <point x="22" y="437" type="line"/>
      <point x="22" y="473" type="line"/>
      <point x="225" y="502" type="line"/>
      <point x="232" y="496" type="line"/>
      <point x="232" y="176" type="line" smooth="yes"/>
      <point x="232" y="98"/>
      <point x="263" y="67"/>
      <point x="316" y="67" type="curve" smooth="yes"/>
      <point x="360" y="67"/>
      <point x="386" y="91"/>
      <point x="395" y="114" type="curve" smooth="yes"/>
      <point x="401" y="129"/>
      <point x="403" y="153"/>
      <point x="403" y="170" type="curve" smooth="yes"/>
      <point x="403" y="381" type="line" smooth="yes"/>
      <point x="403" y="421"/>
      <point x="395" y="430"/>
      <point x="379" y="432" type="curve" smooth="yes"/>
      <point x="344" y="437" type="line"/>
      <point x="344" y="473" type="line"/>
      <point x="547" y="502" type="line"/>
      <point x="554" y="496" type="line"/>
      <point x="554" y="87" type="line" smooth="yes"/>
      <point x="554" y="45"/>
      <point x="562" y="41"/>
      <point x="619" y="38" type="curve"/>
      <point x="619" y="0" type="line"/>
      <point x="411" y="0" type="line"/>
      <point x="403" y="56" type="line"/>
      <point x="363" y="34"/>
      <point x="311" y="-12"/>
      <point x="226" y="-12" type="curve" smooth="yes"/>
      <point x="154" y="-12"/>
      <point x="81" y="21"/>
      <point x="81" y="138" type="curve" smooth="yes"/>
      <point x="81" y="381" type="line" smooth="yes"/>
      <point x="81" y="421"/>
      <point x="73" y="430"/>
      <point x="57" y="432" type="curve" smooth="yes"/>
    </contour>
    <contour>
      <point x="115" y="635" type="curve" smooth="yes"/>
      <point x="115" y="673"/>
      <point x="143" y="710"/>
      <point x="194" y="710" type="curve" smooth="yes"/>
      <point x="245" y="710"/>
      <point x="273" y="673"/>
      <point x="273" y="635" type="curve" smooth="yes"/>
      <point x="273" y="597"/>
      <point x="245" y="560"/>
      <point x="194" y="560" type="curve" smooth="yes"/>
      <point x="143" y="560"/>
      <point x="115" y="597"/>
    </contour>
    <contour>
      <point x="159" y="770" type="line"/>
      <point x="159" y="857" type="line"/>
      <point x="470" y="857" type="line"/>
      <point x="470" y="770" type="line"/>
    </contour>
    <contour>
      <point x="355" y="635" type="curve" smooth="yes"/>
      <point x="355" y="673"/>
      <point x="383" y="710"/>
      <point x="434" y="710" type="curve" smooth="yes"/>
      <point x="485" y="710"/>
      <point x="513" y="673"/>
      <point x="513" y="635" type="curve" smooth="yes"/>
      <point x="513" y="597"/>
      <point x="485" y="560"/>
      <point x="434" y="560" type="curve" smooth="yes"/>
      <point x="383" y="560"/>
      <point x="355" y="597"/>
    </contour>
  </outline>
</glyph>
<glyph name="uni01E1" format="1">
  <advance width="544"/>
  <unicode hex="01E1"/>
  <outline>
    <contour>
      <point x="40" y="133" type="curve" smooth="yes"/>
      <point x="40" y="190"/>
      <point x="67" y="231"/>
      <point x="146" y="258" type="curve" smooth="yes"/>
      <point x="211" y="280"/>
      <point x="295" y="305"/>
      <point x="330" y="329" type="curve"/>
      <point x="330" y="382" type="line" smooth="yes"/>
      <point x="330" y="439"/>
      <point x="301" y="456"/>
      <point x="272" y="456" type="curve" smooth="yes"/>
      <point x="244" y="456"/>
      <point x="212" y="441"/>
      <point x="184" y="356" type="curve" smooth="yes"/>
      <point x="176" y="332"/>
      <point x="165" y="316"/>
      <point x="143" y="316" type="curve" smooth="yes"/>
      <point x="117" y="316"/>
      <point x="53" y="334"/>
      <point x="53" y="379" type="curve" smooth="yes"/>
      <point x="53" y="444"/>
      <point x="143" y="502"/>
      <point x="290" y="502" type="curve" smooth="yes"/>
      <point x="467" y="502"/>
      <point x="477" y="424"/>
      <point x="477" y="362" type="curve" smooth="yes"/>
      <point x="477" y="131" type="line" smooth="yes"/>
      <point x="477" y="72"/>
      <point x="496" y="60"/>
      <point x="509" y="56" type="curve" smooth="yes"/>
      <point x="524" y="51"/>
      <point x="544" y="50"/>
      <point x="557" y="51" type="curve"/>
      <point x="560" y="18" type="line"/>
      <point x="527" y="5"/>
      <point x="464" y="-12"/>
      <point x="412" y="-12" type="curve" smooth="yes"/>
      <point x="364" y="-12"/>
      <point x="347" y="15"/>
      <point x="334" y="46" type="curve"/>
      <point x="299" y="23"/>
      <point x="255" y="-12"/>
      <point x="191" y="-12" type="curve" smooth="yes"/>
      <point x="90" y="-12"/>
      <point x="40" y="58"/>
    </contour>
    <contour>
      <point x="135" y="770" type="line"/>
      <point x="135" y="857" type="line"/>
      <point x="446" y="857" type="line"/>
      <point x="446" y="770" type="line"/>
    </contour>
    <contour>
      <point x="194" y="150" type="curve" smooth="yes"/>
      <point x="194" y="97"/>
      <point x="229" y="66"/>
      <point x="268" y="66" type="curve" smooth="yes"/>
      <point x="295" y="66"/>
      <point x="328" y="80"/>
      <point x="330" y="134" type="curve" smooth="yes"/>
      <point x="330" y="279" type="line"/>
      <point x="306" y="268"/>
      <point x="271" y="254"/>
      <point x="240" y="237" type="curve" smooth="yes"/>
      <point x="210" y="220"/>
      <point x="194" y="197"/>
    </contour>
    <contour>
      <point x="211" y="635" type="curve" smooth="yes"/>
      <point x="211" y="673"/>
      <point x="239" y="710"/>
      <point x="290" y="710" type="curve" smooth="yes"/>
      <point x="341" y="710"/>
      <point x="369" y="673"/>
      <point x="369" y="635" type="curve" smooth="yes"/>
      <point x="369" y="597"/>
      <point x="341" y="560"/>
      <point x="290" y="560" type="curve" smooth="yes"/>
      <point x="239" y="560"/>
      <point x="211" y="597"/>
    </contour>
  </outline>
</glyph>
<glyph name="uni01E9" format="1">
  <advance width="582"/>
  <unicode hex="01E9"/>
  <outline>
    <contour>
      <point x="19" y="0" type="line"/>
      <point x="19" y="38" type="line"/>
      <point x="76" y="41"/>
      <point x="84" y="45"/>
      <point x="84" y="87" type="curve" smooth="yes"/>
      <point x="84" y="621" type="line" smooth="yes"/>
      <point x="84" y="661"/>
      <point x="76" y="670"/>
      <point x="60" y="673" type="curve" smooth="yes"/>
      <point x="25" y="679" type="line"/>
      <point x="25" y="715" type="line"/>
      <point x="228" y="742" type="line"/>
      <point x="235" y="736" type="line"/>
      <point x="235" y="272" type="line"/>
      <point x="237" y="272" type="line"/>
      <point x="309" y="374" type="line" smooth="yes"/>
      <point x="332" y="406"/>
      <point x="352" y="435"/>
      <point x="371" y="460" type="curve" smooth="yes"/>
      <point x="389" y="482"/>
      <point x="408" y="490"/>
      <point x="430" y="490" type="curve" smooth="yes"/>
      <point x="575" y="490" type="line"/>
      <point x="575" y="458" type="line"/>
      <point x="491" y="440"/>
      <point x="430" y="396"/>
      <point x="377" y="345" type="curve" smooth="yes"/>
      <point x="355" y="323" type="line"/>
      <point x="408" y="239"/>
      <point x="464" y="161"/>
      <point x="531" y="86" type="curve" smooth="yes"/>
      <point x="561" y="52"/>
      <point x="574" y="40"/>
      <point x="595" y="32" type="curve"/>
      <point x="595" y="0" type="line"/>
      <point x="505" y="0" type="line" smooth="yes"/>
      <point x="432" y="0"/>
      <point x="392" y="13"/>
      <point x="357" y="59" type="curve" smooth="yes"/>
      <point x="311" y="120"/>
      <point x="271" y="188"/>
      <point x="237" y="254" type="curve"/>
      <point x="235" y="254" type="line"/>
      <point x="235" y="87" type="line" smooth="yes"/>
      <point x="235" y="45"/>
      <point x="243" y="41"/>
      <point x="300" y="38" type="curve"/>
      <point x="300" y="0" type="line"/>
    </contour>
    <contour>
      <point x="120" y="960" type="line"/>
      <point x="144" y="987" type="line"/>
      <point x="269" y="893" type="line" smooth="yes"/>
      <point x="283" y="883"/>
      <point x="297" y="874"/>
      <point x="307" y="874" type="curve" smooth="yes"/>
      <point x="318" y="874"/>
      <point x="331" y="883"/>
      <point x="345" y="893" type="curve" smooth="yes"/>
      <point x="470" y="987" type="line"/>
      <point x="494" y="960" type="line"/>
      <point x="351" y="791" type="line" smooth="yes"/>
      <point x="336" y="774"/>
      <point x="321" y="760"/>
      <point x="307" y="760" type="curve" smooth="yes"/>
      <point x="293" y="760"/>
      <point x="278" y="773"/>
      <point x="263" y="791" type="curve" smooth="yes"/>
    </contour>
  </outline>
</glyph>
<glyph name="uni01EC" format="1">
  <advance width="768"/>
  <unicode hex="01EC"/>
  <outline>
    <contour>
      <point x="42" y="346" type="curve"/>
      <point x="43" y="348" type="line"/>
      <point x="43" y="574"/>
      <point x="155" y="709"/>
      <point x="385" y="709" type="curve" smooth="yes"/>
      <point x="615" y="709"/>
      <point x="727" y="574"/>
      <point x="727" y="348" type="curve" smooth="yes"/>
      <point x="727" y="128"/>
      <point x="621" y="-6"/>
      <point x="404" y="-13" type="curve"/>
      <point x="356" y="-55"/>
      <point x="331" y="-98"/>
      <point x="331" y="-136" type="curve" smooth="yes"/>
      <point x="332" y="-176"/>
      <point x="358" y="-198"/>
      <point x="391" y="-198" type="curve" smooth="yes"/>
      <point x="406" y="-198"/>
      <point x="427" y="-193"/>
      <point x="440" y="-185" type="curve"/>
      <point x="455" y="-212" type="line"/>
      <point x="418" y="-243"/>
      <point x="381" y="-252"/>
      <point x="350" y="-252" type="curve" smooth="yes"/>
      <point x="247" y="-252"/>
      <point x="235" y="-188"/>
      <point x="235" y="-155" type="curve" smooth="yes"/>
      <point x="235" y="-107"/>
      <point x="283" y="-49"/>
      <point x="344" y="-13" type="curve"/>
      <point x="141" y="2"/>
      <point x="42" y="134"/>
    </contour>
    <contour>
      <point x="209" y="767" type="line"/>
      <point x="209" y="854" type="line"/>
      <point x="559" y="854" type="line"/>
      <point x="559" y="767" type="line"/>
    </contour>
    <contour>
      <point x="219" y="346" type="curve" smooth="yes"/>
      <point x="219" y="225"/>
      <point x="239" y="31"/>
      <point x="384" y="31" type="curve" smooth="yes"/>
      <point x="531" y="31"/>
      <point x="549" y="225"/>
      <point x="549" y="346" type="curve" smooth="yes"/>
      <point x="549" y="467"/>
      <point x="531" y="661"/>
      <point x="384" y="661" type="curve" smooth="yes"/>
      <point x="237" y="661"/>
      <point x="219" y="467"/>
    </contour>
  </outline>
</glyph>
